<?xml version="1.0" encoding="iso-8859-1"?>
<!-- Generator: Adobe Illustrator 19.0.0, SVG Export Plug-In . SVG Version: 6.00 Build 0)  -->
<svg xmlns="http://www.w3.org/2000/svg" xmlns:xlink="http://www.w3.org/1999/xlink" version="1.1" id="Layer_1" x="0px" y="0px" viewBox="0 0 512.001 512.001" style="enable-background:new 0 0 512.001 512.001;" xml:space="preserve">
<ellipse transform="matrix(-0.9185 0.3954 -0.3954 -0.9185 910.2219 47.8297)" style="fill:#AA6100;" cx="450.182" cy="117.713" rx="51.457" ry="66.869"/>
<path style="fill:#9A4C00;" d="M497.432,97.382c-4.151-9.642-9.792-18.024-16.334-24.833c-0.001,0.002-0.003,0.003-0.005,0.005  c-7.189,26.463-13.122,76.653-20.728,109.875c5.555,0.004,11.038-1.04,16.245-3.281C502.713,167.911,512.035,131.303,497.432,97.382  z"/>
<path style="fill:#CC7400;" d="M313.275,43.676c61.955-26.672,133.801,1.929,160.474,63.884s-1.929,133.801-63.884,160.474  s-203.849,28.227-230.521-33.728S251.32,70.348,313.275,43.676z"/>
<g>
	<path style="fill:#AA6100;" d="M410.265,180.172c-53.02,33.239-163.391,56.003-235.144,36.926   c0.517,5.991,1.874,11.757,4.221,17.207c26.672,61.955,168.566,60.401,230.521,33.728s90.556-98.519,63.884-160.474   C473.482,106.94,451.551,154.288,410.265,180.172z"/>
	<path style="fill:#AA6100;" d="M318.317,74.616c-1.661-3.856,0.12-8.329,3.977-9.989c5.195-2.237,10.576-4.038,15.994-5.354   c4.081-0.992,8.192,1.514,9.182,5.594c0.99,4.08-1.514,8.192-5.594,9.182c-4.59,1.115-9.05,2.912-13.57,4.544   C323.383,80.37,319.556,77.493,318.317,74.616z"/>
	<path style="fill:#AA6100;" d="M419.628,94.961c-16.141-14.54-36.358-23.255-58.118-23.255c-4.199,0-7.603-3.404-7.603-7.603   s3.404-7.603,7.603-7.603c25.688,0,50.055,9.752,68.615,27.459c3.038,2.898,3.151,7.712,0.252,10.75   C428.884,96.274,424.25,99.124,419.628,94.961z"/>
</g>
<ellipse transform="matrix(-0.9185 0.3954 -0.3954 -0.9185 478.6844 349.3094)" style="fill:#9A4C00;" cx="203.346" cy="223.983" rx="58.431" ry="85.66"/>
<path style="fill:#663A00;" d="M224.098,272.197c-20.712,12.183-48.851,0.537-61.731-29.375  c-12.879-29.912-1.673-55.898,20.21-67.068C193.884,169.981,235.039,265.761,224.098,272.197z"/>
<path style="fill:#2D2D30;" d="M226.552,213.981c12.879,29.913,5.731,54.692-2.453,58.215c-8.184,3.524-31.095-8.315-43.974-38.228  s-5.731-54.692,2.453-58.215C190.762,172.23,213.674,184.067,226.552,213.981z"/>
<path style="fill:#1D1D1F;" d="M196.85,226.237c-8.99-20.881-8.216-39.25-4.149-49.643c-4.198-1.59-7.769-1.853-10.122-0.84  c-8.184,3.524-15.332,28.302-2.453,58.215s35.79,41.751,43.974,38.228c2.471-1.064,4.844-4.076,6.602-8.572  C220.295,259.683,206.026,247.553,196.85,226.237z"/>
<path style="fill:#57A4FF;" d="M215.782,426.363v3.662c0,11.151-9.124,20.275-20.275,20.275H27.878  c-11.151,0-20.275-9.124-20.275-20.275v-3.662c0-11.151,9.124-20.275,20.275-20.275h167.63  C206.659,406.088,215.782,415.212,215.782,426.363z"/>
<path style="fill:#2488FF;" d="M195.508,406.088H27.878c-0.937,0-0.911,29.597,11.911,44.211h155.718  c11.151,0,20.275-9.124,20.275-20.275v-3.662C215.782,415.212,206.659,406.088,195.508,406.088z"/>
<path style="fill:#57A4FF;" d="M227.484,216.243c-16.63,5.879-30.522,17.579-39.233,32.644c-6.245,10.8-9.839,23.318-9.839,36.666  l-0.372,164.745l19.172-0.051c24.594,0,25.411-28.386,25.411-38.153V285.554c0-8.498,5.638-17.158,6.006-17.743  C234.129,259.074,236.739,239.347,227.484,216.243z"/>
<path style="fill:#9BC9FF;" d="M67.482,330.39c-14.007,0-22.106-9.124-22.106-20.275v-13.628c0-11.151,8.605-20.275,21.784-20.275  s22.427,9.124,22.427,20.275v13.628C89.587,321.267,81.488,330.39,67.482,330.39z"/>
<g>
	<path style="fill:#2488FF;" d="M227.484,216.243c-6.227,2.202-12.072,5.22-17.403,8.925v15.171c0,0,15.54,6.167,18.548,27.471   C234.129,259.074,236.739,239.346,227.484,216.243z"/>
	<path style="fill:#2488FF;" d="M188.252,248.888c-6.245,10.801-9.839,23.318-9.839,36.666L178.041,450.3l19.172-0.051   c8.793-8.861,9.358-35.228,9.358-35.228V277.432c0-3.695,0.694-7.228,1.948-10.486c3.965-10.303,13.587-17.82,25.044-18.714   c0.305-9.072-1.308-20.079-6.078-31.989C210.854,222.122,196.962,233.823,188.252,248.888z"/>
</g>
<path style="fill:#9BC9FF;" d="M226.552,213.981c-3.395-7.885-7.488-14.502-11.824-19.924c-15.574,1.466-29.74,7.815-40.968,17.492  c-15.653,13.489-25.593,33.435-25.593,55.673V404.81c0,16.151-13.139,29.29-29.29,29.29s-29.29-13.139-29.29-29.29v-27.331  c0-12.208-9.897-22.106-22.106-22.106s-22.106,9.897-22.106,22.106v27.331c0,40.528,32.972,73.501,73.501,73.501  c73.501,0,73.501-73.501,73.501-73.501V267.22c0-3.695,0.694-7.228,1.948-10.486c4.227-10.985,14.886-18.804,27.342-18.804  l11.446-0.042C232.255,230.582,230.216,222.49,226.552,213.981z"/>
<path style="fill:#57A4FF;" d="M233.114,237.889c-0.86-7.307-2.898-15.399-6.562-23.908c-3.395-7.885-7.488-14.502-11.824-19.924  c-9.438,0.888-18.353,3.58-26.417,7.708c6.36,6.28,12.619,14.969,17.459,26.212c1.826,4.242,3.237,8.373,4.311,12.363  c3.556-1.54,7.469-2.409,11.586-2.409L233.114,237.889z"/>
<path d="M148.167,358.387c4.199,0,7.603-3.404,7.603-7.603V332.03c0-4.199-3.404-7.603-7.603-7.603  c-4.199,0-7.603,3.404-7.603,7.603v18.754C140.564,354.983,143.968,358.387,148.167,358.387z"/>
<path d="M504.415,94.376c-6.98-16.213-18.292-29.963-31.852-38.719c-13.338-8.612-28.029-11.914-41.582-9.421  c-6.724-4.237-13.883-7.895-21.426-10.898c-32.197-12.818-67.456-12.329-99.286,1.374c-37.703,16.231-85.2,57.482-113.779,98.643  c-10.466-2.005-20.685-1.044-30.029,2.978c-16.715,7.197-28.252,23.147-32.485,44.914c-4.001,20.572-0.968,44.136,8.527,66.41  c-1.275,5.723-1.937,11.614-1.937,17.582v40.481c0,4.199,3.404,7.603,7.603,7.603s7.603-3.404,7.603-7.603V267.24  c0-19.15,8.365-37.342,22.953-49.912c9.361-8.067,20.564-13.253,32.607-15.153c2.94,4.16,5.761,9.076,8.24,14.832  c2.015,4.681,3.463,9.141,4.475,13.332c0,0-26.534-0.19-36.813,23.685c-1.794,4.167-2.455,8.681-2.455,13.217v137.589  c0,0.166-0.096,16.772-8.385,33.35c-10.798,21.597-30.149,32.547-57.512,32.547c-36.336,0-65.897-29.562-65.897-65.897v-27.331  c0-7.997,6.505-14.503,14.503-14.503s14.503,6.505,14.503,14.503v27.331c0,20.343,16.55,36.893,36.893,36.893  s36.893-16.55,36.893-36.893v-29.188c0-4.199-3.404-7.603-7.603-7.603c-4.199,0-7.603,3.404-7.603,7.603v22.864H97.19v-21.008  c0-16.382-13.327-29.709-29.709-29.709c-16.381,0-29.709,13.327-29.709,29.709v21.008h-9.895C12.505,398.505,0,411.01,0,426.382  v3.662c0,15.372,12.505,27.878,27.878,27.878h7.434c4.199,0,7.603-3.404,7.603-7.603s-3.404-7.603-7.603-7.603h-7.434  c-6.988,0-12.672-5.684-12.672-12.672v-3.662c0-6.988,5.684-12.672,12.672-12.672H38.27c4.439,40.556,38.889,72.222,80.607,72.222  c32.382,0,51.627-13.334,63.009-28.021l15.326-0.041c12.33,0,33.014-5.945,33.014-45.756v-99.404  c3.441-0.661,6.784-1.676,9.99-3.055c16.715-7.197,28.252-23.147,32.485-44.914c4.029-20.71,0.935-44.453-8.711-66.859  c-9.646-22.406-24.768-40.971-42.579-52.279c-3.244-2.059-6.512-3.82-9.785-5.318c27.318-37.8,70.395-74.859,104.653-89.607  c28.099-12.098,59.227-12.527,87.649-1.212c28.423,11.315,50.738,33.022,62.835,61.12c24.971,58.005-1.902,125.512-59.907,150.483  c-29.96,12.898-79.097,19.322-122.274,15.989c-4.185-0.338-7.842,2.808-8.166,6.995c-0.323,4.187,2.808,7.842,6.995,8.166  c8.186,0.633,16.516,0.94,24.869,0.94c38.711,0,77.84-6.608,104.588-18.123c40.743-17.541,67.919-53.609,75.949-94.148  C512.073,164.071,518.895,128.012,504.415,94.376z M118.877,426.515c-8.791,0-16.362-5.267-19.763-12.805h39.527  C135.239,421.248,127.668,426.515,118.877,426.515z M180.859,197.19c0.757-8.589,3.496-13.418,4.741-14.414  c2.124-0.358,7.494,1.526,13.743,6.5C192.875,191.126,186.677,193.78,180.859,197.19z M215.02,285.573v126.542  c0,30.55-13.404,30.55-17.829,30.55l-6.1,0.016c8.779-18.947,8.888-37.061,8.888-37.853V267.24c0-2.661,0.486-5.27,1.441-7.755  c3.206-8.333,11.343-13.931,20.274-13.931l4.308-0.016c0,12.129-4.818,19.91-4.818,19.91  C218.782,269.578,215.02,277.357,215.02,285.573z M250.025,203.896c8.448,19.625,11.202,40.203,7.751,57.942  c-3.245,16.681-11.616,28.703-23.572,33.851c-1.293,0.557-2.622,1.023-3.977,1.409v-11.524c0-4.485,2.577-10.133,4.784-13.607  l0.055-0.086l-0.007-0.005c2.87-4.553,4.879-10.735,5.719-17.997c1.533-13.249-1.039-28.478-7.241-42.884  c-6.202-14.405-15.498-26.74-26.175-34.733c-10.322-7.727-20.711-10.52-27.789-7.472c-9.914,4.268-15.467,20.646-13.807,39.77  c-5.91,5.631-10.885,12.054-14.81,19.032c-3.786-14.342-4.547-28.632-2.055-41.442c3.245-16.681,11.615-28.703,23.572-33.851  c11.957-5.148,26.442-2.966,40.79,6.141C228.52,168.127,241.575,184.27,250.025,203.896z M451.684,62.452  c15.611,4.82,30.527,18.802,38.764,37.937c8.272,19.214,8.092,39.696,0.85,54.323c-0.128-16.774-3.528-33.791-10.566-50.141  C473.805,88.486,463.92,74.254,451.684,62.452z"/>
<path d="M67.482,337.993c17.214,0,29.709-11.724,29.709-27.878v-13.628c0-15.632-13.191-27.878-30.031-27.878  c-16.753,0-29.386,11.984-29.386,27.878v13.628C37.773,326.269,50.267,337.993,67.482,337.993z M52.979,296.488  c0-7.461,5.831-12.672,14.18-12.672c8.59,0,14.825,5.329,14.825,12.672v13.628c0,7.816-5.557,12.672-14.503,12.672  s-14.503-4.856-14.503-12.672V296.488z"/>
<g>
</g>
<g>
</g>
<g>
</g>
<g>
</g>
<g>
</g>
<g>
</g>
<g>
</g>
<g>
</g>
<g>
</g>
<g>
</g>
<g>
</g>
<g>
</g>
<g>
</g>
<g>
</g>
<g>
</g>
</svg>
