<?xml version="1.0" encoding="iso-8859-1"?>
<!-- Generator: Adobe Illustrator 19.0.0, SVG Export Plug-In . SVG Version: 6.00 Build 0)  -->
<svg xmlns="http://www.w3.org/2000/svg" xmlns:xlink="http://www.w3.org/1999/xlink" version="1.1" id="Layer_1" x="0px" y="0px" viewBox="0 0 511.998 511.998" style="enable-background:new 0 0 511.998 511.998;" xml:space="preserve">
<path style="fill:#A78966;" d="M454.944,150.446c0,0,9.213,109.471-10.424,193.052c-3.335,14.195-16.017,24.215-30.598,24.215  h-22.317c-12.354,0-21.129-12.006-17.391-23.781c10.116-31.864,23.956-95.952,15.839-193.487h64.89V150.446z"/>
<path style="fill:#957856;" d="M456.571,180.889c-4.772,0.664-21.938,3.526-40.296,12.309c-9.186,4.394-17.119,9.54-23.781,15.412  c0.026-17.86-0.699-37.237-2.439-58.165h64.89C454.944,150.446,455.931,162.178,456.571,180.889z"/>
<g>
	<path style="fill:#C0AB91;" d="M312.997,160.975c0,0,22.78-47.24,89.038-56.746c27.964-4.012,52.909,17.967,52.909,46.217   c0,0-99.327,9.652-116.387,93.547L312.997,160.975z"/>
	<path style="fill:#C0AB91;" d="M373.829,345.333L373.829,345.333c4.269,15.639,26.632-4.446,26.632-4.446   s59.213-46.249,77.157-157.025c1.772-10.943,17.371-11.499,19.914-0.708c11.467,48.672,15.833,124.484-46.212,174.8   c-7.779,6.308-17.489,9.761-27.503,9.761h-32.219C379.734,367.714,371.177,356.64,373.829,345.333z"/>
</g>
<g>
	<path style="fill:#B39A7C;" d="M491.827,176.2c2.666,1.142,4.878,3.443,5.705,6.954c11.467,48.672,15.833,124.484-46.212,174.8   c-7.779,6.308-17.489,9.761-27.503,9.761h-19.003C479.832,320.054,493.346,236.579,491.827,176.2z"/>
	<path style="fill:#B39A7C;" d="M368.019,113.498c14.41,15.116,25.781,33.177,33.141,53.235   c-26.392,13.091-54.282,36.343-62.603,77.261l-25.56-83.019C312.997,160.975,327.75,130.401,368.019,113.498z"/>
</g>
<path style="fill:#A78966;" d="M57.113,150.446c0,0-9.213,109.471,10.424,193.052c3.335,14.195,16.017,24.215,30.598,24.215h22.317  c12.354,0,21.129-12.006,17.391-23.781c-10.116-31.864-23.956-95.952-15.839-193.487h-64.89V150.446z"/>
<path style="fill:#957856;" d="M55.487,180.889c4.772,0.664,21.938,3.526,40.296,12.309c9.186,4.394,17.119,9.54,23.781,15.412  c-0.026-17.86,0.699-37.237,2.439-58.165h-64.89C57.113,150.446,56.127,162.178,55.487,180.889z"/>
<g>
	<path style="fill:#C0AB91;" d="M199.06,160.975c0,0-22.78-47.24-89.038-56.746c-27.964-4.012-52.909,17.967-52.909,46.217   c0,0,99.327,9.652,116.387,93.547L199.06,160.975z"/>
	<path style="fill:#C0AB91;" d="M138.229,345.333L138.229,345.333c-4.269,15.639-26.632-4.446-26.632-4.446   s-59.213-46.249-77.157-157.025c-1.772-10.943-17.371-11.499-19.914-0.708C3.058,231.825-1.307,307.638,60.737,357.953   c7.779,6.308,17.489,9.761,27.503,9.761h32.219C132.324,367.714,140.88,356.64,138.229,345.333z"/>
</g>
<g>
	<path style="fill:#B39A7C;" d="M20.231,176.2c-2.666,1.142-4.878,3.443-5.705,6.954C3.058,231.825-1.307,307.638,60.737,357.953   c7.779,6.308,17.489,9.761,27.503,9.761h19.003C32.225,320.054,18.712,236.579,20.231,176.2z"/>
	<path style="fill:#B39A7C;" d="M144.039,113.498c-14.41,15.116-25.781,33.177-33.141,53.235   c26.392,13.091,54.282,36.343,62.603,77.261l25.56-83.019C199.06,160.975,184.308,130.401,144.039,113.498z"/>
</g>
<path style="fill:#FFB655;" d="M160.686,175.63c0,0-35.973-7.001-76.112,21.501c-8.699,6.178-10.278,18.459-3.422,26.634  c10.556,12.588,29.975,28.76,61.395,32.333C141.676,255.483,160.686,175.63,160.686,175.63z"/>
<path style="fill:#CC7400;" d="M148.097,229.491c-35.125-13.435-70.649-14.003-70.885-14.006c0.565,2.947,1.855,5.804,3.934,8.281  c10.556,12.588,29.975,28.76,61.395,32.333C142.208,255.862,144.787,244.019,148.097,229.491z"/>
<path style="fill:#FFB655;" d="M351.372,175.63c0,0,35.973-7.001,76.112,21.501c8.699,6.178,10.278,18.459,3.422,26.634  c-10.556,12.588-29.975,28.76-61.395,32.333C370.381,255.483,351.372,175.63,351.372,175.63z"/>
<path style="fill:#CC7400;" d="M363.96,229.491c35.125-13.435,70.649-14.003,70.885-14.006c-0.565,2.947-1.855,5.804-3.934,8.281  c-10.556,12.588-29.975,28.76-61.395,32.333C369.85,255.862,367.271,244.019,363.96,229.491z"/>
<circle style="fill:#FFC477;" cx="256.03" cy="367.714" r="48.265"/>
<path style="fill:#FFB655;" d="M239.146,367.714c0-21.161,13.624-39.128,32.574-45.642c-4.922-1.691-10.196-2.623-15.691-2.623  c-26.656,0-48.265,21.609-48.265,48.265s21.609,48.265,48.265,48.265c5.495,0,10.77-0.931,15.691-2.623  C252.77,406.842,239.146,388.875,239.146,367.714z"/>
<path style="fill:#FFDAAA;" d="M380.221,220.207c0-68.587-55.601-124.187-124.187-124.187c-66.586,0-120.929,52.406-124.041,118.222  c0,0-6.718,90.07,67.986,161.12c15.693,14.926,40.459,14.323,55.504-1.123c15.045,15.447,40.157,16.404,55.504,1.123  C380.221,306.434,380.221,230.018,380.221,220.207z"/>
<g>
	<path style="fill:#FFC477;" d="M233.535,259.764c0-53.444-38.509-96.975-86.667-98.787c-8.68,15.965-13.967,34.042-14.876,53.267   c0,0-5.31,71.233,46.056,136.975C210.623,336.38,233.535,300.979,233.535,259.764z"/>
	<path style="fill:#FFC477;" d="M332.849,350.592c47.363-61.381,47.373-121.736,47.373-130.38c0-21.446-5.437-41.623-15.007-59.227   c-48.172,1.795-86.692,45.328-86.692,98.783C278.522,300.468,300.921,335.436,332.849,350.592z"/>
	<path style="fill:#FFC477;" d="M191.731,151.45c-2.611-3.29-2.06-8.073,1.229-10.684c11.761-9.335,25.7-16.034,40.306-19.375   c4.095-0.934,8.172,1.624,9.108,5.718c0.936,4.094-1.624,8.172-5.718,9.108c-12.407,2.837-23.74,9.214-34.241,16.461   C198.236,155.562,193.232,153.342,191.731,151.45z"/>
	<path style="fill:#FFC477;" d="M265.815,134.593c-2.787,0-5.592-0.496-8.386-0.54c-4.2-0.067-7.549-3.525-7.482-7.725   c0.067-4.199,3.51-7.52,7.725-7.482c3.284,0.053,6.601,0.266,9.857,0.635c4.173,0.472,7.172,4.239,6.699,8.412   C273.789,131.776,271.914,134.594,265.815,134.593z"/>
</g>
<g>
	<circle style="fill:#3E3D42;" cx="175.891" cy="247.322" r="15.727"/>
	<circle style="fill:#3E3D42;" cx="335.49" cy="247.322" r="15.727"/>
	<path style="fill:#3E3D42;" d="M282.434,326.408c0,14.583-11.822,32.274-26.405,32.274c-14.583,0-26.405-17.69-26.405-32.274   c0-14.583,11.822-14.67,26.405-14.67C270.612,311.738,282.434,311.824,282.434,326.408z"/>
</g>
<path d="M504.934,181.41c-1.965-8.341-9.31-13.955-17.914-13.652c-8.584,0.304-15.537,6.426-16.908,14.888  c-1.522,9.397-3.358,18.293-5.421,26.716c-0.106-33.1-1.973-57.125-2.155-59.38c-0.133-15.614-6.948-30.409-18.764-40.651  c-11.81-10.236-27.414-14.839-42.816-12.63c-22.559,3.236-42.66,10.953-59.848,22.938c-22.974-19.464-52.673-31.223-85.073-31.223  c-32.444,0-62.198,11.682-85.197,31.145c-17.162-11.94-37.225-19.63-59.734-22.86c-15.399-2.21-31.007,2.394-42.816,12.63  c-11.816,10.241-18.632,25.036-18.764,40.651c-0.181,2.255-2.049,26.28-2.155,59.384c-2.063-8.427-3.899-17.324-5.421-26.721  c-1.371-8.462-8.323-14.584-16.908-14.888c-8.597-0.305-15.949,5.311-17.914,13.652C-0.466,213.634-2,243.84,2.565,271.19  c6.328,37.897,24.289,69.075,53.383,92.67c9.111,7.389,20.579,11.459,32.293,11.459h32.219c7.941,0,15.321-3.565,20.248-9.78  c4.939-6.231,6.734-14.229,4.926-21.943c-0.159-0.679-11.273-31.858-15.144-74.035c0.032,0.134,16.376,65.648,64.249,111.312  c8.755,8.352,20.267,12.93,32.38,12.93c10.4,0,20.251-3.319,28.376-9.461c8.205,6.16,18.317,9.598,28.649,9.598l0,0  c1.023,0,2.038-0.045,3.049-0.111c-7.58,9.026-18.905,14.543-31.164,14.543c-8.65,0-16.906-2.678-23.877-7.745  c-3.399-2.469-8.154-1.717-10.623,1.68c-2.469,3.398-1.717,8.153,1.68,10.623c9.586,6.968,20.935,10.651,32.819,10.651  c23.425,0,44.37-14.66,52.433-36.571c2.827-1.773,5.477-3.858,7.89-6.26c40.131-39.954,57.862-82.659,65.61-114.804  c-3.251,45.79-15.377,76.969-15.536,77.648c-1.809,7.713-0.013,15.71,4.926,21.942c4.927,6.215,12.307,9.78,20.248,9.78h32.219  c11.714,0,23.182-4.07,32.293-11.458c5.837-4.733,11.302-9.847,16.245-15.202c2.849-3.085,2.656-7.897-0.429-10.745  s-7.897-2.655-10.745,0.429c-4.449,4.819-9.378,9.429-14.649,13.705c-6.411,5.199-14.478,8.063-22.714,8.063h-32.219  c-2.19,0-4.275-0.657-6.021-1.858c8.495-2.084,16.684-8.786,19.782-11.544c4.652-3.715,61.918-51.456,79.765-161.629  c0.22-1.358,1.038-2.071,2.433-2.121c1.385-0.05,2.258,0.603,2.572,1.942c6.308,26.767,11.347,66.547-0.461,104.049  c-1.261,4.006,0.964,8.276,4.969,9.537c4.006,1.259,8.275-0.964,9.537-4.969C517.021,252.717,511.678,210.033,504.934,181.41z   M403.114,111.756c11.031-1.582,22.221,1.722,30.695,9.068c6.937,6.013,11.488,14.204,12.987,23.116  c-12.783,2.213-39.928,8.572-65.126,25.218c-1.549-0.292-3.036-0.539-4.458-0.748c-6.057-14.116-14.511-26.964-24.847-38.039  C367.028,120.744,384.061,114.49,403.114,111.756z M385.977,244.9c0.788-5.627,1.253-10.621,1.521-14.863  c12.538-3.197,24.129-4.93,32.721-5.863C412.567,231.849,401.414,240.054,385.977,244.9z M387.688,214.326  c-0.446-10.116-2.038-19.937-4.649-29.34c11.19,2.605,25.284,7.866,40.042,18.346c1.773,1.259,3.072,2.971,3.807,4.947  C418.476,208.889,404.113,210.435,387.688,214.326z M352.443,154.729c-20.652,3.68-39.615,14.506-54.347,31.251  c-17.525,19.919-27.177,46.124-27.177,73.787c0,17.458,3.907,34.22,10.979,49.088c-1.471-1.021-3-1.782-4.458-2.345  c-6.156-2.377-13.565-2.377-21.41-2.377s-15.253,0-21.41,2.377c-1.416,0.547-2.899,1.28-4.33,2.257  c6.997-14.817,10.851-31.536,10.851-49.002c0-27.657-9.648-53.859-27.169-73.778c-14.76-16.781-33.769-27.622-54.469-31.285  c20.993-30.925,56.446-51.076,96.532-51.076C296.063,103.625,331.442,123.906,352.443,154.729z M256.029,351.076  c-2.856,0-5.662-1.216-8.199-3.197c0.115-0.239,1.736-3.267,0.026-6.546l-5.345-11.299c-1.816-3.926-4.954-4.106-5.278-4.175  c0.066-5.149,1.347-6.517,18.798-6.517c17.472,0,18.735,1.372,18.798,6.536c-0.294,0.066-3.108-0.275-5.189,4.158l-5.345,11.299  c-1.8,3.786-0.105,6.273,0,6.496C261.737,349.84,258.909,351.076,256.029,351.076z M78.248,120.824  c8.475-7.346,19.664-10.651,30.695-9.068c19.003,2.726,35.994,8.957,50.629,18.539c-10.33,11.076-18.77,23.948-24.809,38.128  c-1.401,0.207-2.861,0.451-4.377,0.737c-25.2-16.647-52.344-23.008-65.126-25.22C66.761,135.028,71.31,126.838,78.248,120.824z   M91.838,224.173c8.583,0.934,20.16,2.664,32.684,5.854c0.243,4.26,0.67,9.243,1.388,14.821  C110.556,239.993,99.457,231.816,91.838,224.173z M124.369,214.326c-16.426-3.891-30.787-5.44-39.199-6.05  c0.735-1.975,2.034-3.687,3.806-4.945c14.699-10.437,28.738-15.707,40.002-18.331C126.444,194.218,124.382,214.089,124.369,214.326z   M120.459,360.109H88.24c-8.236,0-16.303-2.863-22.714-8.063C7.944,305.348,10.034,235.375,21.928,184.898  c0.315-1.337,1.185-1.991,2.572-1.941c1.394,0.05,2.213,0.762,2.433,2.121c9.501,58.657,30.577,99.373,46.585,123.202  c2.342,3.486,7.067,4.415,10.553,2.071c3.486-2.342,4.415-7.067,2.071-10.553c-6.924-10.307-14.851-23.98-22.286-41.11  c-2.526-43.615-0.735-83.031,0.273-99.483c9.851,1.826,27.772,6.171,45.997,15.672c-9.323,3.521-19.514,8.637-29.956,16.052  c-5.873,4.17-9.767,10.658-10.685,17.801c-0.918,7.141,1.211,14.403,5.838,19.92c7.793,9.292,20.285,20.666,38.624,28.062  c3.314,39.486,10.207,68.522,15.778,86.731c-3.155-0.945-8.828-4.443-13.049-8.215c-0.122-0.108-0.259-0.224-0.387-0.325  c-0.07-0.056-7.17-5.698-16.958-17.445c-2.689-3.227-7.485-3.663-10.71-0.974c-3.227,2.688-3.663,7.484-0.974,10.71  c10.051,12.062,17.618,18.359,19.038,19.503c3.09,2.753,11.289,9.469,19.794,11.555  C124.734,359.452,122.649,360.109,120.459,360.109z M139.576,214.808l0.013-0.207c0.775-16.381,4.893-31.825,11.673-45.693  c42.233,4.198,74.669,43.144,74.669,90.855c0,35.006-17.714,66.429-45.602,81.798c-19.827-27.066-29.815-54.313-34.83-74.634  C138.097,236.936,139.56,215.016,139.576,214.808z M205.219,369.853c-5.592-5.318-10.693-10.748-15.361-16.23  c12.952-7.593,23.933-18.13,32.371-30.674c-0.126,1.092-0.211,2.231-0.211,3.458c0,15.724,10.804,33.614,25.86,38.549v5.993  c-5.778,4.948-13.044,7.646-20.761,7.646C218.924,378.596,211.146,375.491,205.219,369.853z M305.622,369.975  c-5.673,5.647-13.3,8.758-21.478,8.758c-7.702,0-15.222-2.813-21.057-7.789v-5.645c15.624-4.404,26.952-22.788,26.952-38.89  c0-1.304-0.091-2.512-0.233-3.663c8.231,12.259,18.881,22.623,31.412,30.195C316.467,358.644,311.285,364.336,305.622,369.975z   M330.642,340.86c-27.23-15.612-44.516-46.751-44.516-81.092c0-47.684,32.392-86.603,74.587-90.84  c7.616,15.484,11.903,32.89,11.903,51.28C372.617,236.666,369.169,288.01,330.642,340.86z M395.78,334.893  c-0.132,0.103-0.268,0.217-0.393,0.328c-4.228,3.778-9.902,7.276-13.057,8.222c5.579-18.232,12.466-47.26,15.78-86.731  c18.328-7.391,30.82-18.758,38.622-28.062c4.627-5.518,6.756-12.779,5.838-19.92c-0.918-7.142-4.812-13.63-10.685-17.801  c-10.451-7.422-20.649-12.535-29.95-16.049c18.186-9.466,36.131-13.825,45.992-15.664c1.01,16.448,2.798,55.824,0.272,99.465  c-7.278,16.772-15.012,30.197-21.776,40.353C410.202,323.392,395.909,334.791,395.78,334.893z"/>
<path d="M491.875,305.369c-3.755-1.883-8.324-0.365-10.206,3.389c-2.078,4.146-4.402,8.213-6.906,12.088  c-2.279,3.527-1.267,8.235,2.26,10.514c1.276,0.824,6.628,2.987,10.514-2.26c3.073-4.149,5.402-8.888,7.728-13.526  C497.147,311.821,495.629,307.251,491.875,305.369z"/>
<g>
</g>
<g>
</g>
<g>
</g>
<g>
</g>
<g>
</g>
<g>
</g>
<g>
</g>
<g>
</g>
<g>
</g>
<g>
</g>
<g>
</g>
<g>
</g>
<g>
</g>
<g>
</g>
<g>
</g>
</svg>
