<?xml version="1.0" encoding="iso-8859-1"?>
<!-- Generator: Adobe Illustrator 19.0.0, SVG Export Plug-In . SVG Version: 6.00 Build 0)  -->
<svg xmlns="http://www.w3.org/2000/svg" xmlns:xlink="http://www.w3.org/1999/xlink" version="1.1" id="Layer_1" x="0px" y="0px" viewBox="0 0 512 512" style="enable-background:new 0 0 512 512;" xml:space="preserve">
<path style="fill:#FF6243;" d="M499.519,281.933l-46.675-46.675c-6.502-6.502-17.141-6.502-23.643,0l0,0  c-6.502,6.502-6.502,17.141,0,23.643l46.675,46.675c6.502,6.502,17.141,6.502,23.643,0l0,0  C506.021,299.074,506.021,288.434,499.519,281.933z"/>
<path style="fill:#FF3501;" d="M339.065,263.545h101.516c9.195,0,16.718-7.523,16.718-16.718l0,0  c0-9.195-7.523-16.718-16.718-16.718H339.065c-9.195,0-16.718,7.523-16.718,16.718l0,0  C322.347,256.021,329.87,263.545,339.065,263.545z"/>
<path style="fill:#FF6243;" d="M475.791,341.962L432.4,292.219c-6.045-6.929-16.659-7.653-23.589-1.609l0,0  c-6.929,6.045-7.653,16.659-1.609,23.589l43.391,49.743c6.045,6.929,16.659,7.653,23.587,1.609l0,0  C481.112,359.505,481.836,348.891,475.791,341.962z"/>
<path style="fill:#FF3501;" d="M316.959,312.699l101.281,6.907c9.173,0.626,17.191-6.368,17.817-15.541l0,0  c0.626-9.173-6.368-17.191-15.542-17.817l-101.281-6.907c-9.173-0.626-17.191,6.368-17.817,15.542l0,0  C300.791,304.056,307.786,312.074,316.959,312.699z"/>
<path style="fill:#FF6243;" d="M439.273,398.099l-39.045-53.223c-5.439-7.413-15.955-9.029-23.368-3.591l0,0  c-7.413,5.439-9.029,15.955-3.591,23.369l39.045,53.223c5.439,7.413,15.955,9.029,23.368,3.591l0,0  C443.096,416.028,444.712,405.512,439.273,398.099z"/>
<path style="fill:#FF3501;" d="M283.473,355.554l100.339,15.418c9.088,1.396,17.667-4.897,19.063-13.985l0,0  c1.396-9.088-4.897-17.667-13.985-19.063L288.55,322.506c-9.088-1.396-17.667,4.897-19.064,13.985l0,0  C268.091,345.579,274.384,354.157,283.473,355.554z"/>
<path style="fill:#FF6243;" d="M394.245,449.778l-35.802-55.456c-4.987-7.725-15.388-9.964-23.113-4.977l0,0  c-7.725,4.987-9.964,15.388-4.977,23.113l35.802,55.456c4.987,7.725,15.388,9.965,23.113,4.977l0,0  C396.993,467.904,399.232,457.503,394.245,449.778z"/>
<path style="fill:#FF3501;" d="M241.258,398.022l99.241,21.372c8.989,1.935,17.927-3.834,19.863-12.823l0,0  c1.935-8.989-3.834-17.927-12.823-19.863l-99.241-21.372c-8.989-1.935-17.927,3.834-19.863,12.823l0,0  C226.499,387.147,232.27,396.085,241.258,398.022z"/>
<g>
	<path style="fill:#CD2A00;" d="M248.298,365.335l99.241,21.372c1.286,0.277,2.496,0.712,3.637,1.254   c-12.066,10.627-25.16,19.136-38.948,25.344l-70.968-15.283c-8.989-1.935-14.76-10.874-12.823-19.863   C230.371,369.169,239.309,363.399,248.298,365.335z"/>
	<path style="fill:#CD2A00;" d="M269.487,336.49c1.396-9.088,9.975-15.381,19.063-13.985l100.339,15.418   c0.611,0.094,1.206,0.226,1.79,0.382c-5.888,10.784-12.867,21.04-20.838,30.519l-86.37-13.271   C274.384,354.157,268.09,345.579,269.487,336.49L269.487,336.49z"/>
	<path style="fill:#CD2A00;" d="M319.235,279.34l90.569,6.176c-2.163,11.143-5.432,22.163-9.721,32.851l-83.123-5.67   c-9.173-0.626-16.167-8.643-15.541-17.817C302.044,285.708,310.06,278.715,319.235,279.34z"/>
	<path style="fill:#CD2A00;" d="M339.065,230.109h71.915c1.283,7.428,1.934,15.294,1.934,23.606c0,3.272-0.113,6.551-0.313,9.83   h-73.536c-9.195,0-16.718-7.523-16.718-16.719C322.347,237.632,329.87,230.109,339.065,230.109z"/>
</g>
<path style="fill:#FF6243;" d="M12.481,281.933l46.675-46.675c6.502-6.502,17.141-6.502,23.643,0l0,0  c6.502,6.502,6.502,17.141,0,23.643l-46.675,46.675c-6.502,6.502-17.141,6.502-23.643,0l0,0  C5.979,299.074,5.979,288.434,12.481,281.933z"/>
<path style="fill:#FF3501;" d="M172.935,263.545H71.418c-9.195,0-16.718-7.523-16.718-16.718l0,0  c0-9.195,7.523-16.718,16.718-16.718h101.516c9.195,0,16.718,7.523,16.718,16.718l0,0  C189.653,256.021,182.13,263.545,172.935,263.545z"/>
<path style="fill:#FF6243;" d="M36.209,341.962L79.6,292.219c6.045-6.929,16.659-7.653,23.587-1.609l0,0  c6.929,6.045,7.653,16.659,1.609,23.589l-43.391,49.743c-6.045,6.929-16.659,7.653-23.587,1.609l0,0  C30.888,359.505,30.164,348.891,36.209,341.962z"/>
<path style="fill:#FF3501;" d="M195.041,312.699L93.76,319.607c-9.173,0.626-17.191-6.368-17.817-15.541l0,0  c-0.626-9.173,6.368-17.191,15.541-17.817l101.281-6.907c9.173-0.626,17.191,6.368,17.817,15.542l0,0  C211.209,304.056,204.214,312.074,195.041,312.699z"/>
<path style="fill:#FF6243;" d="M72.727,398.099l39.045-53.223c5.438-7.413,15.955-9.029,23.368-3.591l0,0  c7.413,5.439,9.029,15.955,3.591,23.369l-39.045,53.223c-5.438,7.413-15.955,9.029-23.368,3.591l0,0  C68.904,416.028,67.288,405.512,72.727,398.099z"/>
<path style="fill:#FF3501;" d="M228.527,355.554L128.19,370.972c-9.088,1.396-17.667-4.897-19.064-13.985l0,0  c-1.396-9.088,4.897-17.667,13.985-19.063l100.339-15.418c9.088-1.396,17.667,4.897,19.064,13.985l0,0  C243.909,345.579,237.616,354.157,228.527,355.554z"/>
<path style="fill:#FF6243;" d="M117.755,449.778l35.802-55.456c4.987-7.725,15.388-9.964,23.113-4.977l0,0  c7.725,4.987,9.965,15.388,4.977,23.113l-35.802,55.456c-4.987,7.725-15.388,9.965-23.113,4.977l0,0  C115.007,467.904,112.768,457.503,117.755,449.778z"/>
<path style="fill:#FF3501;" d="M270.742,398.022l-99.241,21.372c-8.989,1.935-17.927-3.834-19.863-12.823l0,0  c-1.935-8.989,3.834-17.927,12.823-19.863l99.241-21.372c8.989-1.935,17.927,3.834,19.863,12.823l0,0  C285.501,387.147,279.73,396.085,270.742,398.022z"/>
<g>
	<path style="fill:#CD2A00;" d="M263.702,365.335l-99.241,21.372c-1.286,0.277-2.496,0.712-3.637,1.254   c12.066,10.627,25.16,19.136,38.949,25.344l70.968-15.284c8.989-1.935,14.76-10.874,12.823-19.863   C281.629,369.169,272.691,363.399,263.702,365.335z"/>
	<path style="fill:#CD2A00;" d="M242.513,336.49c-1.396-9.088-9.975-15.381-19.063-13.985l-100.339,15.418   c-0.611,0.094-1.206,0.226-1.79,0.382c5.887,10.784,12.867,21.04,20.838,30.519l86.37-13.271   C237.616,354.157,243.91,345.579,242.513,336.49L242.513,336.49z"/>
	<path style="fill:#CD2A00;" d="M192.765,279.34l-90.569,6.176c2.163,11.143,5.432,22.163,9.721,32.851l83.123-5.67   c9.173-0.626,16.167-8.643,15.541-17.817C209.956,285.708,201.94,278.715,192.765,279.34z"/>
	<path style="fill:#CD2A00;" d="M172.935,230.109H101.02c-1.283,7.428-1.934,15.294-1.934,23.606c0,3.272,0.113,6.551,0.313,9.83   h73.536c9.195,0,16.718-7.523,16.718-16.719C189.653,237.632,182.13,230.109,172.935,230.109z"/>
</g>
<path style="fill:#FF3501;" d="M287.858,61.795c0,0-21.829,22.706,45.81,69.787c-0.228,0.327,23.211-33.346,23.211-33.346  L287.858,61.795z"/>
<path style="fill:#CD2A00;" d="M310.958,98.696l12.575-18.065l33.345,17.606c0,0-23.438,33.673-23.211,33.346  c-11.927-8.301-21.062-15.843-28.035-22.637C306.956,105.338,308.737,101.888,310.958,98.696z"/>
<path style="fill:#FF5023;" d="M372.171,76.265c0,0-46.15-41.782-89.556-39.014c-9.074,0.579-12.384,12.226-4.921,17.418  c26.199,18.225,73.744,51.384,73.744,51.384L372.171,76.265z"/>
<g>
	<path style="fill:#FF3501;" d="M334.062,65.504c2.648-3.805,5.828-7.13,9.401-9.906c17.075,10.138,28.708,20.668,28.708,20.668   l-20.733,29.787c0,0-13.841-9.653-30.701-21.404L334.062,65.504z"/>
	<path style="fill:#FF3501;" d="M293.847,250.418L293.847,250.418c10.641,11.808,29.01,12.765,40.818,2.123l92.324-83.193   c11.808-10.641,12.764-29.009,2.123-40.818l0,0c-10.641-11.808-29.009-12.765-40.818-2.123L295.97,209.6   C284.162,220.24,283.206,238.608,293.847,250.418z"/>
</g>
<path style="fill:#FF6243;" d="M350.705,77.088c8.2-11.781,24.587-14.321,35.952-5.554c29.816,22.999,71.895,62.13,51.672,91.184  c-20.222,29.053-71.531,3.18-103.452-16.793c-12.167-7.613-15.476-23.862-7.275-35.643L350.705,77.088z"/>
<g>
	<path style="fill:#FF3501;" d="M218.153,250.418L218.153,250.418c-10.641,11.808-29.01,12.765-40.818,2.123L85.01,169.347   c-11.808-10.641-12.765-29.009-2.123-40.818l0,0c10.641-11.808,29.009-12.765,40.818-2.123L216.03,209.6   C227.838,220.24,228.794,238.608,218.153,250.418z"/>
	<path style="fill:#FF3501;" d="M224.142,61.795c0,0,21.829,22.706-45.81,69.787c0.228,0.327-23.211-33.346-23.211-33.346   L224.142,61.795z"/>
</g>
<path style="fill:#FF5023;" d="M139.829,76.265c0,0,46.15-41.782,89.557-39.014c9.074,0.579,12.384,12.226,4.921,17.418  c-26.199,18.225-73.744,51.384-73.744,51.384L139.829,76.265z"/>
<path style="fill:#CD2A00;" d="M201.042,98.696l-12.575-18.065l-33.345,17.606c0,0,23.438,33.673,23.211,33.346  c11.927-8.301,21.062-15.843,28.035-22.637C205.044,105.338,203.263,101.888,201.042,98.696z"/>
<path style="fill:#FF3501;" d="M177.938,65.504c-2.648-3.805-5.828-7.13-9.401-9.906c-17.075,10.138-28.708,20.668-28.708,20.668  l20.733,29.787c0,0,13.841-9.653,30.701-21.404L177.938,65.504z"/>
<path style="fill:#FF6243;" d="M161.295,77.088c-8.2-11.781-24.587-14.321-35.952-5.554c-29.816,22.999-71.895,62.13-51.672,91.184  s71.531,3.18,103.452-16.793c12.167-7.613,15.476-23.862,7.275-35.643L161.295,77.088z"/>
<g>
	<path style="fill:#FF5023;" d="M167.498,86l-6.203-8.912c-8.2-11.781-24.587-14.321-35.952-5.555   c-29.816,22.999-71.895,62.13-51.672,91.184c4.757,6.833,11.234,10.627,18.774,12.174C98.91,143.55,166.733,86.495,167.498,86z"/>
	<path style="fill:#FF5023;" d="M344.502,86l6.203-8.912c8.2-11.781,24.587-14.321,35.952-5.555   c29.816,22.999,71.895,62.13,51.672,91.184c-4.757,6.833-11.234,10.627-18.774,12.174C413.09,143.55,345.267,86.495,344.502,86z"/>
</g>
<path style="fill:#FF6243;" d="M392.637,253.715c0,75.463-61.174,151.543-136.637,151.543s-136.637-76.08-136.637-151.543  S180.537,160.801,256,160.801S392.637,178.252,392.637,253.715z"/>
<g>
	<path style="fill:#FF5023;" d="M325.21,343.016c-3.186-2.736-3.55-7.537-0.813-10.723c2.046-2.382,4.032-4.877,5.905-7.417   c2.492-3.38,7.252-4.101,10.632-1.61c3.38,2.491,4.102,7.251,1.61,10.632c-2.096,2.844-4.116,5.828-6.611,8.306   C331.363,346.739,326.645,344.247,325.21,343.016z"/>
	<path style="fill:#FF5023;" d="M260.645,375.058c-0.281-4.19,2.246-8.024,6.4-8.642c14.844-2.214,29.589-9.022,42.639-19.69   c3.252-2.658,8.043-2.176,10.699,1.075c2.658,3.251,2.177,8.042-1.075,10.699c-15.171,12.402-32.468,20.34-50.02,22.958   C268.906,381.513,261.113,382.052,260.645,375.058z"/>
	<path style="fill:#FF5023;" d="M178.171,247.152c0-40.18,14.176-66.918,37.793-84.309c-55.927,6.381-96.602,29.34-96.602,90.871   c0,75.463,61.174,151.543,136.637,151.543c1.712,0,3.416-0.053,5.113-0.13C211.503,370.713,178.171,308.769,178.171,247.152z"/>
</g>
<g>
	<path style="fill:#FF3501;" d="M195.976,183.049l20.488,20.613c4.928,4.959,13.374,2.76,15.259-3.972l7.485-26.735L195.976,183.049   z"/>
	<path style="fill:#FF3501;" d="M312.922,183.049l-20.488,20.613c-4.928,4.959-13.374,2.76-15.259-3.972l-7.485-26.735   L312.922,183.049z"/>
</g>
<g>
	<path style="fill:#FF5023;" d="M327.694,306.439c-1.997,0-3.954-0.811-5.373-2.23c-1.419-1.409-2.23-3.376-2.23-5.373   c0-1.997,0.811-3.964,2.23-5.373c1.419-1.419,3.376-2.23,5.373-2.23c2.007,0,3.964,0.811,5.384,2.23   c1.409,1.409,2.22,3.376,2.22,5.373c0,1.997-0.811,3.964-2.22,5.373C331.658,305.628,329.702,306.439,327.694,306.439z"/>
	<path style="fill:#FF5023;" d="M312.922,230.109c-1.997,0-3.954-0.811-5.373-2.23c-1.419-1.409-2.23-3.376-2.23-5.373   c0-1.997,0.811-3.964,2.23-5.373c1.419-1.419,3.376-2.23,5.373-2.23c2.007,0,3.964,0.811,5.384,2.23   c1.409,1.409,2.22,3.376,2.22,5.373c0,1.997-0.811,3.964-2.22,5.373C316.886,229.298,314.93,230.109,312.922,230.109z"/>
	<path style="fill:#FF5023;" d="M256,252.455c-1.997,0-3.954-0.811-5.373-2.23c-1.419-1.409-2.23-3.376-2.23-5.373   c0-1.997,0.811-3.964,2.23-5.373c1.419-1.419,3.376-2.23,5.373-2.23c2.007,0,3.964,0.811,5.384,2.23   c1.409,1.409,2.22,3.376,2.22,5.373c0,1.997-0.811,3.964-2.22,5.373C259.964,251.643,258.007,252.455,256,252.455z"/>
	<path style="fill:#FF5023;" d="M278.846,335.683c-1.997,0-3.954-0.811-5.373-2.23c-1.419-1.409-2.23-3.376-2.23-5.373   s0.811-3.964,2.23-5.373c1.419-1.419,3.376-2.23,5.373-2.23c2.007,0,3.964,0.811,5.384,2.23c1.409,1.409,2.22,3.376,2.22,5.373   s-0.811,3.964-2.22,5.373C282.811,334.872,280.854,335.683,278.846,335.683z"/>
	<circle style="fill:#FF5023;" cx="280.16" cy="275.03" r="11.483"/>
	<circle style="fill:#FF5023;" cx="238.42" cy="302.851" r="11.483"/>
	<circle style="fill:#FF5023;" cx="207.031" cy="256.335" r="11.483"/>
	<circle style="fill:#FF5023;" cx="345.392" cy="256.324" r="11.483"/>
</g>
<circle style="fill:#D1E7F8;" cx="214.634" cy="165.351" r="25.722"/>
<path style="fill:#3E3D42;" d="M214.63,172.955c-1.997,0-3.954-0.811-5.373-2.23c-1.419-1.409-2.23-3.376-2.23-5.373  c0-1.997,0.811-3.964,2.23-5.373c1.419-1.419,3.376-2.23,5.373-2.23c2.007,0,3.964,0.811,5.384,2.23  c1.409,1.409,2.22,3.376,2.22,5.373c0,1.997-0.811,3.964-2.22,5.373C218.595,172.143,216.638,172.955,214.63,172.955z"/>
<circle style="fill:#D1E7F8;" cx="294.395" cy="165.351" r="25.722"/>
<path style="fill:#3E3D42;" d="M294.398,172.955c-1.997,0-3.954-0.811-5.373-2.23c-1.419-1.409-2.23-3.376-2.23-5.373  c0-1.997,0.811-3.964,2.23-5.373c1.419-1.419,3.376-2.23,5.373-2.23c2.007,0,3.964,0.811,5.384,2.23  c1.409,1.409,2.22,3.376,2.22,5.373c0,1.997-0.811,3.964-2.22,5.373C298.362,172.143,296.405,172.955,294.398,172.955z"/>
<path d="M76.813,120.21c1.355,0.993,6.323,3.307,10.628-1.639c2.148-2.469,4.132-5.378,6.534-8.139  c2.757-3.168,2.422-7.971-0.747-10.728c-3.168-2.758-7.972-2.422-10.728,0.747c-2.679,3.079-5.144,6.151-7.327,9.131  C72.692,112.969,73.425,117.729,76.813,120.21z"/>
<path d="M504.897,276.556l-46.713-46.487c-4.434-4.655-10.683-7.564-17.603-7.564h-44.339c-1.126-4.016-2.496-7.856-4.097-11.525  l31.516-28.399c0.389-0.351,0.734-0.733,1.033-1.139c8.241-2.439,14.903-7.238,19.876-14.382  c7.54-10.833,12.422-29.454-7.141-56.646c-9.996-13.894-25.516-29-46.129-44.902c-5.774-4.454-12.671-6.808-19.946-6.808  c-10.72,0-20.772,5.249-26.892,14.04l-8.986,12.91c-16.099-11.222-38.322-26.709-53.443-37.228c-0.755-0.526-1.014-1.238-0.77-2.116  c0.256-0.916,0.872-1.41,1.833-1.471c20.414-1.303,41.983,8.688,56.484,17.296c3.612,2.145,8.277,0.954,10.421-2.657  s0.954-8.276-2.657-10.42c-23.775-14.114-45.721-20.642-65.216-19.396c-7.428,0.473-13.517,5.404-15.513,12.562  c-1.987,7.124,0.655,14.459,6.734,18.687c1.522,1.058,3.119,2.17,4.771,3.319c-0.876,2.757-1.452,6.231-1.145,10.414  c1.167,15.918,14.174,33.764,38.655,53.06c-0.321,4.431,1.842,8.438,2.892,10.714c-5.504-4.017-12.277-6.395-19.598-6.395  c-14.145,0-26.253,8.863-31.081,21.325c-3.82-0.099-7.794-0.153-11.844-0.153c-4.039,0-8.001,0.053-11.844,0.153  c-4.828-12.461-16.936-21.326-31.082-21.326c-7.321,0-14.093,2.379-19.598,6.395c1.049-2.276,3.213-6.834,2.892-10.714  c24.481-19.297,37.488-37.143,38.654-53.06c0.306-4.183-0.269-7.659-1.145-10.414c1.653-1.15,3.249-2.261,4.771-3.319  c6.078-4.228,8.721-11.563,6.734-18.687c-1.997-7.158-8.087-12.088-15.513-12.562c-31.352-1.992-63.267,16.919-81.335,30.008  c-0.948-0.232-13.691-4.757-27.836,5.842c-8.164,6.118-15.464,12.418-21.956,18.388c-3.091,2.843-3.292,7.654-0.449,10.744  c2.844,3.091,7.654,3.293,10.744,0.449c6.17-5.676,13.219-11.576,20.95-17.54c3.826-2.952,8.565-4.17,13.345-3.436  c4.789,0.738,8.952,3.336,11.721,7.314l23.104,33.193c2.769,3.978,3.759,8.784,2.788,13.531c-0.969,4.738-3.759,8.759-7.856,11.322  c-19.601,12.265-49.857,28.626-71.743,28.624c-9.002,0-16.591-2.769-21.436-9.73c-4.368-6.275-5.085-13.506-2.191-22.107  c1.338-3.98-0.803-8.292-4.783-9.632c-3.978-1.338-8.292,0.803-9.632,4.783c-4.472,13.296-3.084,25.288,4.123,35.643  c3.893,5.593,9.987,11.237,19.407,14.168l33.007,29.743c-1.601,3.669-2.966,7.516-4.092,11.534H71.418  c-6.926,0-13.18,2.915-17.614,7.577L7.103,276.554C2.522,281.137,0,287.244,0,293.754c0,6.51,2.522,12.617,7.103,17.198  s10.688,7.103,17.198,7.103c6.509,0,12.618-2.523,17.198-7.103l39.803-39.803h31.478c0.23,1.991,0.504,3.981,0.811,5.97  l-22.626,1.543c-6.463,0.441-12.379,3.385-16.659,8.29c-0.1,0.116-0.194,0.235-0.292,0.352c-0.057-0.097-43.538,49.66-43.538,49.66  c-2.761,3.165-2.433,7.968,0.732,10.729c1.441,1.257,6.134,3.438,10.729-0.732l28.932-33.165c2.819,5.624,7.74,9.967,13.663,12.066  l-28.858,33.081c-1.588,1.821-3.807,2.915-6.249,3.082c-2.439,0.169-4.788-0.616-6.609-2.204c-3.164-2.761-7.968-2.433-10.729,0.732  c-2.761,3.165-2.433,7.968,0.732,10.729c4.454,3.885,9.425,5.917,17.641,5.917c6.51,0,12.417-3.376,16.675-8.258l37.003-42.42  l24.482-1.67c0.686,1.411,1.396,2.813,2.121,4.208l-8.786,1.35c-6.403,0.984-12.05,4.416-15.9,9.665  c-0.068,0.093-39.459,53.527-39.459,53.527c-3.831,5.223-5.398,11.643-4.409,18.078c0.989,6.434,4.409,12.088,9.633,15.92  c4.326,3.173,9.361,4.702,14.356,4.702c7.488,0,14.882-3.439,19.643-9.927l33.296-45.388l24.44-3.755  c1.695,1.642,3.414,3.236,5.156,4.782l-5.85,1.26c-10.105,2.102-15.653,10.865-15.692,10.924l-35.802,55.456  c-3.514,5.442-4.694,11.944-3.323,18.308s5.122,11.803,10.564,15.316c3.963,2.559,23.344,8.215,33.626-7.242l30.531-47.291  l58.497-12.598l-0.043-0.2c4.89,0.601,9.821,0.912,14.781,0.912s9.89-0.311,14.781-0.912l-0.043,0.2l58.497,12.598l30.531,47.292  c11.138,15.626,29.663,9.801,33.626,7.242c5.442-3.513,9.195-8.953,10.564-15.316c1.371-6.364,0.191-12.866-3.323-18.308  c0,0-36.121-55.664-36.199-55.785c-3.53-5.469-8.963-9.231-15.295-10.596l-5.85-1.26c1.742-1.546,3.461-3.14,5.156-4.782  l24.44,3.755l33.296,45.388c4.76,6.488,12.153,9.927,19.643,9.927c4.993,0,10.03-1.529,14.356-4.702  c3.386-2.484,4.117-7.243,1.633-10.629c-2.484-3.385-7.242-4.116-10.629-1.633c-1.948,1.43-4.35,2.013-6.773,1.64  c-2.419-0.372-4.538-1.65-5.968-3.597l-25.973-35.405c6.082-1.592,11.343-5.508,14.627-10.878l26.043,35.5  c1.49,2.031,3.798,3.106,6.137,3.106c1.561,0,3.137-0.48,4.492-1.473c3.385-2.484,4.117-7.243,1.633-10.629  c0,0-39.391-53.433-39.46-53.527c-3.851-5.249-9.497-8.682-15.9-9.665l-8.786-1.35c0.725-1.395,1.435-2.796,2.121-4.208l24.482,1.67  l37.003,42.42c4.258,4.882,19.497,14.634,34.316,2.341c10.322-8.562,11.155-24.21,2.341-34.317c0,0-43.73-49.896-43.83-50.012  c-4.28-4.905-10.195-7.85-16.659-8.29l-22.626-1.543c0.307-1.988,0.581-3.978,0.811-5.97h31.478l39.803,39.803  c4.581,4.581,10.688,7.103,17.198,7.103s12.618-2.522,17.198-7.103S512,300.264,512,293.754  C512,287.244,509.478,281.137,504.897,276.556z M378.878,190.137c-7.327-8.221-16.391-14.965-27.362-20.352l3.793-3.418  c17.349,8.906,32.613,14.334,45.635,16.216l-16.396,14.775C382.797,194.842,380.918,192.426,378.878,190.137z M341.189,158.618  l-5.347,4.819c-1.229-0.407-2.473-0.804-3.74-1.186c-0.364-3.927-1.411-7.658-3.023-11.073  C329.653,151.589,337.807,156.649,341.189,158.618z M356.946,81.432c3.277-4.708,8.664-7.52,14.409-7.52  c3.883,0,7.568,1.259,10.657,3.642c25.838,19.931,66.702,56.933,50.077,80.818c-4.567,6.562-11.525,10.008-21.26,9.751  c-25.561-0.672-65.592-24.688-71.918-28.646c-4.097-2.563-6.887-6.585-7.856-11.322c-0.971-4.748,0.019-9.553,2.788-13.531  L356.946,81.432z M292.223,74.338c-0.013-0.107-0.018-0.206-0.029-0.311c11.752,8.185,24.401,17,34.596,24.109  c0,0-7.348,10.817-8.111,12.404C297.462,92.392,292.932,80.256,292.223,74.338z M298.926,147.233  c9.991,0,18.118,8.128,18.118,18.118c0,9.99-8.127,18.118-18.118,18.118s-18.118-8.127-18.118-18.118  C280.808,155.36,288.935,147.233,298.926,147.233z M213.074,147.233c9.991,0,18.118,8.128,18.118,18.118  c0,9.99-8.128,18.118-18.118,18.118s-18.118-8.127-18.118-18.118C194.956,155.36,203.085,147.233,213.074,147.233z M193.322,110.541  c-0.762-1.587-8.112-12.406-8.112-12.406c10.196-7.108,22.846-15.925,34.599-24.111C219.18,80.171,214.628,92.331,193.322,110.541z   M163.374,67.852c16.733-11.264,41.816-24.524,65.528-23.013c0.961,0.062,1.578,0.556,1.833,1.471  c0.244,0.878-0.014,1.59-0.77,2.116c-15.121,10.518-37.344,26.005-53.443,37.228l-8.986-12.91  C166.294,70.959,164.897,69.327,163.374,67.852z M182.922,151.177c-1.612,3.416-2.659,7.147-3.023,11.074  c-1.265,0.382-2.516,0.774-3.744,1.18l-5.346-4.817C174.195,156.644,182.347,151.589,182.922,151.177z M111.039,182.566  c3.721-0.526,7.707-1.349,11.991-2.531c10.111-2.788,21.376-7.371,33.658-13.674l3.797,3.422  c-11.434,5.613-20.788,12.691-28.263,21.38c-1.7,1.976-3.295,4.036-4.785,6.176L111.039,182.566z M30.746,300.199  c-3.554,3.554-9.336,3.554-12.889,0s-3.554-9.336,0-12.889l31.117-31.117c2.43,5.802,7.047,10.467,12.814,12.964L30.746,300.199z   M71.418,255.941c-5.026,0-9.114-4.089-9.114-9.115s4.089-9.114,9.114-9.114h41.323c-0.641,5.116-0.966,17.486-0.955,18.228H71.418z   M93.243,312.02c-5.031,0.331-9.372-3.459-9.714-8.473c-0.164-2.41,0.632-4.753,2.24-6.598c1.608-1.845,3.823-2.95,6.232-3.116  l24.655-1.681c1.528,6.033,3.402,12.009,5.609,17.889L93.243,312.02z M124.266,345.44l14.685-2.257  c3.707,5.744,7.754,11.288,12.138,16.577l-24.055,3.697c-2.39,0.367-4.789-0.229-6.762-1.676c-1.973-1.448-3.263-3.561-3.63-5.948  C115.878,350.865,119.298,346.203,124.266,345.44z M93.555,413.378c-2.973,4.051-8.687,4.929-12.74,1.958  c-1.948-1.429-3.225-3.549-3.597-5.967c-0.372-2.419,0.211-4.824,1.64-6.773l26.043-35.5c3.284,5.369,8.544,9.285,14.627,10.878  L93.555,413.378z M139.457,463.789c-1.31,2.03-3.35,3.432-5.743,3.947c-2.392,0.517-4.828,0.078-6.858-1.233  c-2.03-1.31-3.431-3.35-3.947-5.742c-0.516-2.393-0.078-4.828,1.233-6.858l23.881-36.989c3.598,5.165,9.085,8.755,15.254,9.981  L139.457,463.789z M169.901,411.96c-4.919,1.056-9.771-2.078-10.829-6.992c-0.509-2.362-0.058-4.795,1.269-6.851  c1.328-2.056,3.359-3.468,5.721-3.977l18.306-3.943c7.933,5.363,16.219,9.815,24.762,13.313L169.901,411.96z M126.967,253.715  c0-39.761,17.558-64.132,55.089-76.205c4.87,12.377,16.932,21.165,31.018,21.165c17.309,0,31.573-13.264,33.172-30.161  c3.181-0.07,6.436-0.11,9.754-0.11c3.321,0,6.589,0.035,9.754,0.105c1.598,16.899,15.862,30.165,33.172,30.165  c14.084,0,26.146-8.786,31.017-21.162c37.513,12.069,55.09,36.49,55.09,76.201c0,67.946-55.182,143.939-129.033,143.939  S126.967,321.661,126.967,253.715z M389.091,460.76c-0.515,2.393-1.917,4.433-3.947,5.742c-2.03,1.31-4.466,1.749-6.858,1.233  c-2.393-0.515-4.433-1.917-5.742-3.947l-23.82-36.894c6.167-1.227,11.655-4.817,15.254-9.981l23.88,36.989  C389.168,455.932,389.606,458.368,389.091,460.76z M345.938,394.141c2.362,0.508,4.393,1.921,5.721,3.977  c1.327,2.056,1.778,4.489,1.269,6.851c-1.057,4.913-5.916,8.05-10.828,6.992l-39.229-8.449c8.543-3.498,16.828-7.95,24.762-13.313  L345.938,394.141z M387.734,345.44c4.967,0.763,8.387,5.425,7.624,10.392c-0.367,2.388-1.656,4.501-3.63,5.948  c-1.973,1.447-4.373,2.043-6.762,1.676l-24.055-3.697c4.385-5.288,8.432-10.833,12.138-16.577L387.734,345.44z M469.184,359.819  c-1.821,1.588-4.17,2.374-6.609,2.204c-2.442-0.167-4.662-1.261-6.249-3.082l-28.858-33.081c5.924-2.099,10.844-6.442,13.663-12.066  l28.931,33.165C473.365,350.747,472.97,356.516,469.184,359.819z M419.998,293.833c2.41,0.165,4.624,1.27,6.232,3.116  c1.608,1.845,2.405,4.187,2.24,6.598c-0.342,5.014-4.706,8.807-9.714,8.473l-29.024-1.979c2.207-5.879,4.081-11.855,5.609-17.889  L419.998,293.833z M399.259,237.713h41.323c5.026,0,9.114,4.089,9.114,9.115s-4.089,9.114-9.114,9.114h-40.368  C400.225,255.199,399.899,242.829,399.259,237.713z M494.143,300.199c-3.554,3.553-9.336,3.554-12.889,0l-31.042-31.042  c5.767-2.497,10.384-7.162,12.814-12.964l31.117,31.117C497.696,290.864,497.696,296.646,494.143,300.199z"/>
<g>
</g>
<g>
</g>
<g>
</g>
<g>
</g>
<g>
</g>
<g>
</g>
<g>
</g>
<g>
</g>
<g>
</g>
<g>
</g>
<g>
</g>
<g>
</g>
<g>
</g>
<g>
</g>
<g>
</g>
</svg>
