<?xml version="1.0" encoding="iso-8859-1"?>
<!-- Generator: Adobe Illustrator 19.0.0, SVG Export Plug-In . SVG Version: 6.00 Build 0)  -->
<svg xmlns="http://www.w3.org/2000/svg" xmlns:xlink="http://www.w3.org/1999/xlink" version="1.1" id="Layer_1" x="0px" y="0px" viewBox="0 0 511.999 511.999" style="enable-background:new 0 0 511.999 511.999;" xml:space="preserve">
<path style="fill:#FFEB99;" d="M470.694,49.125c0,0,10.438,120.092-31.332,248.124c-4.864,14.909-26.789,11.629-27.001-4.052  c-0.776-57.58-5.671-142.168-24.018-229.418C388.454,63.496,470.694,49.125,470.694,49.125z"/>
<path style="fill:#FFE477;" d="M471.852,83.752c-10.314,6.652-25.626,17.652-40.959,32.8c-11.063,10.931-20.455,22.28-28.18,34.006  c-3.491-27.993-8.157-57.231-14.37-86.78c0.111-0.283,82.352-14.654,82.352-14.654S471.811,61.978,471.852,83.752z"/>
<path style="fill:#FFF5CC;" d="M416.25,9.812c26.706-9.069,54.379,11.108,54.444,39.313c0,0-117.911,59.634-124.593,176.563  c-0.274-0.868-34.537-28.765-55.714-45.946v-32.624C290.388,147.119,321.612,41.948,416.25,9.812z"/>
<path style="fill:#FFEB99;" d="M41.304,49.125c0,0-10.438,120.092,31.332,248.124c4.864,14.909,26.789,11.629,27.001-4.052  c0.776-57.58,5.67-142.168,24.018-229.418C123.545,63.496,41.304,49.125,41.304,49.125z"/>
<path style="fill:#FFE477;" d="M40.146,83.752c10.314,6.652,25.626,17.652,40.959,32.8c11.063,10.931,20.455,22.28,28.18,34.006  c3.491-27.993,8.157-57.231,14.37-86.78c-0.111-0.283-82.352-14.654-82.352-14.654S40.188,61.978,40.146,83.752z"/>
<path style="fill:#FFF5CC;" d="M95.749,9.812C69.042,0.743,41.37,20.92,41.304,49.125c0,0,117.911,59.634,124.593,176.563  c0.274-0.868,34.537-28.765,55.714-45.946v-32.624C221.611,147.119,190.387,41.948,95.749,9.812z"/>
<g>
	<path style="fill:#FFEB99;" d="M51.094,22.416c-6.027,7.134-9.766,16.378-9.79,26.709c0,0,117.911,59.634,124.593,176.563   c0.182-0.58,15.506-13.2,31.975-26.637v-14.717C197.872,184.334,161.38,61.481,51.094,22.416z"/>
	<path style="fill:#FFEB99;" d="M460.905,22.416c6.027,7.134,9.766,16.378,9.79,26.709c0,0-117.911,59.634-124.593,176.563   c-0.182-0.58-15.506-13.2-31.975-26.637v-14.717C314.127,184.334,350.619,61.481,460.905,22.416z"/>
</g>
<path style="fill:#957856;" d="M152.481,259.594c0,0-51.172-11.064-73.119-63.968c-3.905-9.414,1.702-20.112,11.675-22.214  c22.722-4.788,63.292-7.754,94.134,20.803C184.333,195.052,152.481,259.594,152.481,259.594z"/>
<path style="fill:#806749;" d="M166.051,232.187c-46.846-36.378-86.683-36.563-86.683-36.563  c21.947,52.904,73.119,63.968,73.119,63.968S158.903,246.594,166.051,232.187z"/>
<path style="fill:#957856;" d="M359.517,259.594c0,0,51.172-11.064,73.119-63.968c3.905-9.414-1.702-20.112-11.675-22.214  c-22.722-4.788-63.292-7.754-94.134,20.803C327.666,195.052,359.517,259.594,359.517,259.594z"/>
<path style="fill:#806749;" d="M345.948,232.187c46.846-36.378,86.683-36.563,86.683-36.563  c-21.947,52.904-73.119,63.968-73.119,63.968S353.096,246.594,345.948,232.187z"/>
<path style="fill:#B39A7C;" d="M256,134.829L256,134.829c-64.311,0-116.93,52.619-116.93,116.93v118.667  c0,29.019,10.716,55.655,28.384,76.152h177.092c17.667-20.498,28.384-47.134,28.384-76.152V251.758  C372.929,187.447,320.311,134.829,256,134.829z"/>
<g>
	<path style="fill:#A78966;" d="M200.366,446.579c7.479-8.483,12.039-19.592,12.039-31.722V256.362   c0-26.447-21.638-48.085-48.086-48.085l0,0c-6.435,0-12.581,1.29-18.204,3.609c-4.555,12.458-7.046,25.888-7.046,39.873v118.667   c0,29.019,10.716,55.655,28.383,76.152H200.366z"/>
	<path style="fill:#A78966;" d="M311.633,446.579c-7.479-8.483-12.039-19.592-12.039-31.722V256.362   c0-26.447,21.638-48.085,48.086-48.085l0,0c6.435,0,12.581,1.29,18.204,3.609c4.555,12.458,7.046,25.888,7.046,39.873v118.667   c0,29.019-10.716,55.655-28.383,76.152H311.633z"/>
	<path style="fill:#A78966;" d="M230.759,168.646c-0.777-4.127,1.769-8.141,5.879-9.003c6.331-1.329,12.845-2.003,19.361-2.003   c4.2,0,7.604,3.404,7.604,7.604s-3.403,7.604-7.604,7.604c-5.469,0-10.93,0.565-16.236,1.678   C239.237,174.636,232.175,176.164,230.759,168.646z"/>
	<path style="fill:#A78966;" d="M315.478,200.104c-1.2-1.375-2.472-2.736-3.781-4.045c-9.482-9.482-21.163-16.434-33.777-20.105   c-4.033-1.173-6.351-5.393-5.177-9.425c1.172-4.033,5.398-6.349,9.424-5.177c15.065,4.383,28.996,12.667,40.283,23.954   c1.551,1.551,3.06,3.164,4.484,4.796c2.762,3.163,2.595,8.161-0.728,10.728C321.391,204.551,316.981,201.826,315.478,200.104z"/>
</g>
<g>
	<circle style="fill:#3E3D42;" cx="175.401" cy="270.529" r="17.602"/>
	<circle style="fill:#3E3D42;" cx="336.59" cy="270.529" r="17.602"/>
</g>
<path style="fill:#957856;" d="M256,395.424L256,395.424c-28.176,0-51.231,23.053-51.231,51.231v6.506  c0,28.176,23.053,51.23,51.231,51.23l0,0c28.176,0,51.23-23.053,51.23-51.23v-6.506C307.229,418.478,284.176,395.424,256,395.424z"/>
<path style="fill:#806749;" d="M248.363,453.16v-6.506c0-20.393,12.08-38.094,29.433-46.323c-6.624-3.141-14.013-4.907-21.797-4.907  c-28.176,0-51.231,23.053-51.231,51.231v6.506c0,28.176,23.053,51.23,51.231,51.23c7.784,0,15.173-1.766,21.797-4.907  C260.443,491.255,248.363,473.553,248.363,453.16z"/>
<path style="fill:#2D2D30;" d="M256,420.57c-14.383,0-26.084,11.702-26.084,26.084v6.507c0,14.383,11.702,26.084,26.084,26.084  s26.084-11.702,26.084-26.084v-6.507C282.083,432.272,270.383,420.57,256,420.57z"/>
<path style="fill:#1D1D1F;" d="M248.363,446.666c0-9.506,2.632-18.422,7.19-26.073c-14.177,0.239-25.639,11.839-25.639,26.073v6.507  c0,14.233,11.461,25.833,25.639,26.073c-4.559-7.651-7.19-16.568-7.19-26.073V446.666z"/>
<path style="fill:#FFDAAA;" d="M343.651,395.493c-16.59-20.363-65.32-47.627-87.652-34.029  c-22.332-13.598-71.061,13.666-87.652,34.029c-17.185,21.093-14.017,52.124,7.075,69.309c21.093,17.185,52.124,14.017,69.309-7.076  c3.893-4.778,7.796-11.376,11.268-18.909c3.471,7.533,7.375,14.132,11.268,18.909c17.185,21.093,48.215,24.261,69.309,7.076  C357.669,447.617,360.836,416.586,343.651,395.493z"/>
<path style="fill:#FFC477;" d="M210.785,429.101c1.864-19.453,12.543-47.973,27.619-71.199  c-24.305,1.441-57.052,21.638-70.056,37.599c-17.185,21.093-14.017,52.124,7.075,69.309c13.341,10.87,30.656,13.587,45.93,8.786  C213.289,460.793,209.23,445.329,210.785,429.101z"/>
<path style="fill:#3E3D42;" d="M282.403,348.997c0,14.582-11.821,32.271-26.403,32.271c-14.582,0-26.403-17.688-26.403-32.271  c0-14.582,11.821-14.669,26.403-14.669C270.581,334.328,282.403,334.415,282.403,348.997z"/>
<path d="M43.758,156.629c4.183-0.373,7.272-4.065,6.9-8.248c-0.356-3.984-0.682-8.025-0.971-12.01  c-0.304-4.188-3.947-7.328-8.135-7.033c-4.188,0.305-7.336,3.947-7.033,8.135c0.296,4.066,0.516,8.201,0.992,12.255  C36.38,157.155,43.529,156.649,43.758,156.629z"/>
<path d="M478.32,48.63c-0.192-15.633-7.866-30.363-20.618-39.476C444.786-0.077,428.8-2.46,413.843,2.619  c-77.017,26.153-113.49,98.293-125.795,128.791c-10.219-2.72-20.947-4.178-32.011-4.178c-11.064,0-21.792,1.458-32.011,4.178  C211.72,100.911,175.248,28.77,98.231,2.618C83.273-2.462,67.289-0.078,54.372,9.153C41.622,18.265,33.949,32.99,33.754,48.62  c-0.194,2.306-2.16,27.143-0.554,65.771c0.169,4.089,3.537,7.287,7.591,7.287c0.106,0,0.214-0.002,0.321-0.006  c4.196-0.174,7.456-3.718,7.281-7.913c-0.947-22.773-0.603-40.821-0.158-51.866c13.186,8.167,36.936,24.649,59.024,49.112  c-2.754,17.236-5.171,35.073-7.199,53.119c-3.741,0.525-7.279,1.161-10.555,1.851c-6.964,1.468-12.864,5.93-16.191,12.241  c-3.332,6.325-3.675,13.734-0.94,20.327c5.803,13.99,13.55,25.227,21.865,34.223c-1.166,20.027-1.9,40.317-2.169,60.332  c-0.066,4.907-4.046,5.893-5.264,6.079c-1.23,0.188-5.367,0.433-6.906-4.281c-12.424-38.082-21.407-79.276-26.698-122.438  c-0.511-4.169-4.295-7.131-8.473-6.622c-4.168,0.511-7.132,4.305-6.621,8.473c5.411,44.133,14.607,86.291,27.336,125.304  c2.969,9.101,11.783,16.545,23.649,14.599c10.543-1.729,18.039-10.204,18.183-20.908c0.211-15.67,0.715-31.508,1.484-47.254  c8.178,6.319,16.156,10.82,22.742,13.931v110.452c0,23.123,6.458,45.738,18.678,65.4l0.289-0.179  c2.134,13.298,8.95,25.894,20.188,35.05c10.287,8.381,22.644,12.548,34.983,12.738c10.66,17.707,29.638,28.559,50.396,28.559  c10.863,0,21.496-3.017,30.749-8.726c3.574-2.205,4.684-6.89,2.479-10.464s-6.892-4.683-10.463-2.479  c-6.852,4.227-14.724,6.462-22.765,6.462c-13.08,0-25.205-5.834-33.412-15.66c3.382-0.991,6.679-2.297,9.85-3.914  c6.228,6.12,14.612,9.635,23.56,9.635c8.899,0,17.317-3.521,23.556-9.635c8.08,4.121,16.995,6.24,25.956,6.24  c12.629,0,25.335-4.176,35.867-12.756c10.988-8.953,17.742-21.195,20.033-34.166l0.002,0.001  c12.508-19.832,19.119-42.691,19.119-66.107V259.98c6.568-3.103,14.551-7.606,22.742-13.935c0.77,15.749,1.272,31.588,1.484,47.259  c0.144,10.704,8.346,21.168,21.592,21.168c9.219,0,17.271-5.76,20.24-14.86C487.718,173.669,478.725,53.657,478.32,48.63z   M418.733,17.017c10.266-3.485,21.244-1.841,30.128,4.508c7.834,5.599,12.784,13.906,13.985,23.238  c-7.604,4.301-24.024,14.309-42.64,30.112c-22.951,19.482-53.576,51.784-70.005,95.477c-12.867-14.862-29.188-26.651-47.699-34.123  C314.31,107.265,348.296,40.935,418.733,17.017z M380.261,243.058c-0.523-7.538-1.716-14.894-3.527-22.007  c17.565-9.571,32.727-14.007,42.825-16.055C408.255,224.395,392.641,236.201,380.261,243.058z M371.991,206.337  c-3.225-8.205-7.303-15.983-12.113-23.235c21.57-7.544,43.823-5.08,59.554-2.246c5.624,1.013,6.714,6.541,6.827,7.64  C416.522,189.617,396.515,193.426,371.991,206.337z M368.89,164.932c6.374-14.085,14.306-26.844,22.944-38.256  c1.742,11.844,3.323,23.918,4.725,36.103C387.809,162.496,378.432,163.035,368.89,164.932z M91.869,74.875  C73.253,59.072,56.834,49.064,49.23,44.763c1.2-9.333,6.151-17.639,13.985-23.238c8.885-6.35,19.864-7.992,30.128-4.508  c70.437,23.918,104.423,90.248,116.231,119.212c-18.51,7.471-34.832,19.261-47.698,34.123  C145.445,126.659,114.82,94.357,91.869,74.875z M120.24,126.676c8.637,11.41,16.568,24.168,22.941,38.25  c-9.534-1.896-18.91-2.436-27.665-2.151C116.917,150.591,118.498,138.518,120.24,126.676z M92.643,180.856  c15.788-2.931,38.026-5.289,59.554,2.245c-4.812,7.252-8.889,15.032-12.114,23.237c-24.523-12.908-44.531-16.721-54.266-17.84  C85.929,187.397,87.198,181.867,92.643,180.856z M131.813,243.058c-12.417-6.876-28.03-18.694-39.328-38.11  c10.054,2.027,25.181,6.454,42.856,16.097C133.529,228.16,132.336,235.518,131.813,243.058z M146.711,251.764  c0-60.282,49.044-109.326,109.326-109.326c41.935,0,78.425,23.738,96.756,58.478c-8.591-2.194-60.766-0.927-60.766,55.451v97.442  c-0.745-0.232-1.49-0.456-2.233-0.669c0.158-1.389,0.249-2.772,0.249-4.137c0-12.424-6.851-17.678-12.599-19.896  c-6.155-2.376-13.564-2.376-21.408-2.376c-7.844,0-15.253,0-21.408,2.376c-5.747,2.218-12.599,7.472-12.599,19.896  c0,1.368,0.091,2.753,0.25,4.143c-0.744,0.213-1.488,0.436-2.234,0.668v-97.448c0-26.298-18.713-49.239-44.496-54.551  c-4.112-0.845-8.134,1.8-8.981,5.914c-0.848,4.113,1.8,8.134,5.913,8.981c18.749,3.863,32.357,20.54,32.357,39.657v103.443  c-17.699,8.355-34.046,20.695-42.348,30.886c-4.141,5.083-7.243,10.678-9.358,16.521c-4.23-11.747-6.422-24.18-6.422-36.785  L146.711,251.764L146.711,251.764z M256.037,373.669c-2.856,0-5.661-1.216-8.199-3.197c0.115-0.239,1.825-3.076,0.026-6.545  l-5.345-11.298c-1.853-4.115-4.954-4.106-5.278-4.175c0.066-5.148,1.346-6.517,18.796-6.517c17.454,0,18.73,1.37,18.796,6.521  c-0.318,0.068-2.866-0.324-5.261,4.172l-5.345,11.298c-1.891,3.468-0.092,6.3,0.02,6.535  C261.706,372.451,258.897,373.669,256.037,373.669z M174.279,400.302c9.589-11.77,32.144-26.894,52.4-32.602  c4.628,9.302,12.379,17.149,21.722,20.009v49.469c-3.058,6.4-6.332,11.831-9.526,15.752c-14.51,17.808-40.802,20.492-58.612,5.984  C162.455,444.403,159.77,418.109,174.279,400.302z M256.037,471.647c-3.912,0-7.633-1.227-10.715-3.429  c1.881-1.753,3.675-3.636,5.344-5.684c1.802-2.212,3.604-4.765,5.371-7.6c1.767,2.835,3.57,5.387,5.372,7.601  c1.667,2.045,3.458,3.926,5.336,5.676C263.656,470.415,259.93,471.647,256.037,471.647z M331.81,458.913  c-17.808,14.508-44.1,11.826-58.611-5.983c-3.217-3.949-6.516-9.429-9.591-15.888v-49.313c9.373-2.845,17.149-10.708,21.787-20.032  c20.261,5.692,42.721,20.727,52.399,32.604C352.303,418.109,349.619,444.403,331.81,458.913z M365.363,370.431  c0,12.61-2.196,25.034-6.424,36.778c-2.115-5.841-5.215-11.432-9.355-16.513c-8.372-10.275-24.673-22.582-42.348-30.91V256.367  c0-22.321,18.16-40.482,40.482-40.482c4.183,0,8.286,0.653,12.241,1.924c3.503,10.694,5.405,22.105,5.405,33.954v118.668H365.363z   M432.171,294.895c-1.539,4.714-5.676,4.469-6.906,4.281c-1.218-0.186-5.198-1.171-5.264-6.079  c-0.269-20.016-1.004-40.307-2.169-60.335c8.313-8.994,16.062-20.231,21.865-34.22c2.735-6.593,2.393-14.002-0.94-20.327  c-3.325-6.312-9.227-10.773-16.191-12.241c-3.271-0.689-6.809-1.324-10.555-1.849c-2.029-18.046-4.446-35.884-7.199-53.12  c22.08-24.453,45.819-40.93,59.007-49.101C465.115,95.332,465.378,193.115,432.171,294.895z"/>
<g>
</g>
<g>
</g>
<g>
</g>
<g>
</g>
<g>
</g>
<g>
</g>
<g>
</g>
<g>
</g>
<g>
</g>
<g>
</g>
<g>
</g>
<g>
</g>
<g>
</g>
<g>
</g>
<g>
</g>
</svg>
