<?xml version="1.0" encoding="iso-8859-1"?>
<!-- Generator: Adobe Illustrator 19.0.0, SVG Export Plug-In . SVG Version: 6.00 Build 0)  -->
<svg xmlns="http://www.w3.org/2000/svg" xmlns:xlink="http://www.w3.org/1999/xlink" version="1.1" id="Layer_1" x="0px" y="0px" viewBox="0 0 511.998 511.998" style="enable-background:new 0 0 511.998 511.998;" xml:space="preserve">
<circle style="fill:#FFC477;" cx="86.314" cy="89.286" r="53.898"/>
<path style="fill:#FFA733;" d="M86.311,112.775c-12.953,0-23.492-10.538-23.492-23.492s10.538-23.492,23.492-23.492  s23.493,10.538,23.493,23.492S99.265,112.775,86.311,112.775z"/>
<circle style="fill:#FFC477;" cx="425.689" cy="89.286" r="53.898"/>
<path style="fill:#FFA733;" d="M425.687,112.775c-12.954,0-23.493-10.538-23.493-23.492s10.538-23.492,23.493-23.492  c12.953,0,23.492,10.538,23.492,23.492S438.64,112.775,425.687,112.775z"/>
<path style="fill:#663A00;" d="M258.852,386.453h-5.707l-78.52,15.796c0,0,8.255,63.063,45.943,97.453  c8.8,8.029,22.885,5.196,27.895-5.612c3.399-7.333,5.837-15.044,7.535-22.83c1.699,7.785,4.136,15.496,7.535,22.83  c5.01,10.808,19.095,13.641,27.895,5.612c37.689-34.392,45.943-97.453,45.943-97.453L258.852,386.453z"/>
<path style="fill:#9A4C00;" d="M387.965,367.518c0,0,4.272,80.037-42.56,124.715c-12.915,12.321-34.287,4.862-36.917-12.794  c-3.384-22.722-14.121-53.839-44.748-85.273c-0.771-2.315,8.632-75.264,8.632-75.264L387.965,367.518z"/>
<path style="fill:#663A00;" d="M269.955,337.957c1.367-10.918,2.417-19.054,2.417-19.054l115.593,48.616  c0,0,3.261,61.131-27.178,106.365C325.288,454.981,282.145,416.244,269.955,337.957z"/>
<path style="fill:#9A4C00;" d="M124.033,367.518c0,0-4.272,80.037,42.56,124.715c12.915,12.321,34.287,4.862,36.917-12.794  c3.384-22.722,14.121-53.839,44.748-85.273c0.771-2.315-8.632-75.264-8.632-75.264L124.033,367.518z"/>
<path style="fill:#663A00;" d="M242.042,337.957c-1.367-10.918-2.417-19.054-2.417-19.054l-115.593,48.616  c0,0-3.261,61.131,27.178,106.365C186.709,454.981,229.852,416.244,242.042,337.957z"/>
<path style="fill:#AA6100;" d="M402.391,343.798c0,0,4.32,50.315,16.117,86.472c4.791,14.683-9.206,28.501-23.762,23.334  c-36.108-12.816-85.109-45.818-95.662-128.881c1.459,0,47.754-48.614,47.754-48.614L402.391,343.798z"/>
<path style="fill:#9A4C00;" d="M346.844,276.11l55.554,67.688c0,0,4.32,50.315,16.117,86.472c0.863,2.646,1.108,5.261,0.858,7.744  c-0.419,0.01-41.984-2.38-51.853-38.644c-8.694-31.947-22.968-65.76-42.485-100.526C336.247,287.237,346.844,276.11,346.844,276.11z  "/>
<path style="fill:#AA6100;" d="M109.606,345.906c0,0-4.32,50.315-16.117,86.472c-4.791,14.683,9.206,28.501,23.762,23.334  c36.108-12.816,85.109-45.818,95.662-128.881c-1.459,0-47.754-48.614-47.754-48.614L109.606,345.906z"/>
<path style="fill:#9A4C00;" d="M165.153,278.218l-55.554,67.688c0,0-4.32,50.315-16.117,86.472  c-0.863,2.646-1.108,5.261-0.858,7.744c0.419,0.01,40.97-1.701,51.853-38.644c9.356-31.759,22.968-65.76,42.485-100.526  C175.751,289.345,165.153,278.218,165.153,278.218z"/>
<g>
	<path style="fill:#CC7400;" d="M459.896,306.203c0,0,0.743,42.74-21.858,90.803c-8.734,18.574-35.802,16.319-41.176-3.49   c-7.534-27.765-21.392-65.444-47.039-110.523c0.162-3.704,27.159-106.413,27.159-106.413L459.896,306.203z"/>
	<path style="fill:#CC7400;" d="M52.101,306.203c0,0-0.743,42.74,21.858,90.803c8.734,18.574,35.802,16.319,41.176-3.49   c7.534-27.765,21.392-65.444,47.039-110.523c-0.162-3.704-27.159-106.413-27.159-106.413L52.101,306.203z"/>
</g>
<g>
	<path style="fill:#AA6100;" d="M77.514,351.944c27.235-15.461,58.389-42.744,79.463-90.655   c-7.886-31.161-21.961-84.709-21.961-84.709L52.101,306.203c0,0-0.377,21.825,7.652,51.819   C65.932,357.138,71.973,355.089,77.514,351.944z"/>
	<path style="fill:#AA6100;" d="M434.483,351.944c-27.235-15.461-58.389-42.744-79.463-90.655   c7.885-31.161,21.961-84.709,21.961-84.709l82.915,129.623c0,0,0.377,21.825-7.652,51.819   C446.065,357.138,440.024,355.089,434.483,351.944z"/>
</g>
<path style="fill:#EE8700;" d="M477.012,300.261c-21.155-46.712-20.514-102.849-20.514-102.849  C456.499,7.603,255.999,7.603,255.999,7.603s-200.5,0-200.5,189.81c0,0,0.642,56.136-20.513,102.849  c-7.807,17.24,11.056,34.579,27.516,25.236c37.892-21.51,81.525-69.011,87.903-172.239h211.19  c6.378,103.227,50.012,150.729,87.903,172.239C465.956,334.84,484.819,317.502,477.012,300.261z"/>
<g>
	<path style="fill:#FF9811;" d="M55.498,197.414c0,0,0.642,56.136-20.513,102.849c-4.406,9.726-0.318,19.482,7.034,24.462   C86.531,283,73.534,208.315,73.534,208.238c-7.059-35.375-6.317-82.34-6.309-82.819C59.835,145.719,55.498,169.514,55.498,197.414z   "/>
	<path style="fill:#FF9811;" d="M456.499,197.414c0,0-0.642,56.136,20.513,102.849c4.406,9.726,0.318,19.482-7.034,24.462   c-44.512-41.726-31.515-116.41-31.515-116.487c7.059-35.375,6.317-82.34,6.309-82.819   C452.163,145.719,456.499,169.514,456.499,197.414z"/>
</g>
<path style="fill:#FFDAAA;" d="M267.958,285.51h-23.919c-31.403,0-57.097,25.694-57.097,57.097v10.03  c0,31.403,25.694,57.097,57.097,57.097h23.919c31.403,0,57.097-25.694,57.097-57.097v-10.03  C325.055,311.203,299.361,285.51,267.958,285.51z"/>
<g>
	<path style="fill:#FFC477;" d="M231.039,352.637v-10.03c0-27.961,20.375-51.378,47.008-56.18   c-3.278-0.591-6.647-0.917-10.089-0.917h-23.919c-31.403,0-57.097,25.694-57.097,57.097v10.03   c0,31.403,25.694,57.097,57.097,57.097h23.919c3.443,0,6.811-0.326,10.089-0.917C251.415,404.015,231.039,380.598,231.039,352.637z   "/>
	<path style="fill:#FFC477;" d="M325.055,352.637v-10.03c0-31.403-25.694-57.097-57.097-57.097h-23.919   c-31.403,0-57.097,25.694-57.097,57.097v10.03c0,12.027,3.779,23.211,10.195,32.44c3.39,0.45,6.829,0.688,10.303,0.688   c17.9,0,34.911-6.066,48.559-17.017c13.648,10.95,30.657,17.015,48.557,17.017c0.004,0,0.004,0,0.007,0   c3.472,0,6.909-0.237,10.298-0.687C321.276,375.848,325.055,364.665,325.055,352.637z"/>
</g>
<path style="fill:#FFB655;" d="M244.039,285.51c-31.403,0-57.097,25.694-57.097,57.097v10.03c0,12.027,3.779,23.211,10.195,32.44  c3.39,0.45,6.829,0.687,10.303,0.687c10.627,0,20.932-2.153,30.414-6.181c-4.341-8.038-6.814-17.215-6.814-26.946v-10.03  c0-27.961,20.375-51.378,47.008-56.18c-3.278-0.591-6.647-0.917-10.089-0.917H244.039z"/>
<path style="fill:#3E3D42;" d="M258.885,330.775h-5.773c-12.659,0-23.016,10.357-23.016,23.016  c0,12.659,10.357,23.016,23.016,23.016h5.773c12.659,0,23.016-10.357,23.016-23.016C281.9,341.132,271.543,330.775,258.885,330.775z  "/>
<path style="fill:#2D2D30;" d="M258.885,330.775h-5.773c-12.659,0-23.016,10.357-23.016,23.016c0,10.128,6.633,18.777,15.767,21.832  c3.54-2.016,6.933-4.305,10.135-6.874c3.202,2.569,6.595,4.858,10.135,6.874c9.134-3.055,15.767-11.704,15.767-21.832  C281.9,341.132,271.543,330.775,258.885,330.775z"/>
<path style="fill:#FFC477;" d="M337.123,89.639c-42.656-31.226-81.134,7.458-81.134,7.458c-0.378-0.378-38.642-38.508-81.116-7.416  c-18.346,13.772-54.474,50.328-45.308,120.126l19.205,108.536c1.451,8.198,9.26,22.907,9.26,22.907  c22.379,33.208,70.499,35.303,95.68,4.165l2.287-2.827l2.288,2.786c25.181,31.137,73.301,29.041,95.68-4.165  c0,0,7.809-14.711,9.26-22.907l19.205-108.536C391.597,139.967,355.469,103.411,337.123,89.639z"/>
<g>
	<path style="fill:#FFB655;" d="M174.874,89.702c-18.346,13.772-54.474,50.328-45.308,120.126l19.205,108.536   c1.451,8.198,9.26,22.907,9.26,22.907c15.039,22.315,41.697,30.557,65.212,24.129c-2.68-2.774-5.172-5.824-7.424-9.166   c0,0-8.707-16.402-10.324-25.542L184.08,209.676c-9.274-70.633,23.051-110.734,44.398-129.022   c-0.142-0.048-0.293-0.109-0.442-0.168C213.488,75.756,194.638,75.234,174.874,89.702z"/>
	<path style="fill:#FFB655;" d="M319.078,124.013c-5.293-4.448-9.223-6.969-9.669-7.224c-3.649-2.077-4.922-6.72-2.845-10.369   s6.722-4.923,10.369-2.845c1.353,0.77,6.237,3.703,12.276,9.099c3.131,2.798,3.401,7.604,0.604,10.735   C328.31,125.091,324.253,128.365,319.078,124.013z"/>
	<path style="fill:#FFB655;" d="M345.141,175.285c-1.415-13.093-5.741-24.919-12.354-35.205c-2.271-3.532-1.248-8.236,2.284-10.506   c3.531-2.273,8.236-1.249,10.506,2.284c7.864,12.232,12.796,26.228,14.658,41.598c0.505,4.168-2.464,7.958-6.633,8.462   C353.292,181.956,345.934,182.634,345.141,175.285z"/>
	<path style="fill:#FFB655;" d="M275.011,211.568c-12.283-4.441-25.775-4.441-38.058,0c-75.603,27.333-88.573,78.73-90.694,92.667   l2.497,14.108c1.451,8.198,9.26,22.907,9.26,22.907c22.379,33.208,70.499,35.303,95.68,4.165l2.287-2.827l2.288,2.786   c25.181,31.137,73.301,29.041,95.68-4.165c0,0,7.81-14.711,9.26-22.907l2.528-14.287   C363.622,290.09,350.635,238.908,275.011,211.568z"/>
</g>
<path style="fill:#FFA733;" d="M215.818,356.255c0,0-8.707-16.402-10.324-25.542l-16.524-93.383  c-33.748,26.269-41.154,56.693-42.711,66.926l2.497,14.108c1.451,8.198,9.26,22.907,9.26,22.907  c15.038,22.314,41.695,30.557,65.209,24.13C220.552,362.631,218.065,359.589,215.818,356.255z"/>
<path style="fill:#FFF5CC;" d="M253.707,345.416l2.288-2.829V307.17l-59.828,59.261C216.728,370.35,239.084,363.497,253.707,345.416  z"/>
<path style="fill:#FFC477;" d="M212.744,350.012l-16.578,16.421c8.96,1.707,18.261,1.367,27.113-1.054  c-2.694-2.786-5.199-5.849-7.463-9.206C215.819,356.173,214.474,353.638,212.744,350.012z"/>
<path style="fill:#FFF5CC;" d="M258.283,345.416l-2.288-2.829V307.17l59.828,59.261C295.262,370.35,272.906,363.497,258.283,345.416  z"/>
<path style="fill:#5F4D37;" d="M298.575,282.37c-4.002-2.64-9.386-1.534-12.025,2.468l-7.065,10.716  c-0.582-0.085-46.395-0.084-46.979,0.002l-7.066-10.718c-2.64-4.002-8.022-5.106-12.025-2.468  c-4.002,2.639-5.107,8.022-2.469,12.025l13.466,20.424c5.854,12.935,15.935,27.574,31.589,27.574  c15.673,0,25.76-14.676,31.611-27.623l13.434-20.375C303.682,290.393,302.577,285.009,298.575,282.37z"/>
<g>
	<path style="fill:#3E3D42;" d="M234.651,313.536c-3.529,0-6.757,1.27-9.264,3.373c4.151,8.597,10.164,17.543,18.418,22.208   c3.221-2.646,5.275-6.659,5.275-11.153C249.08,319.995,242.62,313.536,234.651,313.536z"/>
	<path style="fill:#3E3D42;" d="M277.346,313.536c3.529,0,6.757,1.27,9.264,3.373c-4.151,8.597-10.164,17.543-18.418,22.208   c-3.221-2.646-5.275-6.659-5.275-11.153C262.918,319.995,269.377,313.536,277.346,313.536z"/>
	<path style="fill:#3E3D42;" d="M187.141,289.617c1.997,0,3.953,0.811,5.373,2.23c1.419,1.409,2.23,3.376,2.23,5.373   s-0.811,3.964-2.23,5.373c-1.419,1.419-3.376,2.23-5.373,2.23c-2.007,0-3.964-0.811-5.383-2.23c-1.409-1.409-2.22-3.376-2.22-5.373   s0.811-3.964,2.22-5.373C183.178,290.428,185.134,289.617,187.141,289.617z"/>
	<path style="fill:#3E3D42;" d="M324.856,289.617c1.997,0,3.953,0.811,5.373,2.23c1.419,1.409,2.23,3.376,2.23,5.373   s-0.811,3.964-2.23,5.373c-1.419,1.419-3.376,2.23-5.373,2.23c-2.007,0-3.964-0.811-5.383-2.23c-1.409-1.409-2.22-3.376-2.22-5.373   s0.811-3.964,2.22-5.373C320.893,290.428,322.849,289.617,324.856,289.617z"/>
	<path style="fill:#3E3D42;" d="M171.133,317.122c1.997,0,3.953,0.811,5.373,2.23c1.419,1.409,2.23,3.376,2.23,5.373   c0,1.997-0.811,3.964-2.23,5.373c-1.419,1.419-3.376,2.23-5.373,2.23c-2.007,0-3.964-0.811-5.383-2.23   c-1.409-1.409-2.22-3.376-2.22-5.373c0-1.997,0.811-3.964,2.22-5.373C167.17,317.933,169.126,317.122,171.133,317.122z"/>
	<path style="fill:#3E3D42;" d="M203.15,317.122c1.997,0,3.953,0.811,5.373,2.23c1.419,1.409,2.23,3.376,2.23,5.373   c0,1.997-0.811,3.964-2.23,5.373c-1.419,1.419-3.376,2.23-5.373,2.23c-2.007,0-3.964-0.811-5.383-2.23   c-1.409-1.409-2.22-3.376-2.22-5.373c0-1.997,0.811-3.964,2.22-5.373C199.187,317.933,201.143,317.122,203.15,317.122z"/>
	<path style="fill:#3E3D42;" d="M308.847,317.122c1.997,0,3.953,0.811,5.373,2.23c1.419,1.409,2.23,3.376,2.23,5.373   c0,1.997-0.811,3.964-2.23,5.373c-1.419,1.419-3.376,2.23-5.373,2.23c-2.007,0-3.964-0.811-5.383-2.23   c-1.409-1.409-2.22-3.376-2.22-5.373c0-1.997,0.811-3.964,2.22-5.373C304.884,317.933,306.84,317.122,308.847,317.122z"/>
	<path style="fill:#3E3D42;" d="M340.864,317.122c1.997,0,3.953,0.811,5.373,2.23c1.419,1.409,2.23,3.376,2.23,5.373   c0,1.997-0.811,3.964-2.23,5.373c-1.419,1.419-3.376,2.23-5.373,2.23c-2.007,0-3.964-0.811-5.383-2.23   c-1.409-1.409-2.22-3.376-2.22-5.373c0-1.997,0.811-3.964,2.22-5.373C336.901,317.933,338.857,317.122,340.864,317.122z"/>
</g>
<g>
	<circle style="fill:#663A00;" cx="320.447" cy="202.039" r="13.822"/>
	<circle style="fill:#663A00;" cx="191.556" cy="202.039" r="13.822"/>
</g>
<path d="M464.102,197.413c0-19.834-2.152-38.398-6.423-55.602c18.1-11.076,29.514-31.085,29.514-52.528  c0-33.915-27.592-61.506-61.506-61.506c-13.81,0-27.011,4.569-37.774,12.965c-8.769-6.024-18.236-11.469-28.411-16.285  C308.42,0.278,258.115,0,255.999,0c-2.117,0-52.421,0.278-103.502,24.457c-10.18,4.818-19.65,10.266-28.423,16.293  c-10.766-8.384-24.026-12.973-37.762-12.973c-17.661,0-34.488,7.606-46.169,20.867c-2.775,3.151-2.471,7.954,0.68,10.73  c1.445,1.273,6.693,3.475,10.73-0.68c9.272-9.543,21.464-15.712,34.759-15.712c8.932,0,17.592,2.579,25.01,7.344  c-4.168,3.431-8.138,7.022-11.911,10.765c-4.082-1.904-8.532-2.904-13.099-2.904c-17.146,0-31.095,13.949-31.095,31.095  c0,8.461,3.408,16.426,9.421,22.268c-2.154,4.851-4.096,9.844-5.837,14.971c-6.021-4.466-10.949-10.374-14.215-17.144  c-1.825-3.78-6.368-5.37-10.152-3.543c-3.781,1.825-5.368,6.37-3.543,10.151c5.135,10.64,13.366,19.672,23.432,25.826  c-4.273,17.221-6.427,35.809-6.427,55.686c0.007,0.544,0.389,54.967-19.836,99.626c-4.953,10.936-2.4,23.252,6.5,31.377  c3.693,3.371,8.011,5.558,12.539,6.565c2.694,16.88,8.298,40.331,19.981,65.173c4.419,9.397,13.042,15.563,22.945,16.84  c-1.21,4.643-2.469,8.974-3.763,12.94c-3.135,9.609-0.602,19.946,6.611,26.976c4.967,4.841,15.801,9.807,26.922,5.88  c24.113-8.516,56.349-26.696,78.266-64.848c6.806,6.877,15.1,12.221,24.288,15.523c-14.118,20.312-22.977,42.051-26.36,64.768  c-0.815,5.471-4.415,9.805-9.631,11.596c-5.148,1.766-10.577,0.578-14.518-3.183c-6.365-6.072-12.1-13.249-17.043-21.33  c-2.192-3.582-6.87-4.71-10.453-2.518c-3.581,2.192-4.71,6.871-2.517,10.453c5.632,9.206,12.199,17.414,19.519,24.397  c5.595,5.337,12.881,8.173,20.335,8.173c3.214,0,6.46-0.528,9.614-1.61c5.585-1.917,10.322-5.387,13.797-9.858  c3.304,3.956,6.759,7.601,10.353,10.879c6.004,5.478,14.06,7.891,21.991,6.095c11.975-2.71,18.353-15.058,18.564-15.53  c0.21,0.47,9.63,16.116,23.643,16.04c6.216-0.033,12.187-2.295,16.911-6.605c3.593-3.278,7.048-6.924,10.353-10.88  c3.475,4.471,8.212,7.941,13.798,9.858c3.154,1.082,6.399,1.61,9.614,1.61c7.453,0,14.74-2.836,20.335-8.173  c11.747-11.205,21.39-25.381,28.725-42.171c4.448,2.042,8.752,3.761,12.824,5.205c2.893,1.027,16.358,4.347,26.922-5.88  c7.237-7.007,9.747-17.368,6.611-26.976c-1.102-3.378-2.177-7.027-3.219-10.9c9.675-1.429,18.065-7.548,22.403-16.772  c7.049-14.989,12.6-30.974,16.497-47.509c0.963-4.087-1.569-8.181-5.655-9.145c-4.083-0.963-8.181,1.568-9.145,5.655  c-3.655,15.509-8.857,30.49-15.458,44.526c-3.184,6.771-9.521,8.732-14.38,8.303c-4.811-0.422-10.643-3.413-12.579-10.55  c-7.142-26.325-17.804-53.913-31.684-82.019l8.325-47.052c15.53,30.605,37.289,53.977,64.904,69.654  c10.39,5.899,22.831,4.483,31.694-3.608c8.9-8.126,11.453-20.442,6.5-31.377C463.757,252.565,464.095,198.041,464.102,197.413z   M439.794,96.568c-2.598-4.565-5.396-8.991-8.408-13.268c-2.366-3.359-4.869-6.62-7.485-9.797  c0.59-0.066,16.757-1.532,17.673,15.779C441.711,91.849,440.947,94.344,439.794,96.568z M425.687,42.983  c25.531,0,46.3,20.771,46.3,46.3c0,14.742-7.169,28.584-18.792,37.228c-1.74-5.124-3.683-10.114-5.836-14.962  c5.965-5.81,9.421-13.82,9.421-22.266c0-17.147-13.949-31.095-31.095-31.095c-4.568,0-9.016,1.001-13.098,2.904  c-3.777-3.747-7.751-7.34-11.923-10.776C408.073,45.546,416.708,42.983,425.687,42.983z M70.422,89.283  c0.071-16.635,17.084-15.846,17.673-15.779c-2.615,3.177-5.118,6.437-7.485,9.797c-3.009,4.273-5.804,8.696-8.401,13.258  C71.057,94.336,70.411,91.858,70.422,89.283z M114.709,448.549c-4.003,1.419-8.199,0.507-11.222-2.44  c-3.079-3-4.115-7.251-2.769-11.372c1.958-6.004,3.832-12.753,5.581-20.082c7.827-3.556,13.803-10.411,16.174-19.148  c5.512-20.319,13.226-41.465,22.979-63.059c8.163,20.751,24.261,32.607,36.288,37.578c1.47,5.242,3.573,10.194,6.221,14.781  C168.352,422.865,137.476,440.468,114.709,448.549z M304.563,359.916c-0.001,0-0.003,0-0.004,0  c-12.908-0.001-25.118-4.735-34.561-13.194c9.668-4.684,17.993-14.421,24.511-28.821c0.06-0.131,3.434-9.57,2.065-16.726l4.469-6.78  c2.639-4.003,1.534-9.387-2.469-12.025c-4.002-2.64-9.386-1.534-12.025,2.468l-2.339,3.546c-1.357-0.293-2.857-0.473-4.531-0.486  c-0.016,0-0.03-0.001-0.046-0.001c-0.04,0-0.103-0.003-0.154-0.004l0,0c-1.883-0.027-16.923-0.03-23.481-0.03  s-21.598,0.003-23.481,0.03l0,0c-0.072,0.001-0.143,0.003-0.212,0.006c-1.674,0.013-3.172,0.193-4.528,0.487l-2.34-3.548  c-2.64-4.002-8.022-5.106-12.025-2.468c-4.002,2.639-5.107,8.022-2.469,12.025l4.477,6.791c-1.365,7.152,2.008,16.583,2.067,16.714  c6.517,14.401,14.844,24.137,24.511,28.822c-9.443,8.46-21.653,13.194-34.56,13.194c-47.488,0-53.437-55.618-53.437-55.618  c2.246-14.126,14.973-60.064,85.551-85.58c10.603-3.834,22.283-3.834,32.888,0c70.578,25.517,83.306,71.455,85.552,85.58  C357.994,304.297,352.572,359.916,304.563,359.916z M230.539,303.386c0.152-0.071,13.191-0.317,25.46-0.317  c12.44,0,25.308,0.246,25.46,0.317c0.608,1.054,0.304,5.147-0.908,8.474c-4.784,10.491-12.9,22.872-24.553,22.876  c-11.65-0.004-19.766-12.38-24.551-22.87C230.233,308.515,229.932,304.438,230.539,303.386z M255.999,354.321  c3.994,4.198,8.467,7.816,13.299,10.806c-2.791,2.57-6.475,4.075-10.412,4.075h-5.773c-3.946,0-7.63-1.502-10.418-4.072  C247.528,362.14,252.004,358.521,255.999,354.321z M374.92,208.65l-11.473,64.835c-11.331-22.301-35.281-50.79-85.834-69.067  c-13.939-5.039-29.291-5.038-43.228,0c-50.555,18.278-74.503,46.768-85.833,69.068l-11.473-64.836  c-8.378-64.264,22.934-98.309,42.282-112.835c9.722-7.117,19.98-10.725,30.488-10.725c23.022,0,40.595,17.217,40.755,17.377  c1.422,1.43,3.361,2.229,5.379,2.235c0.007,0,0.014,0,0.021,0c2.008,0,3.944-0.803,5.369-2.22  c0.175-0.174,17.743-17.382,40.765-17.382c21.105,0,36.495,15.6,36.578,15.669C355.658,115.677,382.645,149.38,374.92,208.65z   M199.751,374.676c9.871,0.946,21.948-0.713,28.614-2.893c5.683,7.833,14.79,12.626,24.748,12.626h5.773  c9.934,0,19.06-4.795,24.75-12.626c6.663,2.18,16.206,3.839,28.611,2.893c-8.238,16.445-25.276,27.455-44.288,27.455H244.04  C225.027,402.132,207.988,391.122,199.751,374.676z M286.304,494.087c-2.386,2.176-5.575,3.058-8.744,2.421  c-3.172-0.638-5.77-2.684-7.127-5.614c-2.969-6.402-5.325-13.553-7.006-21.253c-0.761-3.492-3.853-5.982-7.427-5.982  s-6.666,2.49-7.427,5.982c-1.681,7.7-4.037,14.851-7.006,21.253c-1.358,2.93-3.955,4.976-7.128,5.615  c-3.17,0.637-6.358-0.244-8.744-2.422c-5.04-4.599-9.812-10.05-14.213-16.23c3.645-21.3,12.734-41.708,27.073-60.758  c1.812,0.155,17.442,2.401,34.892,0c14.339,19.049,23.427,39.458,27.073,60.757C296.114,484.036,291.344,489.488,286.304,494.087z   M340.157,486.733c-3.943,3.76-9.371,4.949-14.518,3.183c-5.216-1.79-8.816-6.125-9.631-11.596  c-3.383-22.717-12.242-44.456-26.36-64.768c9.533-3.425,18.113-9.041,25.056-16.295c14.458,24.593,33.222,40.716,51.163,51.26  C359.291,463.874,350.653,476.719,340.157,486.733z M406.275,414.919c1.582,6.415,3.259,12.36,5.005,17.709  c1.344,4.12,0.309,8.371-2.769,11.372c-3.025,2.949-7.223,3.861-11.222,2.44c-22.544-8.002-53.039-25.345-72.674-62.64  c2.381-4.301,4.28-8.916,5.642-13.775c12.027-4.971,25.591-12.003,36.287-37.577c9.753,21.595,17.467,42.738,22.979,63.058  C391.954,404.459,398.163,411.444,406.275,414.919z M467.186,317.272c-3.111,2.839-8.404,4.754-13.936,1.614  c-30.604-17.374-53.357-45.425-67.642-83.373l4.314-24.381c0.019-0.11,0.036-0.223,0.052-0.335  c8.747-66.618-22.209-104.807-41.441-121.641c-0.021-0.018-20.563-19.261-46.398-19.261c-21.098,0-37.946,10.744-46.14,17.175  c-8.197-6.434-25.048-17.184-46.147-17.184c-13.806,0-27.086,4.596-39.543,13.715c-17.785,13.351-58.094,52.473-48.282,127.196  c0.015,0.111,0.032,0.224,0.052,0.335l17.407,98.37c-13.878,28.103-24.539,55.697-31.683,82.023  c-1.936,7.136-7.768,10.129-12.579,10.55c-4.848,0.428-11.195-1.531-14.38-8.303c-10.657-22.661-15.919-44.103-18.52-59.824  c1.334-0.507,38.922-20.411,61.937-59.131c2.145-3.61,1.032-8.266-2.56-10.443c-3.586-2.176-8.265-1.032-10.442,2.56  c-13.583,22.406-31.249,39.885-52.507,51.952c-5.534,3.141-10.827,1.226-13.936-1.614c-3.141-2.867-5.553-8.017-2.9-13.873  c21.603-47.7,21.218-103.712,21.19-105.986c0-75.343,32.119-128.839,95.462-159.004c48.023-22.867,96.953-23.201,97.429-23.201  c0.489,0,49.419,0.335,97.441,23.203c63.344,30.164,95.462,83.661,95.462,158.918c-0.026,2.361-0.412,58.371,21.19,106.073  C472.739,309.254,470.328,314.405,467.186,317.272z"/>
<path d="M32.408,96.886c4.2,0,7.603-3.404,7.603-7.603c0-4.395,0.612-8.738,1.821-12.906c1.169-4.033-1.153-8.25-5.185-9.419  c-4.029-1.168-8.25,1.153-9.418,5.186c-1.608,5.545-2.423,11.312-2.423,17.14C24.806,93.482,28.209,96.886,32.408,96.886z"/>
<g>
</g>
<g>
</g>
<g>
</g>
<g>
</g>
<g>
</g>
<g>
</g>
<g>
</g>
<g>
</g>
<g>
</g>
<g>
</g>
<g>
</g>
<g>
</g>
<g>
</g>
<g>
</g>
<g>
</g>
</svg>
