<?xml version="1.0" encoding="iso-8859-1"?>
<!-- Generator: Adobe Illustrator 19.0.0, SVG Export Plug-In . SVG Version: 6.00 Build 0)  -->
<svg xmlns="http://www.w3.org/2000/svg" xmlns:xlink="http://www.w3.org/1999/xlink" version="1.1" id="Layer_1" x="0px" y="0px" viewBox="0 0 512 512" style="enable-background:new 0 0 512 512;" xml:space="preserve">
<g>
	<path style="fill:#FF5023;" d="M367.326,305.156l7.713,12.191c4.581,7.24,12.55,11.629,21.118,11.629h78.23   c8.568,0,16.538-4.389,21.118-11.629l7.713-12.191c3.204-5.064-0.435-11.672-6.427-11.672H373.752   C367.761,293.483,364.122,300.091,367.326,305.156z"/>
	<path style="fill:#FF5023;" d="M8.783,303.563l7.713,12.191c4.581,7.24,12.55,11.629,21.118,11.629h78.23   c8.568,0,16.538-4.389,21.118-11.629l7.713-12.191c3.204-5.064-0.435-11.672-6.427-11.672H15.21   C9.218,291.891,5.579,298.498,8.783,303.563z"/>
</g>
<g>
	<path style="fill:#FF3501;" d="M416.233,317.547l-12.619-19.946c-0.839-1.325-1.388-2.716-1.683-4.116h-28.178   c-5.992,0-9.631,6.608-6.427,11.672l7.713,12.191c4.581,7.24,12.55,11.629,21.118,11.629h30.906   C422.809,325.946,419.11,322.094,416.233,317.547z"/>
	<path style="fill:#FF3501;" d="M57.69,315.954l-12.619-19.946c-0.839-1.325-1.388-2.716-1.683-4.116H15.21   c-5.992,0-9.631,6.608-6.427,11.672l7.713,12.191c4.581,7.24,12.55,11.629,21.118,11.629h30.906   C64.267,324.353,60.567,320.501,57.69,315.954z"/>
</g>
<g>
	<path style="fill:#FFE477;" d="M275.097,142.702c13.788,3.213,30.259,5.671,55.453,5.671c58.476,0,69.958-13.238,109.98-18.436   c6.871-0.892,6.985-10.782,0.134-11.822c-13.939-2.115-31.348-3.002-51.041-0.263c0,0-76.102,7.073-114.525-13.704   C275.133,104.149,275.097,142.702,275.097,142.702z"/>
	<path style="fill:#FFE477;" d="M236.903,142.702c-13.788,3.213-30.259,5.671-55.453,5.671c-58.476,0-69.958-13.238-109.98-18.436   c-6.871-0.892-6.985-10.782-0.134-11.822c13.939-2.115,31.348-3.002,51.041-0.263c0,0,76.102,7.073,114.525-13.704   C236.868,104.149,236.903,142.702,236.903,142.702z"/>
</g>
<g>
	<path style="fill:#FFDA44;" d="M181.45,133.501c-52.774,0-67.275-10.781-99.018-16.705c-3.904,0.338-7.607,0.79-11.095,1.319   c-6.851,1.039-6.738,10.93,0.134,11.822c40.022,5.198,51.504,18.436,109.98,18.436c25.195,0,41.665-2.458,55.453-5.671   c0,0-0.006-6.907-0.011-14.87C223.106,131.044,206.638,133.501,181.45,133.501z"/>
	<path style="fill:#FFDA44;" d="M330.55,133.501c52.774,0,67.275-10.781,99.018-16.705c3.904,0.338,7.607,0.79,11.095,1.319   c6.851,1.039,6.738,10.93-0.134,11.822c-40.022,5.198-51.504,18.436-109.98,18.436c-25.195,0-41.665-2.458-55.453-5.671   c0,0,0.006-6.907,0.011-14.87C288.895,131.044,305.363,133.501,330.55,133.501z"/>
</g>
<path style="fill:#FFE477;" d="M302.176,407.162h-28.541v-295.77h-35.27v295.769h-28.541c-9.699,0-17.635,7.936-17.635,17.635  s7.936,17.635,17.635,17.635h92.351c9.699,0,17.635-7.936,17.635-17.635l0,0C319.81,415.097,311.875,407.162,302.176,407.162z"/>
<path style="fill:#FFDA44;" d="M256,111.392h-17.635v295.769h-28.065c-9.831,0-18.241,8.043-18.108,17.873  c0.129,9.591,8.014,17.397,17.633,17.397h0.055c-0.021-0.354-0.054-0.704-0.054-1.063c0-9.699,7.936-17.635,17.635-17.635h16.374  c6.719,0,12.167-5.448,12.167-12.167V111.392H256z"/>
<path style="fill:#FFE477;" d="M238.366,111.392l12.338-37.977c1.667-5.13,8.925-5.13,10.592,0l12.338,37.977H238.366z"/>
<path style="fill:#FFD422;" d="M223.185,113.557l6.128,31.199c0.855,4.353,4.671,7.493,9.107,7.493h35.158  c4.436,0,8.252-3.139,9.107-7.493l6.13-31.199c1.352-6.881-3.916-13.284-10.929-13.284h-43.771  C227.102,100.273,221.834,106.676,223.185,113.557z"/>
<path style="fill:#EEBF00;" d="M249.266,100.273h-15.152c-7.013,0-12.28,6.403-10.929,13.284l6.128,31.199  c0.855,4.353,4.671,7.493,9.107,7.493h21.153c-0.159-0.513-0.302-1.035-0.408-1.573L249.266,100.273z"/>
<path style="fill:#FFD422;" d="M272.681,315.293H239.32c-6.09,0-11.472,3.957-13.288,9.769l-6.36,20.351  c-2.64,8.449-1.106,17.65,4.133,24.785l7.483,10.191c2.797,3.81,7.243,6.061,11.97,6.061h25.49c4.728,0,9.173-2.251,11.97-6.061  l7.483-10.191c5.239-7.135,6.773-16.336,4.133-24.785l-6.36-20.351C284.154,319.25,278.771,315.293,272.681,315.293z"/>
<g>
	<path style="fill:#EEBF00;" d="M239.833,344.955l4.412-29.662h-4.925c-6.09,0-11.472,3.957-13.288,9.769l-6.36,20.351   c-2.64,8.449-1.106,17.65,4.133,24.785l7.483,10.191c2.797,3.81,7.243,6.061,11.97,6.061h5.629l-7.373-22.173   C239.443,358.057,238.868,351.439,239.833,344.955z"/>
	<path style="fill:#EEBF00;" d="M272.168,344.955l-4.412-29.662h4.925c6.09,0,11.472,3.957,13.288,9.769l6.36,20.351   c2.64,8.449,1.106,17.65-4.133,24.785l-7.483,10.191c-2.797,3.81-7.242,6.061-11.97,6.061h-5.629l7.373-22.173   C272.558,358.057,273.133,351.439,272.168,344.955z"/>
	<path style="fill:#EEBF00;" d="M223.803,370.198l7.483,10.191c2.797,3.81,7.242,6.061,11.97,6.061h25.49   c4.728,0,9.173-2.251,11.97-6.061l7.483-10.191c4.126-5.62,5.943-12.521,5.243-19.326h-74.88   C217.86,357.678,219.677,364.579,223.803,370.198z"/>
</g>
<g>
	<path style="fill:#DDB200;" d="M218.56,350.872c-0.7,6.806,1.117,13.707,5.243,19.326l7.483,10.191   c2.797,3.81,7.242,6.061,11.97,6.061h5.629l-7.373-22.173c-1.442-4.334-2.14-8.864-2.116-13.406H218.56V350.872z"/>
	<path style="fill:#DDB200;" d="M293.44,350.872c0.7,6.806-1.117,13.707-5.243,19.326l-7.483,10.191   c-2.797,3.81-7.242,6.061-11.97,6.061h-5.629l7.373-22.173c1.442-4.334,2.14-8.864,2.116-13.406h20.836V350.872z"/>
</g>
<path d="M273.634,241.804c-4.201,0-7.604,3.405-7.604,7.604v9.125c0,4.2,3.404,7.604,7.604,7.604c4.201,0,7.604-3.405,7.604-7.604  v-9.125C281.239,245.208,277.835,241.804,273.634,241.804z"/>
<path d="M510.114,293.752c-2.675-4.857-7.78-7.873-13.324-7.873h-0.136l-50.588-149.823c4.346-2.244,7.225-6.713,7.281-11.897  c0.073-6.832-4.781-12.536-11.542-13.561c-17.464-2.65-35.307-2.753-53.043-0.302c-2.769,0.241-40.882,3.403-75.182-2.203  c-4.159-0.68-8.055,2.134-8.731,6.278c-0.678,4.145,2.133,8.055,6.277,8.732c37.342,6.103,77.509,2.481,79.202,2.324  c0.115-0.011,22.66-2.754,37.419-1.152c-10.022,1.893-18.36,4.242-26.496,6.533c-18.189,5.124-35.37,9.964-70.7,9.964  c-14.714,0-27.218-0.834-38.82-2.6l4.546-23.145c1.084-5.519-0.66-10.933-3.916-15.52c-5.267-7.421-16.814-6.836-16.814-6.836  l-7.018-21.602c-1.769-5.445-6.804-9.103-12.529-9.103c-5.725,0-10.759,3.658-12.527,9.103l-7.018,21.602  c-18.644,0-18.86,9.719-19.549,11.312c-37.278,10.963-90.379,6.6-93.668,6.314c-17.734-2.45-35.577-2.346-53.041,0.302  c-6.761,1.026-11.615,6.729-11.541,13.561c0.054,5,2.738,9.331,6.827,11.646L15.345,284.286H15.21  c-5.544,0-10.649,3.017-13.324,7.873c-2.675,4.857-2.493,10.783,0.469,15.468l7.713,12.191c6.008,9.497,16.306,15.167,27.544,15.167  h11.549c4.2,0,7.604-3.405,7.604-7.604s-3.405-7.604-7.604-7.604H37.613c-5.994,0-11.487-3.025-14.692-8.09l-7.712-12.193  l123.039,0.001l-7.713,12.191c-3.205,5.065-8.697,8.09-14.692,8.09h-43.87c-4.2,0-7.604,3.405-7.604,7.604s3.405,7.604,7.604,7.604  h43.869c11.238,0,21.535-5.67,27.544-15.167l7.714-12.191c2.964-4.685,3.144-10.613,0.469-15.468  c-2.675-4.857-7.78-7.873-13.324-7.873h-0.135L89.72,140.966c5.881,1.373,11.315,2.904,16.905,4.478  c18.383,5.178,37.393,10.533,74.824,10.533c16.405,0,30.298-0.998,43.295-3.118c1.57,2.163,3.641,3.916,6.016,5.131v151.46  c-5.624,2.423-10.066,7.194-11.988,13.343l-6.36,20.351c-3.348,10.711-1.381,22.507,5.26,31.554l7.483,10.191  c1.556,2.12,3.462,3.922,5.605,5.354v9.313h-20.936c-13.917,0-25.239,11.322-25.239,25.239s11.322,25.239,25.239,25.239h92.351  c13.917,0,25.239-11.322,25.239-25.239s-11.322-25.239-25.239-25.239h-20.935v-9.313c2.142-1.433,4.05-3.234,5.606-5.354  l7.482-10.191c6.643-9.046,8.609-20.842,5.26-31.554l-6.359-20.351c-1.922-6.149-6.364-10.92-11.988-13.343v-27.427  c0-4.2-3.404-7.604-7.604-7.604c-4.201,0-7.604,3.405-7.604,7.604v25.666h-20.061V159.853h20.061v66.066  c0,4.2,3.404,7.604,7.604,7.604c4.201,0,7.604-3.405,7.604-7.604v-67.929c2.375-1.216,4.446-2.969,6.016-5.132  c12.995,2.12,26.881,3.119,43.295,3.119c37.432,0,56.441-5.354,74.825-10.533c5.773-1.626,11.383-3.204,17.488-4.611  l-48.974,145.046h-0.136c-5.544,0-10.648,3.016-13.323,7.872c-2.675,4.857-2.495,10.784,0.469,15.469l7.713,12.191  c6.008,9.497,16.306,15.167,27.544,15.167h78.23c11.238,0,21.535-5.67,27.544-15.167l7.714-12.192  C512.609,304.535,512.788,298.608,510.114,293.752z M256,81.724l3.556,10.944h-7.112L256,81.724z M69.125,172.553v111.734H31.398  L69.125,172.553z M84.333,284.286V172.552l37.728,111.734H84.333z M110.75,130.805c-8.136-2.291-16.473-4.641-26.495-6.533  c15.943-1.433,37.305,1.141,37.42,1.152c2.356,0.219,54.419,4.879,94.991-5.605l3.604,18.349  c-11.605,1.766-24.115,2.601-38.82,2.601C146.119,140.768,128.939,135.929,110.75,130.805z M231.386,109.166  c0.396-0.482,1.277-1.289,2.728-1.289h43.771c1.452,0,2.333,0.807,2.728,1.289c0.395,0.482,1.018,1.501,0.738,2.926l-6.128,31.198  c-0.154,0.785-0.847,1.355-1.646,1.355h-35.157c-0.8,0-1.491-0.57-1.646-1.354l-6.128-31.199  C230.368,110.667,230.989,109.646,231.386,109.166z M302.176,414.765c5.531,0,10.031,4.5,10.031,10.031  c0,5.531-4.5,10.031-10.031,10.031h-92.351c-5.531,0-10.031-4.5-10.031-10.031s4.5-10.031,10.031-10.031h28.541  c4.2,0,7.604-3.405,7.604-7.604v-13.106h20.061v13.106c0,4.2,3.404,7.604,7.604,7.604H302.176z M282.068,365.697l-7.482,10.191  c-1.361,1.852-3.545,2.958-5.842,2.958h-25.489c-2.298,0-4.48-1.105-5.841-2.958l-7.483-10.191  c-3.792-5.165-4.914-11.9-3.003-18.016l6.36-20.351c0.828-2.651,3.252-4.434,6.03-4.434h33.362c2.778,0,5.202,1.781,6.031,4.434  l6.359,20.351C286.983,353.798,285.86,360.533,282.068,365.697z M480.603,285.879h-37.728V174.144L480.603,285.879z   M427.667,174.144v111.735H389.94L427.667,174.144z M489.079,313.281c-3.205,5.065-8.697,8.09-14.692,8.09h-78.23  c-5.994,0-11.487-3.024-14.692-8.09l-7.712-12.193l123.04,0.002L489.079,313.281z"/>
<g>
</g>
<g>
</g>
<g>
</g>
<g>
</g>
<g>
</g>
<g>
</g>
<g>
</g>
<g>
</g>
<g>
</g>
<g>
</g>
<g>
</g>
<g>
</g>
<g>
</g>
<g>
</g>
<g>
</g>
</svg>
