<?xml version="1.0" encoding="iso-8859-1"?>
<!-- Generator: Adobe Illustrator 19.0.0, SVG Export Plug-In . SVG Version: 6.00 Build 0)  -->
<svg xmlns="http://www.w3.org/2000/svg" xmlns:xlink="http://www.w3.org/1999/xlink" version="1.1" id="Layer_1" x="0px" y="0px" viewBox="0 0 511.999 511.999" style="enable-background:new 0 0 511.999 511.999;" xml:space="preserve">
<path style="fill:#FF3501;" d="M384.521,178.327c0,0,23.281,36.187,41.487,72.399c4.571,9.092,18.004,7.465,20.25-2.46l8.134-35.947  l40.288-2.612c9.493-0.615,13.657-12.294,6.674-18.753c-16.43-15.199-44.749-35.172-81.384-36.884  C420.061,154.577,384.521,178.327,384.521,178.327z"/>
<path style="fill:#CD2A00;" d="M501.353,190.954c-16.43-15.199-44.749-35.172-81.384-36.884c0.056,0.309-13.077,9.22-23.373,16.153  l35.346,21.212l22.45,20.883l40.288-2.612C504.173,209.092,508.337,197.413,501.353,190.954z"/>
<path style="fill:#FF3501;" d="M157.038,78.684l30.961-35.964c13.51-15.693,34.267-23.116,54.668-19.572  c26.509,4.604,63.584,14.768,93.945,37.172c8.43,6.221,14.52,15.095,17.272,25.204c3.63,13.333,8.485,31.337,8.485,31.337  L157.038,78.684z"/>
<path style="fill:#CD2A00;" d="M275.4,30.836c-11.768-3.538-22.968-5.993-32.733-7.688c-20.403-3.543-41.159,3.879-54.668,19.572  l-30.961,35.964l56.288,10.465l34.36-40.349C255.142,40.141,264.808,34.005,275.4,30.836z"/>
<path style="fill:#FF6D55;" d="M432.402,173.054c-1.907-3.583-4.093-7.431-6.604-11.518c-15.396-25.04-43.621-59.578-86.826-82.328  c-42.54-22.881-100.055-33.99-158.721-15.339c-42.514,13.061-85.633,42.286-114.764,85.991c-0.795,1.721-8.378,19.295,11.513,22.911  c-7.531,26.176,20.567,19.132,20.567,19.132c21.493-3.066,47.138-5.621,73.53-5.617c34.793-1.303,72.001-1.446,114.507-0.5  c36.759,1.206,77.385,3.205,131.48,12.937C429.716,200.995,439.019,185.487,432.402,173.054z"/>
<g>
	<path style="fill:#FF5023;" d="M431.941,191.435c3.095-5.15,3.776-12.151,0.461-18.381c-1.907-3.583-4.093-7.431-6.604-11.518   c-15.395-25.04-43.621-59.578-86.826-82.328c-42.54-22.881-100.055-33.99-158.721-15.339   C137.739,76.93,94.62,106.155,65.489,149.861c-0.795,1.721-8.378,19.295,11.513,22.911   C77.002,172.771,231.181,26.887,431.941,191.435z"/>
	<path style="fill:#FF5023;" d="M346.573,166.155c-4.492-0.388-9.085-0.747-13.651-1.066c-4.216-0.296-7.394-3.953-7.099-8.167   c0.295-4.215,3.927-7.389,8.167-7.099c4.648,0.325,9.326,0.691,13.899,1.086c4.211,0.363,7.494,4.089,6.965,8.283   C353.836,167.257,346.798,166.174,346.573,166.155z"/>
	<path style="fill:#FF5023;" d="M309.087,163.717c-6.76-0.312-13.771-0.583-22.729-0.875l-0.285-0.008   c-4.376-0.097-8.711-0.184-12.977-0.258c-4.226-0.074-7.591-3.56-7.518-7.785c0.073-4.226,3.538-7.57,7.785-7.518   c4.289,0.076,8.649,0.162,13.092,0.261l0.364,0.01c9.068,0.297,16.141,0.569,22.973,0.885c4.222,0.195,7.721,3.793,7.291,7.997   C316.34,163.717,309.207,163.723,309.087,163.717z"/>
</g>
<path style="fill:#FF3501;" d="M201.591,159.022c-13.269-4.343-20.504-18.62-16.161-31.889c4.342-13.269,18.62-20.504,31.889-16.161  c13.269,4.343,40.063,25.023,35.721,38.291C248.696,162.531,214.86,163.364,201.591,159.022z"/>
<path style="fill:#CD2A00;" d="M209.244,138.034c-9.743-3.189-16.226-11.735-17.267-21.304c-2.914,2.783-5.205,6.303-6.546,10.402  c-4.343,13.269,2.893,27.546,16.161,31.889c13.269,4.343,47.105,3.51,51.448-9.759c1.209-3.695,0-7.965-2.656-12.297  C238.123,141.577,218.588,141.093,209.244,138.034z"/>
<circle style="fill:#FFFFFF;" cx="112.946" cy="140.383" r="20.944"/>
<path style="fill:#3E3D42;" d="M112.942,148.036c-2.01,0-3.979-0.816-5.408-2.245c-1.428-1.418-2.245-3.398-2.245-5.408  c0-2.01,0.816-3.989,2.245-5.408c1.428-1.428,3.398-2.245,5.408-2.245c2.02,0,3.989,0.816,5.418,2.245  c1.418,1.418,2.234,3.398,2.234,5.408c0,2.01-0.816,3.989-2.234,5.408C116.931,147.22,114.962,148.036,112.942,148.036z"/>
<path style="fill:#0074E8;" d="M128.275,333.207c0,0-23.281-36.187-41.487-72.399c-4.571-9.092-18.004-7.465-20.25,2.46  l-8.134,35.947l-40.288,2.612c-9.493,0.615-13.657,12.294-6.674,18.753c16.43,15.199,44.749,35.172,81.384,36.884  C92.734,356.957,128.275,333.207,128.275,333.207z"/>
<g>
	<path style="fill:#2488FF;" d="M11.442,320.58c16.43,15.199,44.749,35.172,81.384,36.884c-0.056-0.309,13.077-9.22,23.373-16.153   l-35.346-21.212l-22.45-20.883l-40.288,2.612C8.623,302.443,4.459,314.121,11.442,320.58z"/>
	<path style="fill:#2488FF;" d="M355.758,432.849l-30.961,35.964c-13.51,15.693-34.267,23.116-54.668,19.572   c-26.509-4.604-63.584-14.768-93.945-37.172c-8.43-6.221-14.52-15.095-17.272-25.204c-3.63-13.333-8.485-31.337-8.485-31.337   L355.758,432.849z"/>
</g>
<path style="fill:#0074E8;" d="M237.395,480.698c11.768,3.538,22.968,5.993,32.733,7.688c20.403,3.543,41.159-3.879,54.668-19.572  l30.961-35.964l-56.288-10.465l-34.36,40.348C257.653,471.393,247.988,477.529,237.395,480.698z"/>
<path style="fill:#57A4FF;" d="M80.393,338.479c1.907,3.583,4.093,7.431,6.604,11.518c15.396,25.04,43.621,59.578,86.826,82.328  c42.54,22.881,100.055,33.99,158.721,15.339c42.514-13.061,85.633-42.286,114.764-85.991c0.795-1.721,8.378-19.295-11.513-22.911  c7.531-26.176-20.567-19.132-20.567-19.132c-21.492,3.066-47.138,5.621-73.53,5.617c-34.793,1.303-72.001,1.446-114.507,0.5  c-36.759-1.206-77.385-3.205-131.48-12.937C83.079,310.539,73.777,326.047,80.393,338.479z"/>
<g>
	<path style="fill:#9BC9FF;" d="M80.854,320.1c-3.095,5.15-3.776,12.151-0.461,18.381c1.907,3.583,4.093,7.431,6.604,11.518   c15.395,25.04,43.621,59.578,86.826,82.328c42.54,22.881,100.055,33.99,158.721,15.339c42.514-13.061,85.633-42.286,114.764-85.99   c0.795-1.721,8.378-19.295-11.513-22.911C435.794,338.763,281.615,484.648,80.854,320.1z"/>
	<path style="fill:#9BC9FF;" d="M178.804,361.713c-4.648-0.325-9.326-0.691-13.899-1.086c-4.211-0.363-7.33-4.072-6.965-8.283   c0.363-4.211,4.084-7.33,8.282-6.966c4.492,0.388,9.085,0.747,13.651,1.066c4.216,0.296,7.526,3.964,7.099,8.167   C186.252,361.713,178.987,361.726,178.804,361.713z"/>
	<path style="fill:#9BC9FF;" d="M239.432,364.261c-4.289-0.076-8.649-0.162-13.092-0.261l-0.364-0.01   c-9.068-0.297-16.141-0.569-22.973-0.885c-4.222-0.195-7.487-3.776-7.291-7.997c0.194-4.222,3.81-7.491,7.997-7.291   c6.76,0.312,13.771,0.583,22.729,0.875l0.285,0.008c4.376,0.097,8.711,0.184,12.977,0.258c4.226,0.074,7.805,3.569,7.518,7.785   C246.705,364.261,239.478,364.261,239.432,364.261z"/>
</g>
<path style="fill:#2488FF;" d="M311.205,352.512c13.269,4.343,20.504,18.62,16.161,31.889c-4.342,13.269-18.62,20.504-31.889,16.161  c-13.269-4.343-40.063-25.023-35.72-38.291C264.099,349.005,297.936,348.17,311.205,352.512z"/>
<path style="fill:#0074E8;" d="M303.552,373.499c9.743,3.189,16.226,11.735,17.267,21.304c2.914-2.783,5.205-6.303,6.546-10.402  c4.343-13.269-2.893-27.546-16.161-31.889c-13.269-4.343-47.105-3.51-51.448,9.759c-1.209,3.696,0,7.965,2.656,12.297  C274.673,369.957,294.207,370.441,303.552,373.499z"/>
<circle style="fill:#FFFFFF;" cx="399.853" cy="371.153" r="20.944"/>
<path style="fill:#3E3D42;" d="M399.854,363.498c2.01,0,3.979,0.816,5.408,2.245c1.428,1.418,2.245,3.398,2.245,5.408  s-0.816,3.989-2.245,5.408c-1.428,1.428-3.398,2.245-5.408,2.245c-2.02,0-3.989-0.816-5.418-2.245  c-1.418-1.418-2.234-3.398-2.234-5.408s0.816-3.989,2.234-5.408C395.865,364.314,397.834,363.498,399.854,363.498z"/>
<path d="M219.699,103.698c-3.326-1.089-6.774-1.641-10.248-1.641c-14.274,0-26.85,9.119-31.293,22.694  c-5.648,17.257,3.795,35.893,21.054,41.542c5.297,1.734,12.956,2.729,21.011,2.729c10.344,0,34.954-1.694,40.089-17.381  C267.033,131.107,232.769,107.976,219.699,103.698z M245.766,146.882c-0.939,2.866-10.338,6.837-25.544,6.837  c-6.313,0-12.538-0.755-16.25-1.97c-9.238-3.023-14.293-12.999-11.269-22.236c2.379-7.268,9.11-12.151,16.748-12.151  c1.854,0,3.701,0.297,5.487,0.882c5.065,1.658,14.108,7.031,21.595,14.092C244.378,139.737,246.354,145.09,245.766,146.882z"/>
<path d="M241.357,30.686c3.661,0.637,7.291,1.578,10.912,2.114c4.809,0.712,8.315-2.289,9.085-5.881  c0.885-4.132-1.748-8.2-5.881-9.085c-3.773-0.808-7.641-1.558-11.497-2.227c-4.171-0.727-8.127,2.065-8.85,6.229  C234.405,26.001,237.193,29.963,241.357,30.686z"/>
<path d="M506.039,185.846c-11.132-10.299-29.289-24.27-52.563-32.344c-3.992-1.389-8.353,0.727-9.738,4.721  c-1.385,3.993,0.728,8.353,4.722,9.738c20.771,7.207,37.125,19.814,47.186,29.121c1.33,1.23,1.091,2.646,0.831,3.379  c-0.263,0.742-0.976,2.002-2.804,2.12l-40.287,2.612c-3.383,0.219-6.221,2.639-6.969,5.947l-8.134,35.947  c-0.43,1.899-1.88,2.353-2.707,2.454c-0.835,0.101-2.36,0.012-3.242-1.743c-7.476-14.868-15.78-29.7-23.003-42.07  c1.947,0.336,8.446,1.38,9.714,1.38c0.001,0,0.001,0,0.002,0c7.64,0,14.724-4.196,18.944-11.223  c4.725-7.865,4.976-17.796,0.656-25.914c-2.099-3.943-4.401-7.957-6.841-11.931c-11.082-18.026-34.022-49.409-71.038-73.962  c-0.005-0.017-0.007-0.035-0.011-0.052c-3.187-11.71-10.329-22.133-20.112-29.352c-17.525-12.932-38.906-23.247-63.549-30.658  c-4.046-1.217-8.314,1.076-9.533,5.124c-1.216,4.046,1.078,8.314,5.124,9.532c22.957,6.903,43.568,17.552,61.102,30.104  c-29.093-14.051-61.177-21.465-93.384-21.465c-17.601,0-35.069,2.233-52.038,6.627l4.919-5.714  c7.274-8.448,17.287-14.37,28.197-16.677c4.135-0.873,6.779-4.934,5.904-9.069c-0.873-4.135-4.945-6.776-9.069-5.904  c-14.173,2.996-27.182,10.69-36.63,21.665l-21.537,25.019c-40.652,16.556-76.998,46.048-101.541,82.869  c-0.22,0.331-7.291,9.78-1.079,23.207c1.438,3.106,4.558,6.714,10.158,9.232c-0.544,5.887,0.647,10.806,3.564,14.68  c2.637,3.505,7.94,7.682,18.216,7.682c4.193,0,7.742-0.703,9.001-0.987c25.647-3.646,49.889-5.493,72.116-5.493  c0.096,0,0.192-0.002,0.287-0.005c19.852-0.744,40.224-1.105,62.28-1.105c16.425,0,33.359,0.199,51.69,0.606  c30.53,1.002,63.587,2.55,104.836,8.637c8.216,13.673,19.324,32.885,28.98,52.093c3.202,6.367,8.254,10.787,18.773,10.058  c7.88-0.546,14.033-6.559,15.778-14.267l6.871-30.37l34.582-2.242c7.502-0.487,13.724-5.19,16.237-12.276  C513.412,198.502,511.548,190.942,506.039,185.846z M233.153,178.033c-22.195,0-42.71,0.363-62.709,1.11  c-22.966,0.005-48.018,1.92-74.466,5.694c-0.242,0.035-10.097,2.698-12.498-0.797c-0.699-1.017-1.037-3.773,0.365-8.643  c0.598-2.078,0.288-4.314-0.853-6.15c-1.14-1.838-3.005-3.107-5.133-3.493c-2.489-0.453-5.681-1.423-6.749-3.478  c-1.145-2.204-0.297-6,0.608-8.215c26.075-38.831,66.23-68.834,110.343-82.387c18.905-6.011,38.537-9.058,58.346-9.058  c41.409,0,74.208,12.966,94.492,23.876c44.968,23.678,71.851,60.013,83.87,79.562c2.274,3.704,4.418,7.441,6.369,11.108  c2.165,4.068,1.043,8.14-0.264,10.845c-1.657,3.43-4.59,4.122-6.943,3.698c-54.599-9.851-95.438-11.835-132.665-13.057  C266.738,178.233,249.692,178.033,233.153,178.033z"/>
<path d="M293.096,408.706c3.326,1.089,6.774,1.641,10.248,1.641c14.274,0,26.85-9.119,31.293-22.694  c5.648-17.257-3.795-35.893-21.054-41.542c-5.297-1.734-12.956-2.729-21.011-2.729c-10.344,0-34.954,1.694-40.089,17.381  C245.762,381.298,280.025,404.428,293.096,408.706z M267.029,365.522c0.939-2.866,10.338-6.837,25.544-6.837  c6.313,0,12.538,0.755,16.25,1.97c9.238,3.023,14.293,12.999,11.269,22.236c-2.379,7.268-9.11,12.151-16.748,12.151  c-1.854,0-3.701-0.297-5.487-0.882c-5.065-1.658-14.108-7.031-21.595-14.092C268.418,372.667,266.442,367.315,267.029,365.522z"/>
<path d="M5.96,327.068c11.132,10.299,29.289,24.27,52.563,32.344c3.992,1.389,8.353-0.728,9.738-4.721  c1.385-3.993-0.728-8.353-4.722-9.738c-20.771-7.207-37.125-19.814-47.186-29.121c-1.33-1.23-1.091-2.646-0.831-3.379  c0.263-0.742,0.976-2.002,2.804-2.12l40.287-2.612c3.383-0.219,6.221-2.639,6.969-5.947l8.134-35.947  c0.43-1.899,1.88-2.353,2.707-2.454c0.835-0.101,2.36-0.012,3.242,1.743c7.476,14.868,15.78,29.7,23.003,42.07  c-1.947-0.336-8.446-1.38-9.714-1.38c-0.001,0-0.001,0-0.002,0c-7.64,0-14.724,4.196-18.944,11.223  c-4.725,7.865-4.976,17.796-0.656,25.914c2.099,3.943,4.401,7.957,6.841,11.931c11.082,18.026,34.022,49.409,71.038,73.962  c0.005,0.017,0.007,0.035,0.011,0.052c3.187,11.71,10.329,22.133,20.112,29.352c17.525,12.932,38.906,23.247,63.549,30.658  c4.046,1.217,8.314-1.076,9.533-5.124c1.216-4.046-1.078-8.314-5.124-9.532c-22.957-6.903-43.568-17.552-61.102-30.104  c29.093,14.051,61.177,21.465,93.384,21.465c17.601,0,35.069-2.233,52.038-6.627l-4.919,5.714  c-7.274,8.448-17.287,14.37-28.197,16.677c-4.135,0.873-6.779,4.934-5.904,9.069c0.873,4.135,4.945,6.776,9.069,5.904  c14.173-2.996,27.182-10.69,36.63-21.665l21.537-25.019c40.653-16.556,76.998-46.049,101.542-82.869  c0.22-0.331,7.291-9.78,1.079-23.207c-1.438-3.106-4.558-6.714-10.158-9.232c0.544-5.887-0.647-10.806-3.564-14.68  c-2.637-3.505-7.94-7.682-18.216-7.682c-4.193,0-7.742,0.703-9.001,0.987c-25.647,3.646-49.889,5.493-72.116,5.493  c-0.096,0-0.192,0.002-0.287,0.005c-19.852,0.744-40.224,1.105-62.28,1.105c-16.425,0-33.359-0.199-51.69-0.606  c-30.53-1.002-63.587-2.55-104.836-8.637c-8.216-13.673-19.324-32.885-28.98-52.093c-3.202-6.367-8.254-10.787-18.773-10.058  c-7.88,0.546-14.033,6.559-15.778,14.267l-6.871,30.37l-34.582,2.242c-7.502,0.487-13.724,5.19-16.237,12.276  C-1.413,314.413,0.452,321.973,5.96,327.068z M278.846,334.883c22.195,0,42.71-0.363,62.709-1.11  c22.966-0.005,48.018-1.92,74.466-5.694c0.242-0.035,10.097-2.698,12.498,0.797c0.699,1.017,1.037,3.773-0.365,8.643  c-0.598,2.078-0.288,4.314,0.853,6.15c1.14,1.838,3.005,3.107,5.133,3.493c2.488,0.453,5.681,1.423,6.749,3.478  c1.145,2.204,0.297,6-0.608,8.215c-26.075,38.831-66.23,68.834-110.343,82.387c-18.905,6.011-38.536,9.058-58.346,9.058  c-41.409,0-74.208-12.966-94.491-23.876c-44.968-23.678-71.851-60.013-83.87-79.562c-2.274-3.704-4.418-7.441-6.369-11.108  c-2.165-4.068-1.043-8.14,0.264-10.845c1.657-3.43,4.59-4.122,6.943-3.698c54.599,9.851,95.438,11.835,132.665,13.057  C245.261,334.682,262.307,334.883,278.846,334.883z"/>
<g>
</g>
<g>
</g>
<g>
</g>
<g>
</g>
<g>
</g>
<g>
</g>
<g>
</g>
<g>
</g>
<g>
</g>
<g>
</g>
<g>
</g>
<g>
</g>
<g>
</g>
<g>
</g>
<g>
</g>
</svg>
