<?xml version="1.0" encoding="iso-8859-1"?>
<!-- Generator: Adobe Illustrator 19.0.0, SVG Export Plug-In . SVG Version: 6.00 Build 0)  -->
<svg xmlns="http://www.w3.org/2000/svg" xmlns:xlink="http://www.w3.org/1999/xlink" version="1.1" id="Layer_1" x="0px" y="0px" viewBox="0 0 512 512" style="enable-background:new 0 0 512 512;" xml:space="preserve">
<path style="fill:#FFDE55;" d="M109.35,402.408l6.73,45.556c0.658,4.451-0.83,8.95-4.012,12.132l-40.279,40.28  c-8.339,8.339-22.619,3.487-24.152-8.206l12.742-39.698L109.35,402.408z"/>
<g>
	<path style="fill:#CC7400;" d="M324.172,236.036c19.83,12.334,41.906,28.679,71.291,58.064   c68.204,68.204,66.155,97.035,106.771,149.778c6.974,9.056-4.429,20.723-13.633,13.944c-18.726-13.791-40.065-33.061-59.838-59.225   c0,0-80.513-97.011-149.56-117.594C279.246,281.045,324.172,236.036,324.172,236.036z"/>
	<path style="fill:#CC7400;" d="M276.13,187.994c-12.334-19.83-28.679-41.906-58.064-71.291   C149.861,48.499,121.03,50.547,68.287,9.93c-9.056-6.974-20.723,4.429-13.944,13.633c13.791,18.726,33.061,40.065,59.225,59.838   c0,0,97.011,80.513,117.594,149.56C231.121,232.921,276.13,187.994,276.13,187.994z"/>
</g>
<g>
	<path style="fill:#AA6100;" d="M143.186,81.043C117.102,61.33,97.873,40.061,84.09,21.377C79.033,17.94,73.792,14.17,68.287,9.93   c-9.056-6.973-20.723,4.429-13.944,13.633c13.791,18.726,33.061,40.065,59.225,59.838c0,0,97.011,80.513,117.594,149.56   c-0.02-0.02,10.887-10.927,21.962-21.993C222.87,147.174,143.186,81.043,143.186,81.043z"/>
	<path style="fill:#AA6100;" d="M431.124,368.98c19.713,26.084,40.981,45.313,59.665,59.097c3.438,5.056,7.207,10.298,11.447,15.803   c6.973,9.056-4.429,20.723-13.633,13.944c-18.726-13.791-40.065-33.061-59.838-59.225c0,0-80.513-97.011-149.56-117.594   c0.02,0.02,10.927-10.887,21.993-21.962C364.991,289.296,431.124,368.98,431.124,368.98z"/>
</g>
<path style="fill:#5F4D37;" d="M330.312,257.645l-27.009,27.009c-7.892,7.892-20.805,7.892-28.697,0l-47.094-47.094  c-7.892-7.892-7.892-20.805,0-28.697l27.009-27.009c7.892-7.892,20.805-7.892,28.697,0l47.094,47.094  C338.204,236.84,338.204,249.753,330.312,257.645z"/>
<path style="fill:#554431;" d="M227.512,208.863c-7.892,7.892-7.892,20.805,0,28.697l47.094,47.094  c7.892,7.892,20.805,7.892,28.697,0l15.882-15.882l-75.648-75.933L227.512,208.863z"/>
<path style="fill:#FFE477;" d="M109.758,402.816l-45.556-6.73c-4.451-0.658-8.95,0.83-12.132,4.012l-40.28,40.279  c-8.339,8.339-3.487,22.619,8.206,24.152l40.383-12.057L109.758,402.816z"/>
<path style="fill:#FFC477;" d="M73.249,452.472c-3.553,3.553-9.315,3.553-12.869,0c0,0-6.713-6.713-0.279-13.147l284.256-284.256  l13.147,13.147L73.249,452.472z"/>
<path style="fill:#FFE477;" d="M357.807,154.359c-8.081-8.081-21.307-8.082-29.388,0l-4.276,4.276  c-8.081,8.081-8.081,21.307,0,29.388c8.081,8.081,21.307,8.081,29.388,0l4.276-4.276  C365.889,175.665,365.889,162.441,357.807,154.359z"/>
<path style="fill:#D8D7DA;" d="M409.257,90.169l-106.428,41.357c-8.152,3.168-8.433,14.6-0.446,18.164l41.55,18.542l18.542,41.55  c3.564,7.987,14.997,7.706,18.164-0.446l41.357-106.428C425.098,94.929,417.236,87.068,409.257,90.169z"/>
<path style="fill:#C6C5CA;" d="M409.257,90.169l-106.428,41.357c-8.152,3.168-8.432,14.6-0.446,18.164l41.55,18.542l75.849-75.849  C417.207,89.808,413.247,88.619,409.257,90.169z"/>
<path d="M184.301,95.657c2.824,2.417,5.71,4.956,8.576,7.544c1.455,1.313,6.009,3.424,10.74-0.547  c3.216-2.701,2.569-7.925-0.547-10.74c-2.966-2.679-5.953-5.306-8.879-7.811c-3.19-2.731-7.991-2.357-10.721,0.832  C180.739,88.127,181.112,92.927,184.301,95.657z"/>
<path d="M508.255,439.24c-15.01-19.49-23.87-35.299-33.25-52.036c-15.237-27.188-30.993-55.303-74.169-98.479  c-20.293-20.292-38.539-35.903-57.235-48.973c-0.767-6.119-3.506-11.768-7.917-16.179l-11.394-11.394l10.737-10.737  c1.262,0.169,7.312,1.329,14.568-1.849l5.931,13.29c2.845,6.376,8.946,10.336,15.923,10.337c0.001,0,0.001,0,0.002,0  c7.256,0,13.643-4.369,16.269-11.128l41.359-106.429c2.119-5.454,1.452-11.335-1.832-16.132c-3.281-4.794-8.657-7.658-14.381-7.658  c-2.163,0-4.306,0.407-6.37,1.208L300.067,124.44c-6.583,2.558-10.949,8.774-11.123,15.834c-0.173,7.06,3.883,13.483,10.332,16.361  l13.29,5.931c-1.984,4.858-2.562,10.158-1.744,15.276l-10.435,10.435l-11.801-11.8c-4.537-4.538-10.263-7.175-16.184-7.926  c-16.405-26.781-51.415-59.662-52.619-60.848c-2.994-2.944-7.808-2.907-10.753,0.088c-2.944,2.994-2.906,7.808,0.088,10.753  c1.175,1.156,30.315,28.803,46.721,52.987c-2.412,1.271-4.676,2.919-6.702,4.946l-23.778,23.779  C192.018,139.038,121.534,80.135,118.419,77.55c-0.089-0.074-0.179-0.146-0.273-0.215C96.053,60.637,76.643,41.029,60.46,19.054  c-0.317-0.431-1.162-1.577,0.226-2.935c1.395-1.367,2.57-0.461,2.956-0.164c20.367,15.684,37.405,25.232,53.88,34.466  c16.094,9.019,31.295,17.539,49.786,31.532c3.349,2.536,8.119,1.874,10.651-1.475c2.535-3.349,1.875-8.118-1.475-10.651  c-19.324-14.623-35.695-23.798-51.528-32.672c-16.737-9.38-32.546-18.24-52.036-33.249C65.836-1.55,56.43-0.997,50.049,5.251  c-6.378,6.242-7.131,15.627-1.834,22.821c3.127,4.245,6.369,8.405,9.72,12.477V388.75c-4.21,0.828-8.155,2.88-11.248,5.973  L6.408,435c-5.92,5.92-7.924,14.523-5.231,22.45c2.694,7.927,11.249,15.93,20.989,14.363l26.558-7.929l-8.333,25.96  c-0.343,1.069-0.444,2.2-0.299,3.313c1.089,8.301,6.69,15.132,14.619,17.825c2.329,0.791,14.109,2.95,22.45-5.232l40.279-40.279  c2.943-2.943,4.94-6.659,5.841-10.64h349.079c3.835,3.134,7.742,6.177,11.728,9.113c3.2,2.356,6.831,3.516,10.428,3.515  c4.491,0,8.927-1.808,12.393-5.349C513.158,455.73,513.71,446.323,508.255,439.24z M324.93,234.325  c2.382,2.381,3.692,5.567,3.692,8.972s-1.311,6.591-3.692,8.971l-27.009,27.01c-2.382,2.38-5.567,3.691-8.972,3.691  s-6.591-1.311-8.971-3.691l-11.394-11.394l44.953-44.953L324.93,234.325z M304.15,140.646c0.017-0.68,0.278-1.585,1.427-2.032  l106.429-41.357c0.305-0.119,1.907-0.626,2.654,0.159c1.045,1.098,0.351,2.466,0.244,2.738l-41.359,106.429  c-0.458,1.18-1.392,1.427-2.094,1.427c-0.659,0-1.548-0.23-2.039-1.327l-16.41-36.773l20.505-20.505c2.97-2.97,2.97-7.784,0-10.753  c-2.971-2.97-7.784-2.97-10.754,0l-20.504,20.504l-36.774-16.41C304.35,142.245,304.133,141.328,304.15,140.646z M338.17,173.99  l5.216,11.689c-4.673,1.716-10.127,0.715-13.873-3.031c-3.745-3.745-4.747-9.2-3.031-13.872L338.17,173.99z M320.214,194.747  L67.866,447.096c-0.361,0.362-1.579,1.068-2.532,0.116c-0.95-0.951-0.345-2.027,0.138-2.51l252.319-252.319  C318.104,192.728,319.719,194.316,320.214,194.747z M259.891,187.231c4.948-4.946,12.996-4.948,17.944,0l11.8,11.8l-44.953,44.953  l-11.801-11.8c-2.38-2.38-3.691-5.567-3.691-8.971c0-3.404,1.311-6.591,3.692-8.971L259.891,187.231z M108.83,89.355  c3.498,2.932,77.157,65.137,106.636,124.838c-0.971,2.864-1.482,5.9-1.482,9.019c0,7.467,2.893,14.473,8.145,19.725l11.8,11.801  L95.625,393.042l-22.483-3.321V57.643C84.124,69.078,96.048,79.683,108.83,89.355z M19.657,456.692  c-2.689-0.882-3.736-3.116-4.081-4.134c-0.398-1.171-1.04-4.179,1.586-6.805l40.279-40.279c1.472-1.474,3.585-2.171,5.643-1.866  l19.146,2.829l-27.511,27.511c-3.884,3.884-5.566,8.754-4.846,13.723L19.657,456.692z M122.53,439.625l-0.363-2.454  c-0.613-4.155-4.486-7.024-8.635-6.41c-4.155,0.613-7.024,4.479-6.41,8.634l1.431,9.682c0.305,2.061-0.393,4.171-1.866,5.644  l-40.279,40.279c-2.626,2.625-5.635,1.984-6.804,1.586c-1.011-0.343-3.217-1.375-4.113-4.016l9.603-29.916  c0.567,0.058,6.564,2.16,13.528-4.804l179.211-179.211l11.392,11.394c5.253,5.253,12.258,8.146,19.725,8.146  c3.121,0,6.158-0.512,9.024-1.484c59.644,29.454,121.897,103.137,124.833,106.638c9.848,13.016,20.661,25.146,32.335,36.294H122.53  V439.625z M496.041,451.475c-1.358,1.386-2.501,0.543-2.935,0.226c-33.669-24.703-58.422-57.871-58.495-57.959  c-2.615-3.149-61.506-73.612-122.707-106.941l23.779-23.779c2.003-2.002,3.66-4.261,4.947-6.701  c15.99,11.712,31.902,25.608,49.452,43.157c41.691,41.691,56.247,67.663,71.658,95.161c9.233,16.476,18.781,33.512,34.466,53.88  C496.503,448.905,497.408,450.079,496.041,451.475z"/>
<g>
</g>
<g>
</g>
<g>
</g>
<g>
</g>
<g>
</g>
<g>
</g>
<g>
</g>
<g>
</g>
<g>
</g>
<g>
</g>
<g>
</g>
<g>
</g>
<g>
</g>
<g>
</g>
<g>
</g>
</svg>
