<?xml version="1.0" encoding="iso-8859-1"?>
<!-- Generator: Adobe Illustrator 19.0.0, SVG Export Plug-In . SVG Version: 6.00 Build 0)  -->
<svg xmlns="http://www.w3.org/2000/svg" xmlns:xlink="http://www.w3.org/1999/xlink" version="1.1" id="Layer_1" x="0px" y="0px" viewBox="0 0 512.001 512.001" style="enable-background:new 0 0 512.001 512.001;" xml:space="preserve">
<g>
	<path style="fill:#FFB655;" d="M113.618,95.569l23.862-44.821c2.833-5.321,10.85-3.425,11.046,2.598   c0.467,14.457-3.627,37.523-25.063,66.892C123.893,120.009,113.618,95.569,113.618,95.569z"/>
	<path style="fill:#FFB655;" d="M398.385,95.569l-23.862-44.821c-2.833-5.321-10.85-3.425-11.046,2.598   c-0.467,14.457,3.627,37.523,25.063,66.892C388.11,120.009,398.385,95.569,398.385,95.569z"/>
</g>
<g>
	<path style="fill:#FFA733;" d="M144.494,80.285l-17.965-8.965l-12.909,24.249c0,0,10.275,24.44,9.844,24.67   C134.475,105.151,140.902,91.733,144.494,80.285z"/>
	<path style="fill:#FFA733;" d="M367.509,80.285l17.965-8.965l12.909,24.249c0,0-10.275,24.44-9.844,24.67   C377.528,105.151,371.101,91.733,367.509,80.285z"/>
	<path style="fill:#FFA733;" d="M261.122,206.672L261.122,206.672c-3.69,14.879-18.884,24.034-33.762,20.343l-163.661-40.59   c-14.879-3.69-24.034-18.884-20.343-33.762l0,0c3.69-14.879,18.884-24.034,33.762-20.343l163.661,40.591   C255.658,176.6,264.813,191.794,261.122,206.672z"/>
</g>
<path style="fill:#FFB655;" d="M68.527,82.338c0,0,20.288-56.506,58.475-73.863c7.983-3.628,16.088,4.777,12.096,12.584  c-14.013,27.404-39.405,77.205-39.405,77.205L68.527,82.338z"/>
<path style="fill:#FFA733;" d="M96.062,55.877c-3.981-2.034-8.197-3.419-12.497-4.159c-9.924,16.379-15.039,30.62-15.039,30.62  l31.167,15.926c0,0,7.392-14.498,16.4-32.152L96.062,55.877z"/>
<path style="fill:#FFC477;" d="M87.164,73.29c-12.327-6.299-27.422-1.019-33.109,11.601c-14.922,33.107-32.951,85.508-2.553,101.043  s62.301-29.779,80.389-61.268c6.894-12.003,2.33-27.33-9.997-33.628L87.164,73.29z"/>
<path style="fill:#FFB655;" d="M96.489,78.056l-9.325-4.765c-12.327-6.299-27.422-1.019-33.109,11.601  c-14.921,33.107-32.951,85.508-2.553,101.043c7.15,3.653,14.384,3.939,21.5,1.832C64.27,158.164,96.061,78.824,96.489,78.056z"/>
<path style="fill:#FFA733;" d="M250.418,206.672L250.418,206.672c3.69,14.879,18.884,24.034,33.762,20.343l163.661-40.591  c14.879-3.69,24.034-18.884,20.343-33.762l0,0c-3.69-14.879-18.884-24.034-33.762-20.343L270.761,172.91  C255.882,176.6,246.728,191.794,250.418,206.672z"/>
<path style="fill:#FFB655;" d="M443.476,82.338c0,0-20.288-56.506-58.475-73.863c-7.983-3.628-16.088,4.777-12.096,12.584  c14.013,27.404,39.405,77.205,39.405,77.205L443.476,82.338z"/>
<path style="fill:#FFA733;" d="M415.941,55.877c3.981-2.034,8.197-3.419,12.497-4.159c9.924,16.379,15.039,30.62,15.039,30.62  L412.31,98.265c0,0-7.392-14.498-16.4-32.152L415.941,55.877z"/>
<path style="fill:#FFC477;" d="M424.839,73.29c12.327-6.299,27.422-1.019,33.109,11.601c14.922,33.107,32.951,85.508,2.553,101.043  c-30.398,15.534-62.301-29.779-80.389-61.268c-6.895-12.003-2.33-27.33,9.997-33.628L424.839,73.29z"/>
<path style="fill:#FFB655;" d="M415.515,78.056l9.325-4.765c12.327-6.299,27.422-1.019,33.109,11.601  c14.921,33.107,32.951,85.508,2.553,101.043c-7.15,3.653-14.384,3.939-21.5,1.832C447.733,158.164,415.942,78.824,415.515,78.056z"/>
<path style="fill:#FFA733;" d="M415.733,411.168l-46.656-46.656c-6.499-6.499-17.134-6.499-23.634,0l0,0  c-6.499,6.499-6.499,17.134,0,23.634l46.656,46.656c6.499,6.499,17.134,6.499,23.634,0l0,0  C422.232,428.303,422.232,417.667,415.733,411.168z"/>
<path style="fill:#FFC477;" d="M255.344,392.787h101.474c9.191,0,16.711-7.52,16.711-16.711l0,0c0-9.191-7.52-16.711-16.711-16.711  H255.344c-9.191,0-16.711,7.52-16.711,16.711l0,0C238.633,385.268,246.153,392.787,255.344,392.787z"/>
<path style="fill:#FFA733;" d="M482.938,287.778l-46.656-46.656c-6.499-6.499-17.134-6.499-23.634,0l0,0  c-6.499,6.499-6.499,17.134,0,23.634l46.656,46.656c6.499,6.499,17.134,6.499,23.634,0l0,0  C489.436,304.912,489.436,294.277,482.938,287.778z"/>
<path style="fill:#FFC477;" d="M322.548,269.397h101.474c9.191,0,16.711-7.52,16.711-16.711l0,0c0-9.191-7.52-16.711-16.711-16.711  H322.548c-9.191,0-16.711,7.52-16.711,16.711l0,0C305.837,261.877,313.357,269.397,322.548,269.397z"/>
<path style="fill:#FFA733;" d="M450.47,349.371l-46.656-46.656c-6.499-6.499-17.134-6.499-23.634,0l0,0  c-6.499,6.499-6.499,17.134,0,23.634l46.656,46.656c6.499,6.499,17.134,6.499,23.634,0l0,0  C456.969,366.506,456.969,355.871,450.47,349.371z"/>
<path style="fill:#FFC477;" d="M290.081,330.99h101.474c9.191,0,16.711-7.52,16.711-16.711l0,0c0-9.191-7.52-16.711-16.711-16.711  H290.081c-9.191,0-16.711,7.52-16.711,16.711l0,0C273.37,323.471,280.89,330.99,290.081,330.99z"/>
<g>
	<path style="fill:#FFB655;" d="M367.005,362.873c-2.827-2.189-6.356-3.508-10.186-3.508H255.344   c-9.191,0-16.711,7.52-16.711,16.711l0,0c0,9.191,7.52,16.711,16.711,16.711h90.365   C353.764,383.689,360.917,373.593,367.005,362.873z"/>
	<path style="fill:#FFB655;" d="M389.056,297.568h-98.975c-9.191,0-16.711,7.52-16.711,16.711c0,9.191,7.52,16.711,16.711,16.711   h91.243C385.058,319.976,387.684,308.726,389.056,297.568z"/>
	<path style="fill:#FFB655;" d="M390.168,235.975h-67.619c-9.191,0-16.711,7.52-16.711,16.711l0,0   c0,9.191,7.52,16.711,16.711,16.711h67.619V235.975z"/>
</g>
<path style="fill:#FFA733;" d="M96.27,411.134l46.656-46.656c6.499-6.499,17.134-6.499,23.634,0l0,0  c6.499,6.499,6.499,17.134,0,23.634l-46.656,46.656c-6.499,6.499-17.134,6.499-23.634,0l0,0  C89.771,428.268,89.771,417.633,96.27,411.134z"/>
<path style="fill:#FFC477;" d="M256.659,392.753H155.184c-9.191,0-16.711-7.52-16.711-16.711l0,0c0-9.191,7.52-16.711,16.711-16.711  h101.474c9.191,0,16.711,7.52,16.711,16.711l0,0C273.37,385.233,265.85,392.753,256.659,392.753z"/>
<path style="fill:#FFA733;" d="M29.065,287.744l46.656-46.656c6.499-6.499,17.134-6.499,23.634,0l0,0  c6.499,6.499,6.499,17.134,0,23.634l-46.656,46.656c-6.499,6.499-17.134,6.499-23.634,0l0,0  C22.567,304.878,22.567,294.243,29.065,287.744z"/>
<path style="fill:#FFC477;" d="M189.455,269.364H87.98c-9.191,0-16.711-7.52-16.711-16.711l0,0c0-9.191,7.52-16.711,16.711-16.711  h101.475c9.191,0,16.711,7.52,16.711,16.711l0,0C206.166,261.843,198.646,269.364,189.455,269.364z"/>
<path style="fill:#FFA733;" d="M61.533,349.337l46.656-46.656c6.499-6.499,17.134-6.499,23.634,0l0,0  c6.499,6.499,6.499,17.134,0,23.634L85.165,372.97c-6.499,6.499-17.134,6.499-23.634,0l0,0  C55.034,366.471,55.034,355.836,61.533,349.337z"/>
<path style="fill:#FFC477;" d="M221.922,330.957H120.448c-9.191,0-16.711-7.52-16.711-16.711l0,0c0-9.191,7.52-16.711,16.711-16.711  h101.474c9.191,0,16.711,7.52,16.711,16.711l0,0C238.633,323.436,231.113,330.957,221.922,330.957z"/>
<g>
	<path style="fill:#FFB655;" d="M122.947,297.535h98.975c9.191,0,16.711,7.52,16.711,16.711s-7.52,16.711-16.711,16.711h-91.243   C126.946,319.942,124.319,308.693,122.947,297.535z"/>
	<path style="fill:#FFB655;" d="M256.659,359.331h-98.98c1.37,11.158,3.994,22.407,7.725,33.422h91.254   c9.191,0,16.711-7.52,16.711-16.711C273.37,366.851,265.85,359.331,256.659,359.331z"/>
	<path style="fill:#FFB655;" d="M189.455,235.941h-67.619v33.422h67.619c9.191,0,16.711-7.52,16.711-16.711l0,0   C206.166,243.461,198.646,235.941,189.455,235.941z"/>
</g>
<path style="fill:#CC7400;" d="M384.313,365.332v36.452c0,28.642-23.302,51.944-51.944,51.944s-51.944-23.302-51.944-51.944v-36.452  h-50.672v36.452c0,56.439,46.178,102.616,102.616,102.616l0,0c56.439,0,102.616-46.178,102.616-102.616v-36.452H384.313z"/>
<g>
	<path style="fill:#AA6100;" d="M410.663,365.332v24.323v12.129c0,43.172-35.123,78.294-78.294,78.294s-78.294-35.123-78.294-78.294   v-12.129v-24.323h-24.323v36.452c0,56.439,46.178,102.616,102.616,102.616l0,0c56.439,0,102.616-46.178,102.616-102.616v-36.452   H410.663z"/>
	<path style="fill:#AA6100;" d="M280.424,401.785v-36.452h-50.672v36.452c0,17.978,4.691,34.909,12.9,49.644l46.122-21.453   C283.501,421.85,280.424,412.173,280.424,401.785z"/>
	<path style="fill:#AA6100;" d="M361.801,444.554c-8.373,5.78-18.512,9.175-29.432,9.175c-4.208,0-8.295-0.516-12.215-1.464   l-15.81,48.222c8.916,2.549,18.319,3.915,28.025,3.915l0,0c17.179,0,33.402-4.285,47.667-11.828L361.801,444.554z"/>
	<path style="fill:#AA6100;" d="M384.313,401.785c0,3.803-0.423,7.509-1.202,11.082l45.394,24.701   c4.185-11.155,6.48-23.213,6.48-35.783v-36.452h-50.672V401.785z"/>
</g>
<g>
	<path style="fill:#9A4C00;" d="M410.663,365.332v24.323v12.129c0,8.376-1.337,16.443-3.783,24.015l21.626,11.768   c4.185-11.155,6.48-23.213,6.48-35.783v-36.452H410.663z"/>
	<path style="fill:#9A4C00;" d="M311.928,477.354l-7.584,23.133c8.916,2.549,18.319,3.915,28.025,3.915l0,0   c17.179,0,33.402-4.285,47.667-11.828l-8.704-22.922c-11.483,6.619-24.783,10.427-38.963,10.427   C325.297,480.078,318.449,479.12,311.928,477.354z"/>
	<path style="fill:#9A4C00;" d="M254.074,389.655v-24.323h-24.323v36.452c0,17.978,4.691,34.909,12.9,49.644l22.085-10.272   c-6.765-11.576-10.662-25.023-10.662-39.371V389.655z"/>
	<path style="fill:#9A4C00;" d="M443.803,353.101c1.184-14.836-1.836-39.042-23.889-68.301c-3.079-4.084-9.508-2.488-10.448,2.54   c-1.913,10.244-7.893,24.99-24.38,42.091c-5.635,5.845-10.025,14.793-10.025,24.264c0,18.987,15.392,34.379,34.379,34.379   C441.163,388.074,443.806,353.299,443.803,353.101z"/>
</g>
<path style="fill:#663A00;" d="M419.913,284.801c-1.231-1.633-2.997-2.345-4.734-2.306c6.242,47.303-19.585,98.086-22.322,101.317  c4.917,2.713,10.568,4.262,16.582,4.262c31.724,0,34.367-34.774,34.364-34.973C444.986,338.265,441.965,314.059,419.913,284.801z"/>
<path style="fill:#5F4D37;" d="M256.002,74.133c-57.306,0-103.763,69.873-103.763,127.18v78.567  c0,57.306,46.456,127.18,103.763,127.18s103.763-69.873,103.763-127.18v-78.567C359.764,144.006,313.308,74.133,256.002,74.133z"/>
<path style="fill:#554431;" d="M202.319,275.225v-78.567c0-46.33,30.366-100.866,72.28-120.061  c-6.034-1.603-12.249-2.464-18.597-2.464c-57.306,0-103.763,69.873-103.763,127.18v78.567c0,57.306,46.456,127.18,103.763,127.18  c10.977,0,21.553-2.571,31.483-7.118C239.053,387.074,202.319,326.183,202.319,275.225z"/>
<path style="fill:#6A563D;" d="M256.002,74.133c-57.306,0-103.763,69.873-103.763,127.18v78.567  c0,21.983,6.842,45.811,18.503,66.839H341.26c11.662-21.028,18.504-44.856,18.504-66.839v-78.567  C359.764,144.006,313.308,74.133,256.002,74.133z"/>
<path style="fill:#5F4D37;" d="M202.319,196.657c0-46.33,30.366-100.866,72.28-120.061c-6.034-1.603-12.249-2.464-18.597-2.464  c-57.306,0-103.763,69.873-103.763,127.18v78.567c0,21.983,6.842,45.811,18.503,66.839h52.768  c-13.293-22.118-21.192-47.872-21.192-71.494L202.319,196.657L202.319,196.657z"/>
<path style="fill:#806749;" d="M256.002,74.133c-57.306,0-103.763,69.873-103.763,127.18v78.567c0,1.525,0.04,3.062,0.105,4.604  h207.315c0.065-1.542,0.105-3.078,0.105-4.604v-78.567C359.764,144.006,313.308,74.133,256.002,74.133z"/>
<path style="fill:#6A563D;" d="M202.319,196.657c0-46.33,30.366-100.866,72.28-120.061c-6.034-1.603-12.249-2.464-18.597-2.464  c-57.306,0-103.763,69.873-103.763,127.18v78.567c0,1.525,0.04,3.062,0.105,4.604h50.373c-0.258-3.113-0.398-6.204-0.398-9.259  L202.319,196.657L202.319,196.657z"/>
<path style="fill:#957856;" d="M256.002,74.133c-57.306,0-103.763,69.873-103.763,127.18v9.35h207.525v-9.35  C359.764,144.006,313.308,74.133,256.002,74.133z"/>
<path style="fill:#806749;" d="M274.599,76.596c-6.034-1.603-12.249-2.464-18.597-2.464c-57.306,0-103.763,69.873-103.763,127.18  v9.35h50.079v-14.005C202.319,150.327,232.685,95.792,274.599,76.596z"/>
<circle style="fill:#D1E7F8;" cx="219.109" cy="129.551" r="25.711"/>
<path style="fill:#3E3D42;" d="M219.111,137.151c-1.996,0-3.952-0.811-5.371-2.23c-1.419-1.409-2.23-3.375-2.23-5.371  s0.811-3.963,2.23-5.371c1.419-1.419,3.375-2.23,5.371-2.23c2.007,0,3.963,0.811,5.381,2.23c1.409,1.409,2.219,3.375,2.219,5.371  s-0.811,3.963-2.219,5.371C223.072,136.339,221.117,137.151,219.111,137.151z"/>
<circle style="fill:#D1E7F8;" cx="290.1" cy="129.551" r="25.711"/>
<path style="fill:#3E3D42;" d="M290.105,137.151c-1.996,0-3.952-0.811-5.371-2.23c-1.419-1.409-2.23-3.375-2.23-5.371  s0.811-3.963,2.23-5.371c1.419-1.419,3.375-2.23,5.371-2.23c2.007,0,3.963,0.811,5.381,2.23c1.409,1.409,2.219,3.375,2.219,5.371  s-0.811,3.963-2.219,5.371C294.068,136.339,292.112,137.151,290.105,137.151z"/>
<path d="M34.855,159.816c0.043,0,7.118,0,7.724-7.475c0.415-5.119,0.794-10.949,2.108-17.282c0.853-4.111-1.787-8.134-5.897-8.987  c-4.106-0.855-8.134,1.787-8.987,5.897c-1.508,7.264-2.324,14.035-2.424,20.122C27.312,156.289,30.658,159.747,34.855,159.816z"/>
<path d="M488.312,282.404l-46.686-46.461c-4.432-4.657-10.682-7.568-17.603-7.568h-56.658V214.33l73.672-18.271  c2.244,0.417,12.185,2.156,22.922-3.356c11.401-5.852,24.11-19.536,19.794-51.71c-2.198-16.385-8.548-36.312-18.875-59.224  c-4.013-8.905-11.865-15.326-21.076-17.71c-9.099-18.635-27.801-49.842-55.655-62.503c-6.64-3.019-14.179-1.565-19.207,3.701  c-5.005,5.242-6.105,12.803-2.802,19.263c2.521,4.93,5.413,10.588,8.456,16.55c-2.534-1.067-5.405-1.352-8.286-0.683  c-6.036,1.404-10.227,6.513-10.427,12.715c-0.366,11.321,1.821,29.565,14.237,52.356c-1.828,7.848-0.648,15.943,3.404,22.995  c1.953,3.4,3.9,6.658,5.841,9.806l-24.723,6.131c-5.079-11.583-11.556-22.71-19.222-32.767  c-22.168-29.079-50.371-45.093-79.416-45.093c-29.045,0-57.249,16.014-79.416,45.093c-7.666,10.056-14.143,21.184-19.222,32.767  l-24.724-6.132c1.945-3.152,3.892-6.411,5.843-9.807c4.051-7.053,5.231-15.147,3.404-22.995  c12.416-22.79,14.603-41.035,14.237-52.356c-0.201-6.202-4.391-11.312-10.427-12.715c-2.88-0.67-5.751-0.385-8.285,0.682  c3.043-5.96,5.935-11.617,8.455-16.548c3.303-6.46,2.203-14.021-2.802-19.263c-5.029-5.266-12.567-6.72-19.207-3.701  C96.011,14.214,77.312,45.403,68.209,64.041c-0.879,0.228-12.892-0.488-21.085,17.728c-4.32,9.606-8.002,18.792-10.919,27.316  c-1.359,3.972,0.758,8.293,4.73,9.652c3.974,1.359,8.294-0.759,9.652-4.73c2.765-8.076,6.262-16.821,10.395-25.993  c1.885-4.181,5.308-7.321,9.639-8.841c4.341-1.523,8.986-1.208,13.083,0.886l34.73,17.746c4.096,2.093,7.074,5.674,8.382,10.084  c1.306,4.399,0.767,9.014-1.518,12.99c-15.627,27.206-45.553,70.956-70.339,58.285c-3.998-2.043-6.93-4.931-8.961-8.829  c-1.94-3.724-6.534-5.169-10.253-3.229c-3.723,1.94-5.169,6.53-3.229,10.253c3.491,6.7,8.715,11.862,15.525,15.342  c4.376,2.237,13.017,3.948,22.791,3.323l73.803,18.304v14.01H87.98c-12.9,0-17.633,7.373-17.633,7.373l-46.656,46.656  c-4.579,4.579-7.101,10.684-7.101,17.191s2.522,12.612,7.1,17.191c4.579,4.579,10.684,7.1,17.191,7.1s12.612-2.521,17.191-7.1  l39.787-39.787h46.778c0,0,0.155,9.584,0.442,12.969h-24.633c-11.416,0-17.632,7.373-17.632,7.373l-46.657,46.656  c-9.479,9.48-9.479,24.903,0,34.382c4.579,4.579,10.684,7.101,17.191,7.101c6.507,0,12.612-2.522,17.191-7.101l39.788-39.787h27.819  c2.026,4.476,4.258,8.88,6.691,13.173h-9.653c-13.217,0-17.632,7.373-17.632,7.373l-46.657,46.657  c-4.579,4.579-7.1,10.684-7.1,17.191c0,6.507,2.521,12.612,7.1,17.191c4.74,4.74,10.964,7.109,17.191,7.109  c6.225,0,12.452-2.37,17.191-7.109l39.556-39.555l-0.232-0.232h44.701c14.715,9.364,30.577,14.306,46.7,14.306  c5.995,0,11.952-0.693,17.829-2.031c0.898,4.856,2.385,9.505,4.387,13.874l-32.113,14.936c-2.751-5.912-4.92-12.16-6.405-18.686  c-0.93-4.093-5.003-6.654-9.098-5.725c-4.093,0.931-6.656,5.004-5.725,9.098c5.448,23.942,19.055,45.716,38.314,61.313  c19.556,15.839,44.124,24.562,69.177,24.562c60.774,0,110.217-49.444,110.217-110.217v-16.609c4.95-0.8,9.587-3.123,13.259-6.795  c9.479-9.48,9.479-24.903,0-34.383l-4.627-4.626c-1-10.233-4.036-22.469-10.865-36.161l13.577,13.577  c4.579,4.579,10.684,7.101,17.191,7.101s12.612-2.522,17.191-7.1c4.579-4.579,7.101-10.684,7.101-17.191  C495.413,293.088,492.891,286.983,488.312,282.404z M424.023,243.576c5.024,0,9.111,4.087,9.111,9.111  c0,5.024-4.087,9.11-9.111,9.11h-56.658v-18.221L424.023,243.576L424.023,243.576z M424.111,426.523l-32.621-17.751  c0.27-2.293,0.424-4.622,0.424-6.988v-9.957c5.338,2.463,11.272,3.848,17.525,3.848c6.64,0,12.636-1.28,17.946-3.804v9.915  C427.385,410.339,426.242,418.631,424.111,426.523z M364.729,305.17h26.828c0.89,0,1.757,0.134,2.587,0.382  c-3.245,5.414-7.702,11.409-13.802,17.839h-20.511C361.861,317.347,363.5,311.246,364.729,305.17z M353.841,338.591h16.58  c-1.913,4.876-2.961,10.038-2.961,15.103c0,0.178,0.011,0.355,0.013,0.533c-3.22-1.576-6.835-2.465-10.653-2.465h-9.672  C349.58,347.471,351.813,343.068,353.841,338.591z M337.355,366.966h19.463c5.024,0,9.11,4.087,9.11,9.111s-4.087,9.11-9.11,9.11  h-35.153C326.456,380.498,336.718,367.84,337.355,366.966z M376.713,390.027v11.758c0,2.178-0.165,4.316-0.469,6.411l-9.798-9.798  C370.592,396.602,374.14,393.682,376.713,390.027z M436.226,352.497c-0.003,0.044-0.007,0.088-0.009,0.132  c-0.128,1.553-2.666,27.844-26.777,27.844c-14.766,0-26.778-12.012-26.778-26.777c0-7.961,4.079-15.028,7.897-18.988  c16.212-16.816,22.891-31.737,25.557-42.241C434.559,318.243,437.284,339.234,436.226,352.497z M401.994,285.944  c-0.321,1.721-0.794,3.651-1.467,5.767c-2.837-1.134-5.88-1.743-8.971-1.743H366.92c0.289-3.397,0.445-12.969,0.445-12.969h40.699  C404.977,278.959,402.705,282.136,401.994,285.944z M451.019,88.015c12.892,28.603,30.817,78.481,6.023,91.15  c-3.054,1.561-6.102,2.319-9.319,2.319c-16.901,0-38.572-21.523-61.02-60.604c-2.284-3.978-2.823-8.592-1.518-12.991  c1.308-4.41,4.286-7.99,8.382-10.084l34.731-17.746c2.375-1.214,4.917-1.83,7.553-1.83C442.386,78.229,448.34,82.071,451.019,88.015  z M379.934,15.756c0.823-0.863,1.65-0.485,1.923-0.361c20.777,9.443,36.085,32.212,45.019,48.943  c-1.891,0.557-3.736,1.284-5.495,2.183l-13.269,6.781c-8.59-16.838-20.391-39.964-28.439-55.703  C379.53,17.32,379.15,16.578,379.934,15.756z M384.428,85.528c-1.903,1.169-3.659,2.514-5.249,4.021  c-5.159-11.508-7.258-21.207-7.9-28.718L384.428,85.528z M388.161,151.738c10.567,15.203,20.934,26.567,31.052,34.071  l-51.881,12.867c-0.3-13.008-2.81-26.627-7.21-39.983L388.161,151.738z M308.216,129.55c0,9.986-8.124,18.11-18.11,18.11  c-9.987,0-18.11-8.124-18.11-18.11s8.124-18.11,18.11-18.11C300.092,111.44,308.216,119.563,308.216,129.55z M219.111,111.44  c9.987,0,18.11,8.124,18.11,18.11c0,9.987-8.124,18.11-18.11,18.11c-9.986,0-18.11-8.124-18.11-18.11S209.124,111.44,219.111,111.44  z M186.245,124.14c-0.289,1.761-0.446,3.567-0.446,5.41c0,18.369,14.944,33.312,33.312,33.312s33.312-14.943,33.312-33.312  s-14.943-33.312-33.312-33.312c-2.16,0-4.269,0.214-6.315,0.608c13.618-9.873,28.358-15.114,43.206-15.114  c15.413,0,30.711,5.647,44.758,16.262c-3.347-1.133-6.928-1.757-10.653-1.757c-18.369,0-33.312,14.943-33.312,33.312  c0,18.369,14.943,33.312,33.312,33.312s33.312-14.943,33.312-33.312c0-3.855-0.666-7.555-1.875-11.002  c29.701,35.201,30.621,84.276,30.621,84.276h-27.101c-4.198,0-7.601,3.403-7.601,7.601s3.403,7.601,7.601,7.601h27.101v58.857  H159.84v-58.62h142.979c4.198,0,7.601-3.403,7.601-7.601s-3.403-7.601-7.601-7.601H159.84  C159.84,203.061,158.689,155.26,186.245,124.14z M132.824,89.549c-1.589-1.506-3.345-2.853-5.249-4.021l13.148-24.697  C140.082,68.341,137.982,78.04,132.824,89.549z M85.132,64.329c8.936-16.731,24.243-39.492,45.014-48.934  c0.272-0.124,1.1-0.501,1.923,0.361c0.783,0.821,0.404,1.563,0.261,1.842c-8.049,15.74-19.849,38.865-28.439,55.703l-13.269-6.78  C88.841,65.611,87.003,64.887,85.132,64.329z M123.831,151.736l28.049,6.956c-4.4,13.357-6.91,26.977-7.21,39.983l-51.87-12.865  C95.633,183.721,114.097,169.627,123.831,151.736z M47.323,306.002c-1.708,1.708-3.995,2.648-6.441,2.648s-4.734-0.94-6.441-2.648  c-1.708-1.708-2.648-3.995-2.648-6.441c0-2.446,0.94-4.734,2.648-6.441l31.105-31.105c2.429,5.8,7.044,10.463,12.809,12.959  L47.323,306.002z M87.98,261.763c-5.024,0-9.111-4.087-9.111-9.111s4.087-9.11,9.111-9.11h56.658v18.221H87.98z M79.791,367.595  c-3.552,3.551-9.332,3.552-12.884,0c-3.552-3.552-3.551-9.332,0-12.884l31.105-31.105c2.429,5.8,7.044,10.464,12.809,12.959  L79.791,367.595z M120.447,323.356c-5.024,0-9.11-4.087-9.11-9.11c0-5.024,4.087-9.111,9.11-9.111h26.821  c1.226,6.078,2.864,12.178,4.893,18.221H120.447z M114.529,429.392c-3.552,3.552-9.332,3.552-12.884,0  c-1.708-1.708-2.648-3.995-2.648-6.441s0.94-4.734,2.648-6.441l31.105-31.105c2.429,5.8,7.044,10.464,12.809,12.959L114.529,429.392  z M155.184,385.153c-5.024,0-9.11-4.087-9.11-9.11c0-5.024,4.087-9.111,9.11-9.111h19.44c0.646,0.886,10.902,13.542,15.679,18.221  H155.184z M188.675,360.351c-1.5-1.967-2.944-3.982-4.342-6.032h9.065c4.198,0,7.601-3.403,7.601-7.601s-3.403-7.601-7.601-7.601  h-18.127c-7.799-15.095-12.917-31.373-14.712-47.033h190.885c-1.796,15.66-6.913,31.939-14.712,47.033H215.525  c-4.198,0-7.601,3.403-7.601,7.601s3.403,7.601,7.601,7.601H327.67c-1.398,2.05-2.842,4.065-4.342,6.032  c-19.225,25.219-43.135,39.107-67.326,39.107C231.81,399.459,207.9,385.571,188.675,360.351z M302.646,400.388h44.756l-0.232,0.232  l23.489,23.489c-7.701,13.157-21.976,22.019-38.29,22.019c-22.382,0-40.932-16.671-43.915-38.245  C293.281,405.833,298.019,403.328,302.646,400.388z M253.641,454.7l32.685-15.203c6.361,7.752,14.642,13.862,24.104,17.627  l-11.562,33.426C280.546,483.525,264.673,470.94,253.641,454.7z M313.468,494.839l11.746-33.954  c2.347,0.283,4.732,0.445,7.154,0.445c9.117,0,17.759-2.065,25.491-5.744l12.617,33.228c-11.673,5.131-24.563,7.987-38.109,7.987  C325.935,496.8,319.613,496.114,313.468,494.839z M383.972,481.529l-13.065-34.405c7.292-6.207,13.069-14.136,16.704-23.155  l31.298,17.031C411.352,457.608,399.149,471.673,383.972,481.529z M477.563,306.036c-1.708,1.708-3.995,2.648-6.441,2.648  c-2.446,0-4.734-0.94-6.441-2.648l-31.03-31.03c5.764-2.496,10.38-7.159,12.809-12.959l31.105,31.105  c1.708,1.708,2.648,3.996,2.648,6.441C480.212,302.041,479.27,304.329,477.563,306.036z"/>
<g>
</g>
<g>
</g>
<g>
</g>
<g>
</g>
<g>
</g>
<g>
</g>
<g>
</g>
<g>
</g>
<g>
</g>
<g>
</g>
<g>
</g>
<g>
</g>
<g>
</g>
<g>
</g>
<g>
</g>
</svg>
