<?xml version="1.0" encoding="iso-8859-1"?>
<!-- Generator: Adobe Illustrator 19.0.0, SVG Export Plug-In . SVG Version: 6.00 Build 0)  -->
<svg xmlns="http://www.w3.org/2000/svg" xmlns:xlink="http://www.w3.org/1999/xlink" version="1.1" id="Layer_1" x="0px" y="0px" viewBox="0 0 512 512" style="enable-background:new 0 0 512 512;" xml:space="preserve">
<path style="fill:#9A4C00;" d="M262.312,355.195h-15.923c-33.036,0-60.066,27.03-60.066,60.066l0,0  c0,33.036,27.03,60.066,60.066,60.066h15.923c33.036,0,60.066-27.03,60.066-60.066l0,0  C322.378,382.225,295.349,355.195,262.312,355.195z"/>
<path style="fill:#663A00;" d="M243.514,415.623c0-25.978,16.717-48.233,39.922-56.561c-6.58-2.492-13.698-3.868-21.123-3.868  h-15.923c-33.036,0-60.066,27.029-60.066,60.066s27.029,60.066,60.066,60.066h15.923c7.059,0,13.84-1.243,20.144-3.506  C259.762,463.224,243.514,441.234,243.514,415.623z"/>
<path style="fill:#AA6100;" d="M387.114,166.854c0,0,48.712,4.312,69.952,73.785c3.919,12.818-4.936,25.947-18.284,27.154  c-22.936,2.073-57.175,0.357-78.324-23.095C361.211,244.166,387.114,166.854,387.114,166.854z"/>
<g>
	<path style="fill:#9A4C00;" d="M413.939,177.575c9.559,25.801,9.159,56.043-1.196,90.337c-18.441-1.662-38.247-7.647-52.285-23.215   c0.753-0.531,26.656-77.842,26.656-77.842S399.191,167.927,413.939,177.575z"/>
	<path style="fill:#9A4C00;" d="M427.234,232.354c-8.281-16.353-21.727-32.319-32.146-39.728c0,0-8.302,38.916-10.386,44.939   c6.938,3.671,23.975,5.069,35.588,5.602C425.994,243.428,429.814,237.448,427.234,232.354z"/>
</g>
<path style="fill:#663A00;" d="M420.783,221.223c-0.177,7.059-0.897,14.349-2.156,21.862c-11.521-0.587-27.31-2.021-33.925-5.521  c2.085-6.023,10.386-44.939,10.386-44.939C403.109,198.328,412.912,209.107,420.783,221.223z"/>
<path style="fill:#FFEB99;" d="M333.236,219.837c0,0,247.925-21.999,147.013-176.306c-8.469-12.949-28.592-6.224-27.482,9.209  c3.418,47.554-17.651,103.76-140.214,96.919L333.236,219.837z"/>
<g>
	<path style="fill:#FFE477;" d="M453.019,48.502c2.442-12.314,19.583-16.663,27.23-4.971   c100.912,154.306-147.013,176.306-147.013,176.306l-11.675-39.611C389.752,182.283,486.847,165.892,453.019,48.502z"/>
	<path style="fill:#FFE477;" d="M333.236,219.837l-20.683-70.177c33.744,1.883,59.781-1.02,79.745-7.199   c3.504,3.797,6.715,7.798,9.619,12.006c9.43,13.668,15.331,28.954,17.71,45.772C376.566,215.989,333.236,219.837,333.236,219.837z"/>
</g>
<path style="fill:#FFDA44;" d="M419.625,200.238c-43.059,15.75-86.39,19.597-86.39,19.597l-11.675-39.611  c28.171,0.85,61.267-1.458,88.036-12.725C414.634,177.657,417.976,188.58,419.625,200.238z"/>
<path style="fill:#AA6100;" d="M124.886,166.854c0,0-48.712,4.312-69.952,73.785c-3.919,12.818,4.936,25.947,18.284,27.154  c22.936,2.073,57.175,0.357,78.324-23.095C150.789,244.166,124.886,166.854,124.886,166.854z"/>
<g>
	<path style="fill:#9A4C00;" d="M98.061,177.575c-9.559,25.801-9.159,56.043,1.196,90.337c18.441-1.662,38.247-7.647,52.285-23.215   c-0.753-0.531-26.656-77.842-26.656-77.842S112.809,167.927,98.061,177.575z"/>
	<path style="fill:#9A4C00;" d="M84.766,232.354c8.281-16.353,21.727-32.319,32.146-39.728c0,0,8.302,38.916,10.386,44.939   c-6.938,3.671-23.975,5.069-35.588,5.602C86.006,243.428,82.185,237.448,84.766,232.354z"/>
</g>
<path style="fill:#663A00;" d="M91.217,221.223c0.177,7.059,0.897,14.349,2.156,21.862c11.521-0.587,27.31-2.021,33.925-5.521  c-2.085-6.023-10.386-44.939-10.386-44.939C108.891,198.328,99.088,209.107,91.217,221.223z"/>
<path style="fill:#FFEB99;" d="M178.764,219.837c0,0-247.925-21.999-147.013-176.306c8.469-12.949,28.592-6.224,27.482,9.209  c-3.417,47.554,17.651,103.76,140.214,96.919L178.764,219.837z"/>
<g>
	<path style="fill:#FFE477;" d="M58.981,48.502c-2.442-12.314-19.583-16.663-27.23-4.971   C-69.161,197.838,178.764,219.837,178.764,219.837l11.675-39.611C122.248,182.283,25.152,165.892,58.981,48.502z"/>
	<path style="fill:#FFE477;" d="M178.764,219.837l20.683-70.177c-33.744,1.883-59.781-1.02-79.745-7.199   c-3.504,3.797-6.715,7.798-9.619,12.006c-9.43,13.668-15.331,28.954-17.71,45.772C135.434,215.989,178.764,219.837,178.764,219.837   z"/>
</g>
<path style="fill:#FFDA44;" d="M92.375,200.238c43.059,15.75,86.39,19.597,86.39,19.597l11.675-39.611  c-28.171,0.85-61.267-1.458-88.036-12.725C97.365,177.657,94.024,188.58,92.375,200.238z"/>
<path style="fill:#CC7400;" d="M256,118.414c0,0-188.003-2.474-127.397,157.081c0,2.474,63.08,139.765,63.08,139.765h128.634  c0,0,63.08-137.291,63.08-139.765C444.003,115.941,256,118.414,256,118.414z"/>
<g>
	<path style="fill:#AA6100;" d="M255.866,118.413c-5.607-0.037-186.935-0.012-127.263,157.082c0,2.474,63.08,139.765,63.08,139.765   h66.957c-18.575-40.528-61.784-135.036-61.784-137.195C159.772,180.438,206.429,137.391,255.866,118.413z"/>
	<path style="fill:#AA6100;" d="M298.153,161.603c-13.425-3.231-28.962-5.164-41.579-5.171l-0.385,0.008l-0.768-0.008   c-4.766,0-10.319,0.3-15.979,0.867c-4.179,0.415-7.905-2.631-8.324-6.809c-0.419-4.178,2.63-7.905,6.809-8.324   c6.153-0.615,12.23-0.942,17.575-0.942l0.612,0.006l0.384-0.006c6.607,0,24.241,0.545,45.214,5.594   c4.083,0.982,6.654,5.104,5.613,9.173C305.343,163.741,298.751,161.747,298.153,161.603z"/>
	<path style="fill:#AA6100;" d="M332.083,174.69c-3.265-1.952-6.88-3.795-10.747-5.48c-3.85-1.678-5.612-6.158-3.934-10.009   c1.678-3.85,6.157-5.611,10.009-3.934c4.46,1.944,8.658,4.086,12.477,6.37c3.604,2.154,4.92,6.912,2.624,10.429   C338.457,178.273,333.306,175.421,332.083,174.69z"/>
	<path style="fill:#AA6100;" d="M277.851,328.681H230.85c-33.334,0-60.606,27.272-60.606,60.606l0,0   c0,33.333,27.273,60.606,60.606,60.606h47.001c33.334,0,60.606-27.272,60.606-60.606l0,0   C338.457,355.953,311.185,328.681,277.851,328.681z"/>
</g>
<path style="fill:#9A4C00;" d="M229.445,389.287c0-23.915,10.338-45.526,26.757-60.606h-25.351  c-33.334,0-60.606,27.272-60.606,60.606s27.273,60.606,60.606,60.606h25.351C239.783,434.813,229.445,413.201,229.445,389.287z"/>
<path style="fill:#2D2D30;" d="M232.937,375.699c10.207,6.001,13.617,19.14,7.616,29.347c-6.001,10.207-19.14,13.617-29.347,7.616  c-10.207-6.001-21.437-23.737-15.435-33.944C201.772,368.512,222.729,369.698,232.937,375.699z"/>
<path style="fill:#1D1D1F;" d="M232.937,375.699c-10.207-6-31.166-7.187-37.166,3.019c-1.429,2.429-1.872,5.287-1.594,8.31  c8.598-1.821,19.518,0.042,26.046,3.878c8.195,4.818,11.995,14.237,10.074,23.047c4.15-1.723,7.804-4.736,10.256-8.908  C246.554,394.839,243.144,381.7,232.937,375.699z"/>
<g>
	<path style="fill:#2D2D30;" d="M275.765,375.699c-10.207,6.001-13.617,19.14-7.616,29.347c6.001,10.207,19.14,13.617,29.347,7.616   s21.437-23.737,15.435-33.944C306.93,368.512,285.972,369.698,275.765,375.699z"/>
	<circle style="fill:#2D2D30;" cx="177.46" cy="256.007" r="17.729"/>
	<circle style="fill:#2D2D30;" cx="334.542" cy="256.007" r="17.729"/>
</g>
<path style="fill:#1D1D1F;" d="M275.765,375.699c10.207-6,31.166-7.187,37.166,3.019c1.429,2.429,1.872,5.287,1.594,8.31  c-8.598-1.821-19.518,0.042-26.046,3.878c-8.195,4.818-11.995,14.237-10.074,23.047c-4.15-1.723-7.804-4.736-10.256-8.908  C262.148,394.839,265.558,381.7,275.765,375.699z"/>
<path d="M236.79,369.144c-6.003-3.529-14.513-5.637-22.763-5.637c-11.525,0-20.569,4.14-24.813,11.359  c-8.538,14.524,4.906,36.574,18.137,44.352c4.462,2.623,9.545,4.01,14.699,4.01c10.261,0,19.861-5.49,25.056-14.327  c3.932-6.688,5.024-14.506,3.075-22.014C248.235,379.376,243.477,373.076,236.79,369.144z M233.998,401.193  c-2.476,4.211-7.054,6.827-11.947,6.827c-2.447,0-4.864-0.661-6.992-1.912c-8.304-4.882-15.683-18.519-12.734-23.534  c1.378-2.343,5.971-3.858,11.702-3.858c5.489,0,11.398,1.389,15.055,3.538c3.186,1.873,5.451,4.875,6.379,8.451  C236.39,394.283,235.87,398.007,233.998,401.193z"/>
<path d="M486.612,39.368c-5.736-8.77-16.247-12.414-26.164-9.069c-9.879,3.335-16.014,12.571-15.267,22.986  c3.641,50.663-23.838,80.081-81.647,87.477C321.305,110.658,260.161,110.753,256,110.809c-5.021-0.049-93.582-0.199-130.984,53.262  c-7.158,10.231-11.91,21.677-14.282,34.276c-36.206-10.998-78.652-30.843-91.556-65.087c-8.981-23.831-2.609-52.622,18.938-85.569  c2.922-4.467,7.301-3.413,8.574-2.983c1.259,0.425,5.338,2.22,4.96,7.486c-3.55,49.395,19.204,83.124,65.802,97.542  c4.013,1.242,8.27-1.005,9.512-5.017c1.241-4.012-1.005-8.271-5.017-9.512c-39.606-12.253-58.153-39.816-55.128-81.922  c0.748-10.415-5.387-19.652-15.266-22.986c-9.915-3.346-20.429,0.299-26.164,9.069C1.036,76.605-5.841,110,4.946,138.625  c10.176,27.004,34.855,45.939,62.004,59.098c-8.055,11.476-14.526,25.12-19.287,40.692c-2.538,8.301-1.22,17.187,3.618,24.381  c4.844,7.205,12.591,11.786,21.254,12.569c4.302,0.388,9.241,0.666,14.576,0.666c9.883,0,21.123-0.96,32.174-3.925  c16.402,44.729,11.861,29.075,45.116,101.847c-1.138,4.932-1.759,10.059-1.759,15.331c0,18.691,7.562,35.645,19.78,47.978  c9.366,27.045,35.205,45.666,63.969,45.666h15.923c17.857,0,34.418-6.973,46.715-18.731c3.971,1.196,8.177,1.847,12.534,1.847  c24.005,0,43.534-19.529,43.534-43.534c0-14.957-7.586-28.171-19.109-36.011c-0.103-2.503-0.342-4.987-0.718-7.444  c11.934-26.102,37.13-77.767,47.448-106.95c11.051,2.965,22.29,3.925,32.174,3.925c5.334,0,10.275-0.278,14.576-0.666  c8.663-0.784,16.41-5.365,21.254-12.569c4.837-7.194,6.155-16.08,3.618-24.38c-2.573-8.418-5.68-16.359-9.232-23.602  c-1.849-3.771-6.405-5.329-10.175-3.479c-3.771,1.849-5.328,6.405-3.479,10.175c3.198,6.52,6.004,13.704,8.342,21.351  c1.192,3.9,0.575,8.073-1.694,11.449c-2.277,3.386-5.922,5.54-10.002,5.909c-10.849,0.981-26.162,1.198-40.841-2.633  c0.789-2.89,1.501-5.745,2.127-8.56c7.066,0.956,21.038,1.753,21.276,1.753c5.117,0,9.781-2.528,12.58-6.857  c2.941-4.55,3.233-10.159,0.781-15.003c-3.565-7.038-8.175-14.264-13.334-20.997c35.694-12.878,73.19-34.324,86.369-69.296  C517.841,110,510.964,76.605,486.612,39.368z M110.003,234.038c-6.2,0.813-12.973,1.266-18.336,1.517  c3.886-7.622,9.156-15.507,15.032-22.538c0.786,0.238,1.563,0.465,2.343,0.696C108.805,220.224,109.128,227.002,110.003,234.038z   M73.903,260.22c-4.08-0.369-7.726-2.523-10.002-5.909c-2.27-3.375-2.888-7.547-1.694-11.449  c4.64-15.177,11.007-28.209,18.955-38.832c3.386,1.376,6.778,2.672,10.154,3.89c-5.159,6.732-9.769,13.958-13.334,20.998  c-2.453,4.844-2.162,10.453,0.781,15.003c2.799,4.33,7.462,6.857,12.58,6.857c0.237,0,14.211-0.797,21.276-1.753  c0.628,2.816,1.338,5.671,2.127,8.56C100.065,261.417,84.752,261.201,73.903,260.22z M262.312,467.723h-15.923  c-12.84,0-24.927-4.792-34.261-12.859c5.954,1.702,12.229,2.634,18.722,2.634h47.001c5.354,0,10.56-0.64,15.562-1.812  c0.378,0.321,0.762,0.635,1.152,0.944C285.569,463.657,274.316,467.723,262.312,467.723z M280.972,406.788  c-2.581-1.162-4.798-3.094-6.268-5.597c-1.873-3.186-2.393-6.91-1.465-10.487c0.928-3.577,3.194-6.578,6.379-8.451  c3.657-2.149,9.567-3.538,15.055-3.538c5.176,0,9.415,1.237,11.204,3.202C294.485,386.333,285.4,395.403,280.972,406.788z   M319.887,450.785c2.582-4.19,4.728-8.715,6.387-13.513c8.592-8.67,14.869-19.628,17.846-31.866  c3.617,4.756,5.951,10.686,5.767,17.106C349.024,452.698,320.441,450.818,319.887,450.785z M338.276,357.764  c-3.863-7.369-9.079-14.066-15.485-19.696c-3.154-2.772-7.959-2.463-10.731,0.691c-2.772,3.154-2.463,7.959,0.691,10.731  c11.505,10.111,18.102,24.616,18.102,39.795c0,22.078-13.574,41.039-32.81,48.996c-3.035-4.511-4.808-9.937-4.808-15.77  c0-0.021,0.003-0.043,0.003-0.064c2.836-0.664,5.575-1.741,8.111-3.231c6.352-3.734,12.751-10.808,16.7-18.463  c5.021-9.731,5.532-18.926,1.437-25.89c-4.243-7.219-13.287-11.359-24.813-11.359c-8.25,0-16.76,2.108-22.763,5.637  c-6.688,3.931-11.445,10.232-13.392,17.741c-1.948,7.509-0.857,15.328,3.075,22.014c3.699,6.291,9.634,10.872,16.447,12.998  c-0.003,0.206-0.496,8.748,4.639,20.161c-1.592,0.145-3.2,0.23-4.828,0.23H230.85c-29.225,0-53.002-23.777-53.002-53.002  c0-29.225,23.777-53.002,53.002-53.002h23.5c4.2,0,7.604-3.405,7.604-7.604c0-4.2-3.405-7.604-7.604-7.604h-23.5  c-24.901,0-46.718,13.419-58.627,33.398c-28.063-61.516-36.511-81.68-36.511-81.68c-15.916-41.903-15.331-75.536,1.74-99.969  c33.032-47.274,117.611-46.83,118.448-46.808l0.1,0.001l0.1-0.001c0.845-0.026,85.3-0.571,118.423,46.773  c17.096,24.436,17.689,58.082,1.765,100.005C376.288,272.795,367.581,293.556,338.276,357.764z M420.331,235.556  c-5.354-0.25-12.13-0.704-18.335-1.518c0.876-7.036,1.198-13.814,0.961-20.325c0.78-0.23,1.557-0.457,2.343-0.696  C411.17,220.042,416.438,227.922,420.331,235.556z M492.822,133.262c-12.905,34.243-55.351,54.089-91.556,65.087  c-2.371-12.601-7.125-24.046-14.282-34.276c-2.586-3.697-5.425-7.129-8.457-10.331c30.005-5.948,52.131-18.402,65.875-37.131  c12.436-16.946,17.802-38.619,15.947-64.415c-0.378-5.265,3.701-7.061,4.961-7.486c1.272-0.429,5.652-1.483,8.573,2.983  C495.431,80.641,501.803,109.431,492.822,133.262z"/>
<path d="M300.08,324.816c-7.148-2.481-14.626-3.739-22.227-3.739c-4.2,0-7.604,3.405-7.604,7.604c0,4.2,3.405,7.604,7.604,7.604  c5.9,0,11.522,1.602,17.24,2.898c6.532,1.48,8.587-1.548,9.678-4.69C306.146,330.525,304.047,326.192,300.08,324.816z"/>
<g>
</g>
<g>
</g>
<g>
</g>
<g>
</g>
<g>
</g>
<g>
</g>
<g>
</g>
<g>
</g>
<g>
</g>
<g>
</g>
<g>
</g>
<g>
</g>
<g>
</g>
<g>
</g>
<g>
</g>
</svg>
