<?xml version="1.0" encoding="iso-8859-1"?>
<!-- Generator: Adobe Illustrator 19.0.0, SVG Export Plug-In . SVG Version: 6.00 Build 0)  -->
<svg xmlns="http://www.w3.org/2000/svg" xmlns:xlink="http://www.w3.org/1999/xlink" version="1.1" id="Layer_1" x="0px" y="0px" viewBox="0 0 512 512" style="enable-background:new 0 0 512 512;" xml:space="preserve">
<path style="fill:#FF5023;" d="M48.824,213.044c0,0,0,96.563,0.508,177.115c0.265,41.892,36.366,75.238,76.416,87.528  c54.334,16.674,144.39,27.16,258.757-21.432L257.417,140.823L48.824,213.044z"/>
<path style="fill:#FF3501;" d="M384.504,456.254L257.416,140.822l-125.074,43.305l30.046,208.618c0,0,11.042,56.869,69.341,98.723  C275.524,490.201,326.931,480.715,384.504,456.254z"/>
<circle style="fill:#FFC477;" cx="48.828" cy="254.267" r="41.22"/>
<path style="fill:#FFB655;" d="M48.824,273.486c-10.599,0-19.223-8.623-19.223-19.222c0-10.599,8.624-19.222,19.223-19.222  s19.222,8.623,19.222,19.222C68.045,264.863,59.424,273.486,48.824,273.486z"/>
<path style="fill:#FFDAAA;" d="M176.402,59.557L176.402,59.557c-70.168,0-127.578,57.41-127.578,127.578V292.91  c0,70.169,57.41,127.579,127.578,127.579l0,0c70.168,0,127.578-57.41,127.578-127.578V187.135  C303.981,116.968,246.571,59.557,176.402,59.557z"/>
<path style="fill:#FFC477;" d="M303.981,187.135c0-70.168-57.41-127.578-127.578-127.578l0,0c-26.616,0-51.392,8.266-71.899,22.35  c-1.133,4.789-2.036,9.734-2.686,14.83c-5.168,40.503,8.56,64.501,31.522,99.753c5.062,10.177,6.741,18.448,8.848,28.825  c3.696,18.207,7.884,38.844,29.792,67.777c21.91,28.935,40.68,38.478,57.161,47.052c27.874,14.502,42.053,35.441,43.027,36.821  c19.777-22.491,31.814-51.933,31.814-84.053V187.135H303.981z"/>
<path style="fill:#FFB655;" d="M176.402,246.41c-11.292,0-20.531,9.238-20.531,20.531v20.531c0,11.292,9.239,20.531,20.531,20.531  c11.291,0,20.531-9.239,20.531-20.531V266.94C196.933,255.649,187.695,246.41,176.402,246.41z"/>
<path style="fill:#FFA733;" d="M171.98,293.091c3.888,5.134,7.673,9.65,11.366,13.67c7.897-2.865,13.588-10.435,13.588-19.29V266.94  c0-11.292-9.239-20.531-20.531-20.531c-11.292,0-20.531,9.238-20.531,20.531v0.812C159.813,275.483,164.992,283.864,171.98,293.091z  "/>
<circle style="fill:#47821C;" cx="114.161" cy="235.044" r="17.084"/>
<path style="fill:#FF5023;" d="M145.081,338.15c0,0-10.464,48.066,31.321,48.066s31.321-48.066,31.321-48.066H145.081z"/>
<path style="fill:#FF3501;" d="M176.402,330.001c0,0-19.005-7.654-31.321,11.083c0.72,0.431,31.321,18.736,31.321,18.736  s30.601-18.305,31.321-18.736C195.407,322.347,176.402,330.001,176.402,330.001z"/>
<g>
	<path style="fill:#CD2A00;" d="M145.079,338.15c0,0-10.31,47.392,30.468,48.05c-12.768-17.922-7.829-37.38-3.322-48.05H145.079z"/>
	<path style="fill:#CD2A00;" d="M145.081,341.083c0.468,0.28,13.567,8.115,22.675,13.563c1.681-14.104,8.646-24.646,8.646-24.646   S157.397,322.347,145.081,341.083z"/>
</g>
<path style="fill:#FF5023;" d="M176.402,59.557L176.402,59.557c-70.168,0-127.578,57.41-127.578,127.578v25.908  c23.971-4.052,33.699-38.388,48.396-45.968c34.002-17.536,50.824,7.684,65.184-19.04l23.736-88.109  C182.925,59.682,179.678,59.557,176.402,59.557z"/>
<path style="fill:#FF3501;" d="M176.402,59.557L176.402,59.557c-26.616,0-51.392,8.266-71.899,22.35  c-1.133,4.789-2.036,9.734-2.686,14.83c-3.307,25.92,1.133,45.081,10.771,64.757c24.068-5.087,37.804,8.896,49.815-13.457  l23.736-88.109C182.925,59.682,179.678,59.557,176.402,59.557z"/>
<path style="fill:#FF6243;" d="M474.236,290.749c-36.849-48.663-60.232-30.957-97.08-79.621  c-36.715-48.487-17.883-62.186-49.927-114.512c-25.562-39.785-51.215-69.669-96.778-75.481  c-55.435-7.073-96.418,23.374-103.49,78.809c-4.09,32.056,6.282,50.011,28.367,83.862c17.491,34.003,5.85,53.034,36.859,93.985  c36.849,48.663,60.232,30.957,97.08,79.621c19.242,25.411,22.061,42.382,25.607,59.726c6.449,31.535,39.349,50.03,69.63,39.117  l84.939-30.613c25.683-9.256,40.22-36.607,33.184-62.984C496.722,340.516,497.922,322.028,474.236,290.749z"/>
<g>
	<path style="fill:#FF5023;" d="M394.259,397.371c-3.91-19.12-7.017-37.827-28.229-65.841   c-40.621-53.646-66.398-34.127-107.02-87.773c-34.183-45.143-21.351-66.123-40.633-103.608   c-24.347-37.316-35.78-57.109-31.272-92.447c1.153-9.037,3.129-17.466,5.848-25.252c-35.813,7.87-60.636,35.504-65.992,77.494   c-4.09,32.056,6.282,50.011,28.367,83.862c17.491,34.003,5.85,53.034,36.859,93.985c36.849,48.663,60.232,30.957,97.08,79.621   c19.242,25.411,22.061,42.382,25.607,59.726c6.449,31.535,39.349,50.03,69.63,39.117l45.454-16.381   C412.4,432.929,398.394,417.59,394.259,397.371z"/>
	<path style="fill:#FF5023;" d="M370.661,260.139c-4.391-3.339-8.215-7.692-12.145-11.992c-2.833-3.1-2.617-7.91,0.484-10.743   c3.1-2.833,7.91-2.617,10.743,0.483c3.57,3.907,7.273,7.563,11.004,10.869c3.144,2.785,3.434,7.591,0.65,10.734   C379.893,261.186,375.383,263.73,370.661,260.139z"/>
	<path style="fill:#FF5023;" d="M443.925,313.701c-13.195-17.426-22.111-22.009-35.606-28.945   c-5.203-2.674-11.095-5.703-17.332-9.545c-3.576-2.203-4.689-6.887-2.486-10.463s6.887-4.689,10.462-2.485   c5.735,3.533,11.108,6.294,16.304,8.965c14.247,7.322,25.496,13.105,40.783,33.292c2.535,3.348,1.819,8.043-1.472,10.653   C450.409,318.479,445.422,315.676,443.925,313.701z"/>
</g>
<circle style="fill:#663A00;" cx="114.161" cy="235.044" r="17.084"/>
<path d="M217.827,335.04c-1.691-2.829-4.931-4.151-7.99-3.551c-10.918-11.705-25.058-11.784-33.434-9.49  c-8.374-2.293-22.515-2.214-33.433,9.49c-3.059-0.601-6.299,0.722-7.991,3.551c-1.927,3.223-1.186,7.293,1.568,9.66  c-0.766,9.853-0.137,26.154,10.043,37.438c6.994,7.752,17.025,11.682,29.813,11.682c12.693,0,22.672-3.874,29.661-11.514  c10.423-11.396,10.935-28.1,10.195-37.605C219.013,342.332,219.754,338.263,217.827,335.04z M173.561,337.054l2.69,1.204  l2.922-1.177c1.097-0.417,9.139-3.163,16.657,2.255l-19.429,11.622l-19.43-11.623C164.487,333.917,172.518,336.659,173.561,337.054z   M176.402,378.611c-8.419,0-14.477-2.179-18.521-6.662c-4.397-4.874-5.884-11.994-6.247-18.086l20.865,12.482  c1.202,0.719,2.553,1.078,3.903,1.078c1.35,0,2.702-0.359,3.903-1.078l20.887-12.494c-0.356,6.227-1.885,13.307-6.351,18.19  C190.797,376.462,184.765,378.611,176.402,378.611z"/>
<path d="M509.975,360.698c-1.252-4.695-2.165-9.189-3.13-13.945c-3.48-17.15-7.077-34.882-26.547-60.595  c-19.47-25.713-35.563-33.984-51.127-41.983c-14.695-7.553-28.576-14.687-45.954-37.638c-18.553-24.501-22.056-39.114-26.113-56.034  c-3.633-15.147-7.749-32.316-23.392-57.859l-0.087-0.139c-16.378-25.493-35.241-51.135-62.128-66.023  c-3.675-2.034-8.302-0.705-10.335,2.97c-2.034,3.674-0.705,8.302,2.97,10.335c23.916,13.242,41.365,37.075,56.657,60.871  c14.347,23.447,17.998,38.67,21.527,53.391c4.27,17.809,8.304,34.63,28.777,61.668c19.47,25.713,35.563,33.984,51.127,41.983  c14.695,7.553,28.576,14.687,45.954,37.638c17.379,22.951,20.481,38.245,23.767,54.437c0.967,4.769,1.968,9.701,3.339,14.841  c5.953,22.32-6.527,45.983-28.415,53.871L381.926,449.1c-12.346,4.45-25.99,3.316-37.434-3.108  c-11.455-6.431-19.535-17.504-22.168-30.379c0,0-3.21-31.994-26.994-62.794c-19.713-25.527-35.563-33.984-51.126-41.983  c-14.696-7.553-28.576-14.687-45.954-37.638c-17.379-22.951-20.922-38.163-23.769-54.439c-4.15-23.72-12.784-39.111-12.784-39.111  c-21.036-32.243-30.98-49.059-27.193-78.744c5.501-43.123,33.16-70.404,73.989-72.977c4.191-0.265,7.375-3.876,7.111-8.067  c-0.264-4.191-3.878-7.365-8.067-7.111c-23.523,1.483-44.097,10.162-59.501,25.098c-6.455,6.26-11.921,13.581-16.352,21.771  c-54.168,19.118-90.463,70.155-90.463,127.515v18.899C17.898,209.699,0,229.928,0,254.264c0,24.381,17.966,44.645,41.353,48.252  c0.088,32.86,0.214,62.333,0.374,87.691c0.136,21.598,8.894,42.345,25.326,59.998c14.642,15.73,34.694,28.072,56.462,34.751  c25.689,7.883,58.677,14.309,97.953,14.309c46.882,0,102.723-9.158,165.788-35.92l84.764-30.549  c14.224-5.127,25.948-15.309,33.007-28.673C512.111,390.715,513.869,375.293,509.975,360.698z M189.389,286.564  c-0.035,0.298-0.059,0.6-0.059,0.908c0,7.127-5.799,12.927-12.927,12.927s-12.927-5.799-12.927-12.927v-20.531  c0-4.635,2.509-8.816,6.338-11.103c3.689,7.949,8.824,16.654,16.311,26.543C187.224,283.831,188.31,285.22,189.389,286.564z   M15.208,254.264c0-15.92,11.128-29.281,26.012-32.738v65.476C26.336,283.544,15.208,270.184,15.208,254.264z M127.978,470.417  c-34.038-10.446-70.789-40.031-71.042-80.306c-0.068-10.727-0.129-22.201-0.185-34.347c22.663,42.969,67.789,72.33,119.651,72.33  c38.728,0,75.716-16.804,101.481-46.102c2.773-3.153,2.466-7.959-0.688-10.731c-3.154-2.775-7.96-2.465-10.732,0.688  c-22.878,26.016-55.704,40.937-90.061,40.937c-64.387,0-117.083-50.986-119.852-114.702c-0.002-0.907-0.123-111.047-0.123-111.047  c0-46.075,26.403-87.555,67.072-107.6c-1.838,6.175-3.218,12.665-4.083,19.447c-2.723,21.346,0.53,36.971,8.596,53.756  c-9.169-0.353-20.598,0.524-34.279,7.581c-7.565,3.901-13.244,12.076-19.256,20.73c-3.009,4.331-6.121,8.809-9.467,12.733  c-2.725,3.195-2.345,7.994,0.85,10.721c1.433,1.222,7.391,3.212,10.721-0.85c3.747-4.572,7.166-9.291,10.387-13.926  c4.687-6.746,9.78-13.3,13.737-15.89c16.777-10.984,35.125-5.311,35.982-5.247c3.558,5.92,7.583,12.183,12.054,19.037  c6.481,12.709,8.597,23.131,10.834,34.16c1.296,6.383,2.61,12.849,4.75,19.775c-9.592,4.594-16.058,14.399-16.058,25.379v20.531  c0,15.513,12.622,28.135,28.135,28.135c10.99,0,20.522-6.338,25.15-15.547c12.895,12.579,24.436,18.515,35.698,24.303  c14.695,7.553,28.98,14.387,45.953,37.639c20.776,28.461,24.22,56.659,24.22,56.659c3.518,17.203,14.315,32,29.623,40.593  c2.623,1.472,5.334,2.729,8.105,3.785C250.644,494.49,175.947,485.136,127.978,470.417z"/>
<path d="M229.488,28.678c5.212,0.665,10.278,1.718,15.078,3.053c4.844,1.346,8.441-1.893,9.391-5.239  c1.147-4.04-1.198-8.245-5.239-9.391c-5.52-1.566-11.343-2.748-17.306-3.508c-4.172-0.54-7.974,2.414-8.505,6.58  C222.376,24.339,225.322,28.147,229.488,28.678z"/>
<g>
</g>
<g>
</g>
<g>
</g>
<g>
</g>
<g>
</g>
<g>
</g>
<g>
</g>
<g>
</g>
<g>
</g>
<g>
</g>
<g>
</g>
<g>
</g>
<g>
</g>
<g>
</g>
<g>
</g>
</svg>
