<?xml version="1.0" encoding="iso-8859-1"?>
<!-- Generator: Adobe Illustrator 19.0.0, SVG Export Plug-In . SVG Version: 6.00 Build 0)  -->
<svg xmlns="http://www.w3.org/2000/svg" xmlns:xlink="http://www.w3.org/1999/xlink" version="1.1" id="Layer_1" x="0px" y="0px" viewBox="0 0 512 512" style="enable-background:new 0 0 512 512;" xml:space="preserve">
<path style="fill:#D8D8D8;" d="M252.217,34.823c-71.475,1.174-134.69,36.273-174.247,89.904  c-57.838,77.717-56.953,185.773,0.001,262.301c49.369,66.932,130.235,98.942,208.789,87.795  c102.135-14.267,183.074-98.753,189.699-205.121C484.48,138.689,378.763,32.375,252.217,34.823z"/>
<path style="fill:#D3CFC9;" d="M279.434,470.533c-120.336,0-217.886-97.551-217.886-217.887  c0-119.533,94.329-210.686,204.23-217.652c-4.492-0.189-9.011-0.258-13.56-0.17c-71.475,1.174-134.69,36.273-174.247,89.904  C20.134,202.445,21.018,310.5,77.973,387.029c49.369,66.932,130.235,98.942,208.789,87.795c13.673-1.91,26.962-5.09,39.747-9.4  C311.347,468.762,295.598,470.533,279.434,470.533z"/>
<path style="fill:#F2F2F2;" d="M293.431,37.915c-83.128,133.544-26.45,312.111,121.104,371.916  c35.469-36.549,58.518-85.446,61.925-140.127C483.59,153.222,400.815,56.271,293.431,37.915z"/>
<path style="fill:#E86B2C;" d="M284.104,156.576c0.228,0.411,4.14,7.947,4.14,8.418c5.46,12.532,7.738,24.166,8.408,36.563  c0,0,0,0,0,0.004c4.942,45.853,31.556,40.982,31.556,40.982c1.898-3.29,2.395-4.325,3.87-5.937l-41.686,72.197  c0.666-2.083,1.282-2.978,3.207-6.315c0,0-9.09-25.483-51.268-6.84c-0.001,0.002-0.001,0.002-0.003,0.002  c-26.15,14.075-53.81,11.559-51.641,11.559c-75.112-3.33-122.138-85.651-83.615-152.375  C147.205,85.321,247.472,88.945,284.104,156.576z"/>
<path style="fill:#D35720;" d="M129.738,154.834c16.789-29.079,45.776-46.716,76.765-50.195  c-38.938-4.378-78.586,14.091-99.43,50.195c-41.85,72.487,17.264,160.846,99.296,151.827  C134.124,298.539,92.96,218.537,129.738,154.834z"/>
<path style="fill:#ED7743;" d="M328.208,242.543c0,0-26.613,4.87-31.556-40.982c0-0.004,0-0.004,0-0.004  c-0.669-12.389-3.015-24.236-8.408-36.559c0-1.003-10.103-23.253-29.123-38.282c-9.949,54.672-2.304,113.352,25.609,165.901  c6.787,4.039,8.87,9.871,8.87,9.871l-1.652,2.859c0.075,0.123,0.152,0.244,0.229,0.369l39.902-69.11  C330.604,238.217,330.108,239.249,328.208,242.543z"/>
<path style="fill:#F97D46;" d="M203.018,104.305l-91.73,158.882c13.752,20.064,34.194,33.999,55.626,40.124l98.667-170.895  C248.686,116.195,226.595,106.131,203.018,104.305z"/>
<g>
	<path style="fill:#E56F41;" d="M202.514,105.176c1.321-0.201,2.647-0.387,3.976-0.535c-0.166-0.025-1.892-0.209-3.476-0.33   L202.514,105.176z"/>
	<path style="fill:#E56F41;" d="M171.158,295.959c-22.546-11.703-39.174-30.573-48.04-53.264l-11.83,20.492   c13.601,19.812,33.733,33.867,55.626,40.124L171.158,295.959z"/>
</g>
<path style="fill:#EFA726;" d="M262.069,186.023l19.499-33.777c-4.01-6.636-9.352-13.402-15.989-19.831l-98.667,170.895  c8.248,2.342,16.298,3.704,25.166,3.933l56.534-97.919"/>
<path style="fill:#DB8D0F;" d="M193.712,304.416c-7.682-1.878-14.945-4.533-22.555-8.457l-4.244,7.352  c8.248,2.342,16.298,3.704,25.166,3.933L193.712,304.416z"/>
<path style="fill:#F4AF40;" d="M256.066,196.417c7.738-13.398,2.62-4.532,25.503-44.171c-4.01-6.636-9.352-13.402-15.989-19.831  l-9.484,16.425C254.606,164.875,254.596,180.367,256.066,196.417z"/>
<path style="fill:#EFA726;" d="M228.843,109.775c-8.458-2.986-17.138-4.798-25.826-5.471l-91.73,158.882  c4.927,7.187,10.833,13.796,17.651,19.629C213.725,135.963,179.452,195.323,228.843,109.775z"/>
<g>
	<path style="fill:#DB8D0F;" d="M123.118,242.696l-11.83,20.492c4.919,7.159,10.767,13.743,17.651,19.629l8.544-14.801   C131.456,260.253,126.642,251.714,123.118,242.696z"/>
	<path style="fill:#DB8D0F;" d="M203.014,104.311l-0.499,0.866c1.325-0.201,2.655-0.387,3.989-0.537   C205.341,104.51,204.178,104.401,203.014,104.311z"/>
</g>
<path style="fill:#6AD3EF;" d="M351.117,331.46c-1.812,0-0.135-1.522-25.484,32.045c-18.38,24.334,4.941,58.744,34.633,49.856  c21.986-6.848,29.359-32.601,16.329-49.856C351.178,329.848,352.882,331.46,351.117,331.46z"/>
<path style="fill:#47B7D1;" d="M352.266,363.505l12.165-16.11c-12.231-16.193-11.611-15.936-13.315-15.936  c-0.809,0-1.571,0.378-2.057,1.024l-23.426,31.021c-19.846,26.275,8.749,62.098,38.8,48.274  C345.898,403.273,339.999,379.75,352.266,363.505z"/>
<path style="fill:#89E3F7;" d="M351.117,331.46c-1.768,0-0.722-0.743-19.402,23.991c14.849,14.558,31.463,27.314,49.497,37.93  c3.429-9.765,2.073-21.018-4.615-29.877C351.178,329.848,352.882,331.46,351.117,331.46z"/>
<path style="fill:#54C6D1;" d="M348.319,370.355c1.984-4.72,3.056-5.67,16.113-22.959c-12.231-16.193-11.611-15.936-13.315-15.936  c-1.768,0-0.722-0.743-19.402,23.991C337.024,360.656,342.574,365.623,348.319,370.355z"/>
<path style="fill:#6AD3EF;" d="M400.295,295.608c-15.149-20.06-14.416-19.683-16.145-19.683c-1.715,0-0.939-0.458-16.145,19.683  c-8.509,11.269-3.204,27.797,10.795,31.715l0.667-2.487l-0.513,2.528c2.291,0.626,4.927,0.851,7.646,0.528l-0.319-2.558l0.435,2.544  C401.748,326.092,409.823,308.227,400.295,295.608z"/>
<path style="fill:#54C6D1;" d="M381.714,310.6c-1.398-10.034,3.985-15.111,11.236-24.717c-7.291-9.654-7.14-9.956-8.8-9.956  c-1.715,0-0.939-0.458-16.145,19.683c-8.441,11.179-3.321,27.765,10.795,31.715l0.667-2.487l-0.513,2.528  c2.291,0.626,4.927,0.851,7.646,0.528l-0.319-2.558l0.435,2.544c1.972-0.234,4.115-0.841,6.233-1.863  C386.811,323.045,382.652,317.319,381.714,310.6z"/>
<path style="fill:#6AD3EF;" d="M256,0C114.616,0,0,114.613,0,255.999C0,397.383,114.616,512,256,512  c141.012,0,256-114.256,256-256.001C512,114.613,397.386,0,256,0z M256,473.886c-120.335,0-217.885-97.55-217.885-217.886  c0-120.334,97.55-217.886,217.885-217.886c119.701,0,217.886,96.951,217.886,217.886C473.887,376.335,376.336,473.886,256,473.886z"/>
<path style="fill:#89E3F7;" d="M451.225,421.601C573.848,277.188,501.832,51.674,315.942,7.074  c-9.03,10.602-17.215,21.947-24.439,33.942c174.148,28.538,242.98,242.297,119.995,367.59  C424.246,413.978,437.524,418.338,451.225,421.601z"/>
<path style="fill:#F4AF40;" d="M350.972,232.485c7.698,4.444,10.338,14.291,5.893,21.988l-38.226,66.212  c-4.446,7.698-14.29,10.333-21.986,5.891c-6.672-3.851-9.532-11.751-7.291-18.804l41.685-72.196  C336.03,230.107,344.305,228.637,350.972,232.485z"/>
<path style="fill:#DB9633;" d="M302.755,314.986l41.684-72.196c3.089-3.389,7.441-5.24,11.894-5.244  c-5.824-8.81-18.295-9.641-25.287-1.97l-41.685,72.196c-3.285,10.339,4.43,20.948,15.317,20.948  C302.041,324.722,301.269,319.668,302.755,314.986z"/>
<g>
</g>
<g>
</g>
<g>
</g>
<g>
</g>
<g>
</g>
<g>
</g>
<g>
</g>
<g>
</g>
<g>
</g>
<g>
</g>
<g>
</g>
<g>
</g>
<g>
</g>
<g>
</g>
<g>
</g>
</svg>
