<?xml version="1.0" encoding="iso-8859-1"?>
<!-- Generator: Adobe Illustrator 19.0.0, SVG Export Plug-In . SVG Version: 6.00 Build 0)  -->
<svg xmlns="http://www.w3.org/2000/svg" xmlns:xlink="http://www.w3.org/1999/xlink" version="1.1" id="Layer_1" x="0px" y="0px" viewBox="0 0 512 512" style="enable-background:new 0 0 512 512;" xml:space="preserve">
<path style="fill:#E5955E;" d="M376.818,71.805L353.88,58.448C208.577-14.768,35.111,90.774,35.111,254.967  c0,121.463,98.463,219.926,219.927,219.926c121.46,0,219.924-98.464,219.924-219.926C474.963,178.541,435.981,111.22,376.818,71.805  z"/>
<path style="fill:#BF723D;" d="M167.174,151.241c-6.428,0-13.055,0.685-19.706,2.04c-55.886,11.371-81.088,72.951-70.511,121.05  c1.206,5.489,9.141,5.314,10.107-0.223c4.155-23.885,15.12-54.729,43.755-66.027c22.979-9.065,45.327-4.03,61.884,13.072  c2.16,2.24,5.618,2,7.542-0.146c12.779-14.287,27.796-20.912,38.147-23.95c3.501-1.035,4.847-5.293,2.582-8.144  C231.988,177.585,206.812,151.241,167.174,151.241z"/>
<path style="fill:#D1814A;" d="M279.799,469.5c-120.335,0-217.881-97.551-217.881-217.883c0-116.052,88.856-205.299,194.574-216.811  c-115.567-0.537-221.38,91.923-221.38,220.163c0,121.463,98.463,219.926,219.927,219.926c20.638,0,40.609-2.85,59.549-8.165  C303.259,468.546,291.641,469.5,279.799,469.5z"/>
<path style="fill:#EDA87A;" d="M411.351,409.656c39.322-39.732,63.612-94.372,63.612-154.689  c0-76.426-38.982-143.747-98.145-183.162L353.88,58.448c-20.643-10.402-41.854-17.19-63.056-20.721  C207.529,171.252,264.185,349.718,411.351,409.656z"/>
<path style="fill:#F9B546;" d="M255.993,0.005C114.612,0.005,0,114.619,0,256s114.612,255.995,255.993,255.995  c141.102,0,255.993-114.343,255.993-255.995C511.987,114.619,397.377,0.005,255.993,0.005z M255.993,473.884  c-120.334,0-217.88-97.551-217.88-217.883c0-120.334,97.546-217.881,217.88-217.881c119.713,0,217.88,96.963,217.88,217.881  C473.875,376.332,376.325,473.884,255.993,473.884z"/>
<path style="fill:#FCBF65;" d="M450.755,422.137C574.998,276.63,500.676,49.592,313.678,6.534  c-9.111,10.64-17.374,22.032-24.661,34.08C393.054,56.438,473.875,146.278,473.875,256c0,59.829-24.123,114.019-63.163,153.397  C423.568,414.69,436.945,418.979,450.755,422.137z"/>
<path style="fill:#C97D49;" d="M426.645,203.963c-30.607-64.753-112.068-69.99-155.632-15.051c-2.266,2.854-0.922,7.111,2.585,8.144  c10.35,3.037,25.368,9.662,38.146,23.95c1.948,2.182,5.414,2.348,7.541,0.146c16.548-17.091,38.89-22.142,61.883-13.072  c28.633,11.297,39.598,42.141,43.756,66.027c0.422,2.428,2.502,4.214,4.96,4.267c0.039,0.002,0.077,0.002,0.115,0.002  c2.413,0,4.51-1.679,5.028-4.046C440.051,251.507,436.992,225.855,426.645,203.963z"/>
<g>
	<path style="fill:#AA6739;" d="M371.572,188.332c-25.882-9.835-51.841-4.962-71.442,14.543c-2.381,2.384-6.271,2.289-8.569-0.033   v1.862c6.703,3.831,13.729,9.086,20.182,16.302c1.948,2.182,5.414,2.348,7.541,0.146c16.548-17.091,38.89-22.142,61.883-13.072   c23.157,9.135,34.755,31.058,40.543,51.741C416.65,233.548,403.82,200.592,371.572,188.332z"/>
	<path style="fill:#AA6739;" d="M139.994,188.332c25.77-9.793,51.761-5.044,71.443,14.543c2.392,2.391,6.281,2.282,8.567-0.033   v1.862c-6.703,3.831-13.728,9.086-20.179,16.302c-1.959,2.187-5.417,2.343-7.542,0.146c-16.505-17.048-38.835-22.163-61.884-13.072   c-23.157,9.135-34.754,31.058-40.545,51.741C94.917,233.548,107.747,200.592,139.994,188.332z"/>
</g>
<path style="fill:#F9B546;" d="M383.272,241.387c-15.238-21.556-37.059-21.818-56.318-7.683  c-12.228-23.975-30.302-35.561-43.557-41.082c-14.946-6.229-26.903-6.299-27.404-6.299c-0.502,0-12.458,0.07-27.404,6.299  c-13.254,5.522-31.326,17.107-43.556,41.082c-19.179-14.076-41.004-13.98-56.321,7.683c-0.532,0.759-0.622,1.747-0.225,2.59  c8.684,18.299,30.326,34.801,50.672,34.201c1.031,28.98,42.929,41.884,33.004,78.871c-3.544,13.202-2.379,23.756,3.461,31.369  c11.558,15.067,37.295,12.962,40.369,12.656c13.532,1.356,31.714-1.372,40.368-12.655c5.84-7.614,7.005-18.168,3.464-31.371  c-9.926-36.985,31.969-49.893,33.005-78.871c20.559,0.597,42.175-16.196,50.667-34.201  C383.897,243.134,383.811,242.146,383.272,241.387z"/>
<path style="fill:#E29729;" d="M267.28,401.154c-26.446-1.91-39.745-16.934-32.453-44.105c6.743-25.13-10.308-38.868-22.675-54.916  c-28.659-38.395,12.072-91.379,12.072-91.379l0,0c11.996-12.005,27.013-19.814,43.101-23.062c-3.694-0.747-7.415-1.177-8.796-1.249  c-11.884-0.989-30.842,4.431-45.809,14.938l-0.008-0.006c-9.76,6.853-19.902,17.083-27.679,32.331  c-19.179-14.076-41.004-13.98-56.321,7.683c-0.532,0.759-0.622,1.747-0.225,2.59c8.684,18.299,30.326,34.801,50.672,34.201  c1.03,28.95,42.93,41.934,33.004,78.871c-3.544,13.202-2.379,23.756,3.461,31.369c11.558,15.067,37.295,12.962,40.369,12.656  C258.89,401.364,263.144,401.449,267.28,401.154z"/>
<path style="fill:#FCBF65;" d="M326.954,233.704c-19.337-37.913-56.759-48.774-74.342-47.191  c2.773,52.476,21.362,100.755,51.089,140.165c9.484-16.868,28.44-29.231,29.128-48.501c20.559,0.597,42.175-16.196,50.667-34.201  c0.399-0.843,0.314-1.831-0.225-2.59C368.034,219.831,346.213,219.569,326.954,233.704z"/>
<path style="fill:#EAA23B;" d="M255.993,401.073c1.908,0.191,4.674,0.312,7.725,0.248v-38.54c0-4.269-3.458-7.726-7.725-7.726  c-4.268,0-7.727,3.457-7.727,7.726v38.54C252.185,401.408,255.084,401.166,255.993,401.073z"/>
<g>
	<path style="fill:#7A746F;" d="M302.977,267.416c-0.051-1.132-0.835-2.097-1.934-2.379c-13.632-3.513-29.049,9.254-28.441,23.111   c0.052,1.13,0.835,2.095,1.933,2.381c1.462,0.373,3.015,0.563,4.619,0.563c0.001,0,0.001,0,0.002,0c5.198,0,10.5-1.978,14.924-5.57   C299.861,280.825,303.27,273.889,302.977,267.416z"/>
	<path style="fill:#7A746F;" d="M210.973,265.038c-7.644,1.956,5.293,30.92,26.51,25.492c1.096-0.285,1.881-1.251,1.93-2.381   C240.033,274.267,224.577,261.531,210.973,265.038z"/>
</g>
<path style="fill:#EAA23B;" d="M263.718,187.05c-6.073-0.939-9.281-0.953-15.451,0v52.535c0,4.271,3.459,7.728,7.727,7.728  c4.267,0,7.725-3.457,7.725-7.728V187.05H263.718z"/>
<path style="fill:#D18146;" d="M272.571,346.205c0,9.156-7.422,16.577-16.577,16.577c-9.154,0-16.578-7.421-16.578-16.577  c0-9.156,7.424-7.976,16.578-7.976C265.149,338.229,272.571,337.048,272.571,346.205z"/>
<g>
</g>
<g>
</g>
<g>
</g>
<g>
</g>
<g>
</g>
<g>
</g>
<g>
</g>
<g>
</g>
<g>
</g>
<g>
</g>
<g>
</g>
<g>
</g>
<g>
</g>
<g>
</g>
<g>
</g>
</svg>
