<?xml version="1.0" encoding="iso-8859-1"?>
<!-- Generator: Adobe Illustrator 19.0.0, SVG Export Plug-In . SVG Version: 6.00 Build 0)  -->
<svg xmlns="http://www.w3.org/2000/svg" xmlns:xlink="http://www.w3.org/1999/xlink" version="1.1" id="Layer_1" x="0px" y="0px" viewBox="0 0 512 512" style="enable-background:new 0 0 512 512;" xml:space="preserve">
<path style="fill:#D83554;" d="M255.44,32.427c-119.062,0.67-216.307,93.45-222.584,211.46  c-7.772,144.107,118.249,253.314,254.548,233.973c104.161-14.536,185.476-100.824,192.051-207.62  C487.445,139.923,383.85,31.981,255.44,32.427z"/>
<path style="fill:#C1274C;" d="M321.32,42.073c-20.843-6.336-42.964-9.726-65.88-9.646c-119.062,0.67-216.307,93.45-222.584,211.46  c-7.772,144.108,118.25,253.314,254.548,233.973c13.337-1.861,26.296-4.906,38.776-9.013c-15.06,3.293-30.7,5.038-46.749,5.038  c-120.335,0-217.884-97.552-217.884-217.886C61.546,116.649,189.713,15.896,321.32,42.073z"/>
<path style="fill:#E04B6F;" d="M294.161,35.652c-87.867,135.009-29.798,318.69,121.473,377.569  c36.669-37.262,60.396-87.333,63.822-142.979C486.624,153.322,403.967,54.432,294.161,35.652z"/>
<path style="fill:#FF5364;" d="M373.456,343.188c-6.195-7.798-17.535-9.098-25.333-2.904  c-46.433,36.874-108.263,41.916-159.043,16.848c31.379-10.053,54.162-39.494,54.162-74.166c0-42.933-34.93-77.866-77.867-77.866  c-62.431,0-102.517,71.547-60.448,126.901c61.498,84.767,182.165,102.794,265.624,36.518  C378.348,362.326,379.648,350.986,373.456,343.188z M165.376,324.772c-23.051,0-41.808-18.754-41.808-41.807  c0-23.053,18.757-41.807,41.808-41.807c23.055,0,41.808,18.754,41.808,41.807C207.183,306.018,188.431,324.772,165.376,324.772z"/>
<path style="fill:#FC7588;" d="M348.122,340.284c-6.823,5.421-14.01,10.182-21.495,14.274c8.885,9,18.423,17.353,28.553,24.963  c5.266-3.387,10.396-7.05,15.372-11.001c7.796-6.194,9.096-17.534,2.904-25.332C367.26,335.39,355.921,334.09,348.122,340.284z"/>
<path style="fill:#FF5364;" d="M302.731,109.073c-53.276-13.565-113.199-3.779-161.283,34.407c-7.8,6.192-9.1,17.534-2.908,25.331  c6.193,7.797,17.537,9.096,25.331,2.905c46.422-36.867,108.268-41.923,159.045-16.847c-31.379,10.052-54.164,39.491-54.164,74.164  c0,42.935,34.932,77.866,77.868,77.866s77.865-34.93,77.865-77.866c0-18.497-6.492-35.5-17.307-48.873  c-0.039-0.054-0.07-0.111-0.107-0.165c-16.858-23.236-39.195-42.518-64.595-55.764C329.885,117.668,316.521,112.584,302.731,109.073   M346.621,270.84c-23.053,0-41.808-18.754-41.808-41.806c0-23.053,18.755-41.808,41.808-41.808  c23.055,0,41.806,18.755,41.806,41.808C388.427,252.086,369.676,270.84,346.621,270.84z"/>
<path style="fill:#FC7588;" d="M407.071,179.997c-16.858-23.236-39.195-42.518-64.595-55.764  c-23.52-12.264-50.694-19.843-79.422-20.819c-3.389,11.662-5.967,23.67-7.675,35.958c23.867-0.199,46.815,5.264,67.538,15.498  c-31.379,10.052-54.164,39.491-54.164,74.164c0,42.935,34.932,77.866,77.868,77.866s77.865-34.93,77.865-77.866  c0-18.497-6.492-35.5-17.307-48.873C407.139,180.108,407.108,180.051,407.071,179.997z M346.621,270.84  c-23.053,0-41.808-18.754-41.808-41.806c0-23.053,18.755-41.808,41.808-41.808c23.055,0,41.806,18.755,41.806,41.808  C388.427,252.086,369.676,270.84,346.621,270.84z"/>
<path style="fill:#FF5364;" d="M255.998,0C114.614,0,0,114.615,0,256c0,141.384,114.614,256,255.998,256  C397.097,512,512,397.653,512,256C512,114.615,397.384,0,255.998,0z M255.998,473.886c-120.333,0-217.884-97.552-217.884-217.886  c0-120.336,97.551-217.886,217.884-217.886c119.719,0,217.886,96.965,217.886,217.886  C473.885,376.334,376.335,473.886,255.998,473.886z"/>
<path style="fill:#FC7588;" d="M409.677,410.45c12.781,5.426,26.098,9.832,39.843,13.14C574.275,279.65,503.053,52.384,316.456,7.2  c-9.17,10.553-17.487,21.869-24.849,33.832C394.488,57.953,473.886,147.286,473.886,256  C473.887,316.363,449.336,370.99,409.677,410.45z"/>
<g>
</g>
<g>
</g>
<g>
</g>
<g>
</g>
<g>
</g>
<g>
</g>
<g>
</g>
<g>
</g>
<g>
</g>
<g>
</g>
<g>
</g>
<g>
</g>
<g>
</g>
<g>
</g>
<g>
</g>
</svg>
