<?xml version="1.0" encoding="iso-8859-1"?>
<!-- Generator: Adobe Illustrator 19.0.0, SVG Export Plug-In . SVG Version: 6.00 Build 0)  -->
<svg xmlns="http://www.w3.org/2000/svg" xmlns:xlink="http://www.w3.org/1999/xlink" version="1.1" id="Layer_1" x="0px" y="0px" viewBox="0 0 512 512" style="enable-background:new 0 0 512 512;" xml:space="preserve">
<path style="fill:#E28160;" d="M378.94,71.319l-23.124-13.465C209.357-15.961,34.47,90.434,34.47,255.962  c0,122.443,99.259,221.704,221.702,221.704c122.445,0,221.707-99.261,221.707-221.704C477.88,178.916,438.581,111.053,378.94,71.319  z"/>
<path style="fill:#C96347;" d="M279.801,469.5c-120.334,0-217.883-97.551-217.883-217.883c0-118.716,92.966-209.369,201.852-217.48  c-118.854-3.91-229.3,90.283-229.3,221.825c0,122.443,99.259,221.704,221.702,221.704c30.254,0,59.089-6.069,85.366-17.041  C321.964,466.399,301.245,469.5,279.801,469.5z"/>
<path style="fill:#E0AF60;" d="M255.994,0.006C114.613,0.006,0,114.619,0,256s114.613,255.994,255.994,255.994  c140.986,0,255.994-114.239,255.994-255.994C511.988,114.619,397.375,0.006,255.994,0.006z M255.994,473.881  c-120.332,0-217.879-97.549-217.879-217.881c0-120.334,97.547-217.881,217.879-217.881c119.716,0,217.883,96.968,217.883,217.881  C473.878,376.332,376.328,473.881,255.994,473.881z"/>
<path style="fill:#ED8C72;" d="M414.627,411.006c39.124-39.978,63.253-94.689,63.253-155.044  c0-77.046-39.298-144.909-98.941-184.643l-23.124-13.465c-21.097-10.633-42.784-17.52-64.454-21.035  C206.125,171.808,265.683,353.011,414.627,411.006z"/>
<path style="fill:#DBB16E;" d="M277.737,391.58c-0.362-3.195-5.066-2.933-5.12,0.244l-35.715-0.635  c-1.698-1.411-2.848-2.189-2.904-2.228c-2.833-1.867-5.676,2.419-2.84,4.3c1.142,0.754,27.711,18.776,12.528,43.924  c-1.196,1.973,0.633,4.433,2.898,3.813C246.941,440.898,282.209,430.583,277.737,391.58z"/>
<path style="fill:#C97D49;" d="M360.233,99.32c-89.643,109.364-84.671,102.465-84.255,104.569c0.178,0.905,0.754,1.683,1.567,2.12  c40.605,21.829,37.969,20.592,39.079,20.592c1.556,0,2.842-1.144,3.059-2.635c1.474-5.038,28.099-75.173,45.825-121.585  C366.757,99.129,362.447,96.62,360.233,99.32z M319.03,221.565c0.115,0.143,0.211,0.291,0.297,0.443  C319.241,221.854,319.144,221.706,319.03,221.565z M319.652,222.881c0.057,0.271,0.078,0.537,0.06,0.784  C319.726,223.4,319.704,223.138,319.652,222.881z M319.394,222.132c0.121,0.242,0.201,0.49,0.254,0.736  C319.595,222.615,319.511,222.367,319.394,222.132z"/>
<path style="fill:#B26E3F;" d="M350.137,142.728c5.328-14.011,10.663-28.015,15.371-40.345c1.248-3.254-3.062-5.762-5.275-3.063  c-89.643,109.364-84.671,102.465-84.255,104.569c0.374,1.905,0.513,1.554,15.951,9.855L350.137,142.728z"/>
<path style="fill:#BF723D;" d="M151.355,99.32c-0.96-1.171-2.629-1.476-3.939-0.713c-1.314,0.759-1.88,2.359-1.337,3.776  c42.85,112.202,46.324,122.861,46.324,122.861c0.882,1.31,2.618,1.74,4.023,0.991c40.755-21.913,38.793-20.364,39.186-22.345  C236.017,201.842,241.44,209.225,151.355,99.32z M191.877,223.665c-0.016-0.246,0.004-0.512,0.061-0.784  C191.885,223.138,191.863,223.4,191.877,223.665z M191.94,222.869c0.055-0.246,0.135-0.494,0.254-0.736  C192.079,222.367,191.994,222.615,191.94,222.869z M192.263,222.008c0.084-0.152,0.184-0.301,0.297-0.443  C192.448,221.706,192.347,221.854,192.263,222.008z"/>
<path style="fill:#A05D30;" d="M211.542,214.334c-1.518,0-2.832-1.1-3.061-2.635c-1.058-3.617-15.074-40.773-29.459-78.622  l-27.668-33.756c-0.96-1.171-2.629-1.476-3.939-0.713c-1.314,0.759-1.88,2.359-1.337,3.776  c42.85,112.203,46.324,122.861,46.324,122.861c0.882,1.31,2.618,1.74,4.023,0.991c40.755-21.913,38.793-20.364,39.186-22.345  c0.131-0.664,0.035-1.343-0.254-1.94C211.031,215.025,212.624,214.334,211.542,214.334z"/>
<path style="fill:#F2CD83;" d="M374.378,226.002c-16.301-7.97-36.474-11.752-52.697-5.582c-34.077-31.858-97.051-32.457-131.771,0  c-16.184-6.151-36.326-2.423-52.697,5.582c-0.95,0.461-1.521,1.458-1.439,2.516c0.031,0.396,3.543,39.553,42.091,39.553  c3.266,0,6.729-0.289,10.314-0.856c-21.748,35.594,26.146,58.874,18.535,93.992c-6.523,30.104,19.082,41.72,49.08,39.27  c14.681,1.196,35.03-1.347,44.52-13.114c5.354-6.633,6.884-15.432,4.562-26.156c-7.612-35.122,40.286-58.389,18.537-93.992  c5.992,0.948,10.316,0.856,10.316,0.856c38.549,0,42.055-39.159,42.087-39.553C375.897,227.46,375.325,226.463,374.378,226.002z"/>
<path style="fill:#F9D79B;" d="M374.378,226.002c-16.301-7.97-36.474-11.752-52.697-5.582  c-18.272-17.082-45.256-25.053-65.888-23.875c-0.354-0.021-1.198-0.063-2.445-0.072c4.737,51.643,24.825,98.837,55.664,136.991  c9.69-21.158,29.943-40.804,14.401-66.249c5.992,0.948,10.316,0.856,10.316,0.856c38.549,0,42.055-39.159,42.087-39.553  C375.897,227.46,375.325,226.463,374.378,226.002z"/>
<g>
	<path style="fill:#7A746F;" d="M234.666,307.214c-3.336,3.352-10.302,1.829-15.561-3.41c-5.259-5.23-6.816-12.19-3.477-15.543   c3.334-3.35,10.304-1.827,15.559,3.404C236.446,296.904,238.004,303.862,234.666,307.214z"/>
	<path style="fill:#7A746F;" d="M276.936,307.214c3.338,3.352,10.306,1.829,15.565-3.41c5.255-5.23,6.816-12.19,3.475-15.543   c-3.334-3.35-10.304-1.827-15.559,3.404C275.158,296.904,273.6,303.862,276.936,307.214z"/>
</g>
<g>
	<path style="fill:#E8BE74;" d="M255.793,357.423c-4.267,0-7.728,3.461-7.728,7.728v35.544c3.026,0.047,5.642-0.047,7.728-0.217   c2.083,0.17,4.699,0.265,7.728,0.217v-35.544C263.521,360.885,260.06,357.423,255.793,357.423z"/>
	<path style="fill:#E8BE74;" d="M263.724,196.625c-3.335-0.196-12.039-0.209-15.451-0.025v38.426c0,4.267,3.459,7.726,7.726,7.726   s7.726-3.459,7.726-7.726v-38.401H263.724z"/>
</g>
<path style="fill:#D18146;" d="M270.702,350.247c0,8.232-6.672,14.905-14.909,14.905c-8.23,0-14.905-6.672-14.905-14.905  c0-8.233,6.674-5.525,14.905-5.525C264.028,344.721,270.702,342.012,270.702,350.247z"/>
<path style="fill:#EAB871;" d="M450.754,422.135C575.002,276.626,500.671,49.592,313.681,6.533  c-9.115,10.64-17.375,22.033-24.662,34.08C393.173,56.456,473.878,146.383,473.878,256c0,59.829-24.123,114.019-63.165,153.397  C423.568,414.689,436.946,418.979,450.754,422.135z"/>
<path style="fill:#E5B767;" d="M226.989,361.207c2.799-12.923-1.907-24.235-7.835-35.019c-4.232-4.823-7.98-11.377-11.068-19.958  c0,0,0,0-0.002,0c-2.085-4.373-2.131-4.669-3.006-9.504c-14.932-54.329,16.884-86.491,33.602-99.103  c-4.132,0.635-8.807,1.606-13.78,3.096l-0.018-0.008c-11.157,3.338-23.789,9.254-34.972,19.71  c-16.184-6.151-36.326-2.423-52.697,5.582c-0.95,0.461-1.521,1.458-1.439,2.516c0.031,0.396,3.543,39.553,42.091,39.553  c3.266,0,6.729-0.289,10.314-0.856c-15.098,24.709,3.479,43.706,13.948,65.275c2.757,5.849,4.293,11.279,3.968,10.493  c1.607,6.009,1.956,12.037,0.619,18.223c-6.523,30.104,19.082,41.72,49.08,39.27c5.107,0.416,9.138,0.147,10.14,0.147  C239.147,399.485,221.34,387.297,226.989,361.207z"/>
<g>
</g>
<g>
</g>
<g>
</g>
<g>
</g>
<g>
</g>
<g>
</g>
<g>
</g>
<g>
</g>
<g>
</g>
<g>
</g>
<g>
</g>
<g>
</g>
<g>
</g>
<g>
</g>
<g>
</g>
</svg>
