<?xml version="1.0" encoding="iso-8859-1"?>
<!-- Generator: Adobe Illustrator 19.0.0, SVG Export Plug-In . SVG Version: 6.00 Build 0)  -->
<svg xmlns="http://www.w3.org/2000/svg" xmlns:xlink="http://www.w3.org/1999/xlink" version="1.1" id="Layer_1" x="0px" y="0px" viewBox="0 0 512 512" style="enable-background:new 0 0 512 512;" xml:space="preserve">
<path style="fill:#DB6412;" d="M480.406,240.608c-6.908-107.97-90.227-194.544-195.632-207.495  C155.769,17.004,37.554,115.046,33.629,248.44c-4.084,140.988,119.597,247.574,254.75,228.416  C402.4,460.954,488.148,359.368,480.406,240.608z"/>
<path style="fill:#C15911;" d="M315.579,471.308c-10.936,1.69-22.136,2.578-33.545,2.578c-120.338,0-217.886-97.552-217.886-217.886  c0-140.923,131.074-242.375,264.227-212.995c-13.98-4.692-28.565-8.044-43.602-9.891C155.769,17.004,37.554,115.046,33.629,248.44  c-4.084,140.988,119.597,247.574,254.75,228.416C297.646,475.564,306.721,473.696,315.579,471.308z"/>
<path style="fill:#E5772C;" d="M480.406,240.607c-6.666-104.187-84.484-188.44-184.637-205.855  c-88.583,134.901-30.898,318.834,120.154,378.175C459.372,369.162,484.774,307.621,480.406,240.607z"/>
<path style="fill:#F4832F;" d="M313.803,236.599l6.524-16.889c21.956-56.234-19.773-117.041-79.989-117.041  c-54.939,0-96.284,51.367-83.573,105.512c1.14,4.872,2.455,7.242,34.395,78.839c9.763,21.981-6.448,46.818-30.472,46.818  c-18.37,0-33.317-14.944-33.317-33.315c0-10.5-8.511-19.011-19.008-19.011c-10.503,0-19.015,8.511-19.015,19.011  c0,39.336,32.003,71.338,71.34,71.338c51.304,0,86.204-53.006,65.213-100.301c-34.256-76.79-33.378-72.348-33.378-83.049  c0-26.366,21.449-47.817,47.816-47.817c33.408,0,56.846,33.755,44.543,65.251c-28.505,73.772-26.635,68.448-27.085,71.385  c-16.952,54.557,23.791,110.107,81.21,110.107c24.841,0,48.404-10.843,64.758-30.275c6.759-8.034,5.727-20.028-2.307-26.788  c-8.033-6.761-20.026-5.729-26.788,2.308c-10.527,12.508-26.454,18.582-42.608,16.228c-25.548-3.715-43.312-27.523-39.596-53.069  c1.141-7.882,4.102-14.632,12.476-36.308"/>
<g>
	<path style="fill:#F79552;" d="M401.457,330.372c-8.033-6.761-20.026-5.729-26.788,2.308   c-14.271,16.957-37.459,21.101-56.18,12.083c13.098,14.734,27.866,27.952,44.018,39.338c15.827-4.586,30.191-13.792,41.255-26.941   C410.521,349.127,409.49,337.133,401.457,330.372z"/>
	<path style="fill:#F79552;" d="M266.369,253.852c6.468,19.954,15.322,38.835,26.225,56.304   c-2.724-16.509,1.645-22.916,27.732-90.445c18.559-47.532-8.391-100.318-56.94-113.872c-3.399,12.147-5.923,24.659-7.505,37.464   c25.597,8.829,38.923,37.242,28.999,62.643L266.369,253.852z"/>
</g>
<path style="fill:#F4832F;" d="M256.001,0c-141.386,0-256,114.615-256,256c0,141.384,114.614,256,256,256  c140.932,0,255.998-114.188,255.998-256C511.999,114.615,397.384,0,256.001,0z M256.001,473.886  c-120.337,0-217.887-97.552-217.887-217.886c0-120.336,97.55-217.886,217.887-217.886c119.709,0,217.886,96.961,217.886,217.886  C473.887,376.334,376.336,473.886,256.001,473.886z"/>
<path style="fill:#F79552;" d="M409.677,410.45c12.783,5.426,26.097,9.832,39.843,13.14C574.273,279.65,503.052,52.384,316.458,7.2  c-9.172,10.553-17.486,21.869-24.851,33.832c42.479,6.987,65.939,22.383,85.042,33.506  C491.65,151.151,507.148,313.471,409.677,410.45z"/>
<g>
</g>
<g>
</g>
<g>
</g>
<g>
</g>
<g>
</g>
<g>
</g>
<g>
</g>
<g>
</g>
<g>
</g>
<g>
</g>
<g>
</g>
<g>
</g>
<g>
</g>
<g>
</g>
<g>
</g>
</svg>
