<?xml version="1.0" encoding="iso-8859-1"?>
<!-- Generator: Adobe Illustrator 19.0.0, SVG Export Plug-In . SVG Version: 6.00 Build 0)  -->
<svg xmlns="http://www.w3.org/2000/svg" xmlns:xlink="http://www.w3.org/1999/xlink" version="1.1" id="Layer_1" x="0px" y="0px" viewBox="0 0 512 512" style="enable-background:new 0 0 512 512;" xml:space="preserve">
<path style="fill:#26AEC4;" d="M475.408,241.19C467.844,123.538,368.561,32.612,251.447,34.86  C126.261,36.914,24.974,143.681,35.067,273.188c9.725,126.639,125.195,219.091,250.948,201.202  C399.112,458.556,483.031,357.766,475.408,241.19z"/>
<path style="fill:#1D9DAA;" d="M300.542,471.848c-6.613,0.604-13.307,0.924-20.077,0.924c-120.337,0-217.886-97.551-217.886-217.884  c0-126.303,105.277-220.889,222.979-218.016c-11.15-1.532-22.542-2.234-34.11-2.011C126.261,36.914,24.974,143.681,35.067,273.188  c9.725,126.639,125.195,219.091,250.948,201.202C290.915,473.704,295.756,472.847,300.542,471.848z"/>
<path style="fill:#2FBECC;" d="M292.382,37.921c-83.989,134.864-24.66,313.124,120.882,371.879  c42.055-43.218,66.406-103.444,62.145-168.61C468.744,137.543,390.893,54.653,292.382,37.921z"/>
<path style="fill:#4ECDEA;" d="M399.677,300.149H110.79c-10.693,0-19.359,8.664-19.359,19.357c0,10.689,8.666,19.353,19.359,19.353  c8.282,0,275.891,0,288.887,0c10.688,0,19.354-8.664,19.354-19.353C419.031,308.814,410.365,300.149,399.677,300.149z"/>
<path style="fill:#62DBEF;" d="M399.677,300.149H287.845c7.917,13.765,17.091,26.713,27.343,38.711h84.49  c10.688,0,19.354-8.664,19.354-19.353C419.031,308.814,410.365,300.149,399.677,300.149z"/>
<path style="fill:#4ECDEA;" d="M110.79,263.677c59.917,0,58.902,0.755,64.603-2.275c6.393-3.378,10.467-10.163,10.223-17.715  c-0.105-3.235-1.406-7.071-1.406-15.501c0-39.164,31.86-71.024,71.021-71.024c43.954,0,77.811,39.876,69.89,83.724  c-2.147,11.923,7.128,23.233,19.86,22.758c1.656,0.046-7.742,0.033,54.697,0.033c10.688,0,19.354-8.664,19.354-19.355  c0-10.691-8.666-19.355-19.354-19.355h-34.763c-1.708-59.025-50.251-106.516-109.682-106.516  c-59.43,0-107.972,47.492-109.682,106.516h-34.759c-10.693,0-19.359,8.664-19.359,19.355  C91.431,255.013,100.097,263.677,110.79,263.677z"/>
<path style="fill:#62DBEF;" d="M399.677,224.968h-34.763c-1.666-57.528-47.825-104.093-105.189-106.415  c-2.712,12.558-4.504,25.458-5.295,38.631c45.036-0.321,78.57,40.092,70.692,83.704c-2.147,11.923,7.128,23.233,19.86,22.758  c1.656,0.046-7.742,0.033,54.697,0.033c10.688,0,19.354-8.664,19.354-19.355C419.031,233.632,410.365,224.968,399.677,224.968z"/>
<path style="fill:#4ECDEA;" d="M256.001,0C114.616,0,0,114.616,0,255.998C0,397.386,114.616,512,256.001,512  C397.121,512,512,397.642,512,255.998C512,114.616,397.386,0,256.001,0z M256.001,473.887  c-120.338,0-217.887-97.551-217.887-217.888c0-120.333,97.549-217.884,217.887-217.884c119.037,0,217.885,96.4,217.885,217.884  C473.887,376.335,376.336,473.887,256.001,473.887z"/>
<path style="fill:#62DBEF;" d="M451.045,421.812C574.084,277.217,501.689,50.957,315.086,6.865  c-9.061,10.618-17.274,21.984-24.523,33.998C394.789,57.48,473.887,147.702,473.887,255.998c0,59.586-23.925,113.574-62.685,152.91  C423.99,414.25,437.305,418.587,451.045,421.812z"/>
<g>
</g>
<g>
</g>
<g>
</g>
<g>
</g>
<g>
</g>
<g>
</g>
<g>
</g>
<g>
</g>
<g>
</g>
<g>
</g>
<g>
</g>
<g>
</g>
<g>
</g>
<g>
</g>
<g>
</g>
</svg>
