<?xml version="1.0" encoding="iso-8859-1"?>
<!-- Generator: Adobe Illustrator 19.0.0, SVG Export Plug-In . SVG Version: 6.00 Build 0)  -->
<svg xmlns="http://www.w3.org/2000/svg" xmlns:xlink="http://www.w3.org/1999/xlink" version="1.1" id="Layer_1" x="0px" y="0px" viewBox="0 0 512.001 512.001" style="enable-background:new 0 0 512.001 512.001;" xml:space="preserve">
<path style="fill:#B2D8E3;" d="M379.159,71.575l-23.096-13.448C209.788-15.598,35.113,90.665,35.113,255.989  c0,122.293,99.137,221.434,221.431,221.434s221.432-99.14,221.432-221.433C477.977,179.04,438.729,111.262,379.159,71.575z"/>
<path style="fill:#79B5BF;" d="M287.091,36.421C160.057,18.596,35.113,116.166,35.113,255.989  c0,122.293,99.137,221.434,221.431,221.434c21.62,0,42.511-3.112,62.264-8.89c-12.979,2.411-26.362,3.672-40.039,3.672  c-120.333,0-217.883-97.547-217.883-217.879C60.888,126.879,168.096,31.721,287.091,36.421z"/>
<path style="fill:#E0AF60;" d="M255.993,0.005C114.612,0.005,0,114.62,0,256.001c0,141.383,114.612,255.994,255.993,255.994  c140.989,0,255.995-114.229,255.995-255.995C511.988,114.62,397.375,0.005,255.993,0.005z M255.993,473.882  c-120.332,0-217.878-97.547-217.878-217.881c0-120.332,97.547-217.881,217.878-217.881c119.717,0,217.883,96.963,217.883,217.881  C473.877,376.335,376.328,473.882,255.993,473.882z"/>
<path style="fill:#C5E8EF;" d="M414.598,411.053c39.196-39.948,63.379-94.678,63.379-155.064  c0-76.949-39.249-144.726-98.819-184.414l-23.096-13.448c-21.23-10.7-43.058-17.602-64.863-21.089  C206.358,171.649,265.802,353.388,414.598,411.053z"/>
<path style="fill:#E2CA3B;" d="M369.837,189.235c-86.06,0-52.872,170.777-99.737,189.525c-28.677,11.457-53.678-8.146-70.623-33.97  c-1.015-1.548-2.846-2.338-4.671-2.024c-1.82,0.316-3.277,1.685-3.711,3.48c-5.066,21.034-18.319,36.172-28.545,45.165  c-3.398,2.99-0.903,8.624,3.613,8.085c22.001-2.628,46.116,0.372,58.607,4.06c127.208,33.633,187.408-53.205,191.962-130.585  C419.334,228.678,402.728,189.235,369.837,189.235z"/>
<path style="fill:#CCAE2F;" d="M276.628,385.675c34.035,0,39.404-31.269,48.049-85.875c7.159-45.228,14.983-95.047,46.516-110.535  c-51.771-1.805-61.6,60.487-69.867,110.551c-9.141,55.335-14.735,78.142-42.351,81.912  C264.44,384.185,270.34,385.675,276.628,385.675z"/>
<path style="fill:#EACE49;" d="M369.837,189.235c-56.523,0-61.741,74.071-71.76,129.678c17.498,25.095,39.382,46.904,64.541,64.322  c33.715-26.696,51.727-69.728,54.113-110.264C419.334,228.678,402.728,189.235,369.837,189.235z"/>
<path style="fill:#D8BD36;" d="M298.078,318.914c5.778,8.285,12.044,16.202,18.733,23.733  c12.414-50.949,12.326-132.725,54.383-153.381C313.615,187.256,307.945,264.1,298.078,318.914z"/>
<path style="fill:#EAD154;" d="M345.768,113.781c-47.041,5.622-66.411-11.557-112.22-11.557  c-159.407,0-169.894,222.843-91.398,222.843c51.164,0,60.637-60.235,69.021-111.017c5.557-33.592,4.929-29.117,13.26-57.679  c4.628-11.14,10.402-17.965,17.651-20.864c5.529-2.212,11.124-3.334,16.631-3.334c25.245,0,44.273,23.249,53.37,37.107  c1.128,1.716,3.167,2.596,5.188,2.247c2.024-0.35,3.645-1.868,4.125-3.868c5.036-20.899,18.216-35.952,28.387-44.897  C353.549,119.448,350.801,113.197,345.768,113.781z"/>
<path style="fill:#D8BD36;" d="M245.06,102.612C68.368,91.083,59.179,345.325,154.645,323.727  C89.408,306.101,103.066,112.291,245.06,102.612z"/>
<path style="fill:#EACE49;" d="M345.768,113.781c-38.681,4.622-57.362-5.41-84.25-9.401c-2.525,9.119-4.559,18.44-6.068,27.939  c23.681-1.913,43.599,17.107,56.633,36.963c1.128,1.716,3.167,2.596,5.188,2.247c2.024-0.35,3.645-1.868,4.125-3.868  c5.036-20.899,18.216-35.952,28.387-44.897c1.692-1.489,2.22-3.909,1.3-5.971C350.161,114.735,348.006,113.521,345.768,113.781z"/>
<path style="fill:#C6B63E;" d="M369.837,188.721c-39.236,0-53.908,35.158-62.54,75.32l0,0c0,0,69.944,48.425,109.826,10.722  C420.352,228.684,403.072,188.721,369.837,188.721z"/>
<path style="fill:#AD9A2B;" d="M307.755,264.355c1.924,1.288,9.79,6.404,20.842,11.656c6.012-33.956,15.337-73.359,42.596-86.747  C331.074,187.865,316.122,225.267,307.755,264.355z"/>
<path style="fill:#C6B63E;" d="M142.151,325.068c39.239,0,53.907-35.158,62.544-75.321l0,0c0,0-69.945-48.425-109.829-10.72  C91.638,285.104,108.917,325.068,142.151,325.068z"/>
<path style="fill:#AD9A2B;" d="M148.81,324.701c0.766-0.085,2.745-0.376,3.107-0.439c0.952-0.162,2.286-0.44,2.704-0.541  c-30.3-8.205-42.223-53.517-35.718-97.493c-8.602,1.976-16.814,5.969-24.039,12.8c-2.334,33.568,6.923,78.665,39.584,85.282  c0.697,0.14,1.595,0.294,2.371,0.397c0.869,0.117,1.641,0.204,2.517,0.262c1.558,0.105,3.321,0.161,6.225,0.004  C145.935,324.95,148.229,324.766,148.81,324.701z"/>
<g>
	<path style="fill:#D8D8D8;" d="M378.426,239.203c0,7.394-5.996,13.392-13.394,13.392c-7.397,0-13.395-5.998-13.395-13.392   c0-7.4,5.998-13.396,13.395-13.396C372.43,225.807,378.426,231.803,378.426,239.203z"/>
	<circle style="fill:#D8D8D8;" cx="146.958" cy="274.583" r="13.393"/>
</g>
<g>
	<path style="fill:#C6B63E;" d="M346.492,343.488c-13.835,0-27.546-11.345-28.221-25.287c-0.602-12.424,8.614-22.167,9.668-23.236   c2.992-3.041,7.882-3.082,10.923-0.088c3.032,2.982,3.083,7.855,0.117,10.9c-1.557,1.624-5.534,6.886-5.271,11.731   c0.138,2.551,1.525,4.892,4.237,7.163c10.309,8.633,23.143-0.697,19.511-13.095c-1.201-4.095,1.148-8.389,5.242-9.586   c4.095-1.196,8.387,1.148,9.585,5.239C378.054,326.915,363.599,343.488,346.492,343.488z"/>
	<path style="fill:#C6B63E;" d="M178.545,221.132c-6.803,0-10.305-8.226-5.534-13.12c1.562-1.628,5.532-6.888,5.27-11.731   c-0.339-6.191-10.412-14.241-18.978-8.635c-3.667,2.4-6.848,7.485-4.772,14.565c1.201,4.097-1.146,8.387-5.241,9.588   c-4.096,1.202-8.388-1.147-9.587-5.242c-3.666-12.514,0.704-25.013,11.139-31.839c25.174-16.476,60.356,16.454,33.211,44.107   C182.54,220.36,180.544,221.132,178.545,221.132z"/>
</g>
<path style="fill:#EFBE78;" d="M450.754,422.138C575.002,276.621,500.673,49.594,313.681,6.536  c-9.115,10.638-17.375,22.033-24.663,34.078c103.65,15.774,184.859,105.273,184.859,215.387c0,59.831-24.123,114.021-63.165,153.399  C423.569,414.693,436.946,418.98,450.754,422.138z"/>
<g>
</g>
<g>
</g>
<g>
</g>
<g>
</g>
<g>
</g>
<g>
</g>
<g>
</g>
<g>
</g>
<g>
</g>
<g>
</g>
<g>
</g>
<g>
</g>
<g>
</g>
<g>
</g>
<g>
</g>
</svg>
