<?xml version="1.0" encoding="iso-8859-1"?>
<!-- Generator: Adobe Illustrator 19.0.0, SVG Export Plug-In . SVG Version: 6.00 Build 0)  -->
<svg xmlns="http://www.w3.org/2000/svg" xmlns:xlink="http://www.w3.org/1999/xlink" version="1.1" id="Layer_1" x="0px" y="0px" viewBox="0 0 512 512" style="enable-background:new 0 0 512 512;" xml:space="preserve">
<path style="fill:#B7294B;" d="M478.46,240.912C470.92,120.828,369.942,30.516,253.206,32.755  C138.544,34.638,44.02,123.759,35.559,238.132C25.005,383.417,151.354,494.155,287.966,474.723  C400.307,459,485.698,359.19,478.46,240.912z"/>
<path style="fill:#932147;" d="M308.628,470.822c-9.552,1.279-19.296,1.95-29.198,1.95c-120.335,0-217.884-97.551-217.884-217.884  c0-135.064,120.399-233.871,247.636-215.99c-18.003-4.361-36.774-6.511-55.976-6.144C138.544,34.638,44.02,123.759,35.559,238.132  C25.005,383.417,151.354,494.155,287.966,474.723C294.963,473.745,301.856,472.438,308.628,470.822z"/>
<path style="fill:#C4355E;" d="M293.748,35.742C207.785,170.833,266.7,351.855,415.174,410.538  c42.404-43.118,67.333-103.481,63.285-169.627C471.809,135.001,392.472,52.264,293.748,35.742z"/>
<path style="fill:#DF4D60;" d="M255.998,0C114.614,0,0,114.616,0,255.998C0,397.386,114.614,512,255.998,512  C396.724,512,512,398.008,512,255.998C512,114.616,397.384,0,255.998,0z M255.998,473.887  c-120.333,0-217.884-97.551-217.884-217.888c0-120.333,97.551-217.884,217.884-217.884c119.699,0,217.886,96.95,217.886,217.884  C473.885,376.335,376.335,473.887,255.998,473.887z"/>
<path style="fill:#EA6077;" d="M451.042,421.812C574.085,277.215,501.689,50.956,315.084,6.864  c-9.059,10.618-17.274,21.984-24.521,33.998c44.157,7.041,68.906,23.673,86.086,33.675  c114.459,76.258,130.281,237.209,34.553,334.371C423.988,414.25,437.305,418.587,451.042,421.812z"/>
<path style="fill:#DF4D60;" d="M303.971,230.078l43.887-43.885v98.828c0,10.341,8.383,18.726,18.726,18.726  c10.345,0,18.728-8.385,18.728-18.726V154.868c0-16.501-13.423-29.927-29.925-29.927h-130.15c-10.345,0-18.728,8.385-18.728,18.73  c0,10.341,8.383,18.728,18.728,18.728h93.439l-90.339,90.341l-22.807-22.805c-7.316-7.318-19.173-7.318-26.489,0  c-7.314,7.314-7.314,19.171,0,26.487l22.807,22.805l-75.859,75.861c-11.838,11.838-3.286,31.967,13.243,31.967  c4.794,0,9.587-1.827,13.243-5.484l75.861-75.859l23.37,23.373c3.659,3.661,8.451,5.484,13.243,5.484  c16.54,0,25.076-20.137,13.243-31.969l-23.373-23.373l30.605-30.603"/>
<path style="fill:#EA6077;" d="M355.387,124.941H258.43c-2.311,12.203-3.753,24.71-4.263,37.458h64.509l-59.93,59.93  c2.787,14.19,6.743,27.958,11.77,41.202c15.468-15.466,61.281-61.277,77.342-77.338v98.828c0,10.341,8.383,18.726,18.726,18.726  c10.345,0,18.728-8.385,18.728-18.726V154.868C385.312,138.366,371.889,124.941,355.387,124.941z"/>
<g>
</g>
<g>
</g>
<g>
</g>
<g>
</g>
<g>
</g>
<g>
</g>
<g>
</g>
<g>
</g>
<g>
</g>
<g>
</g>
<g>
</g>
<g>
</g>
<g>
</g>
<g>
</g>
<g>
</g>
</svg>
