<?xml version="1.0" encoding="iso-8859-1"?>
<!-- Generator: Adobe Illustrator 19.0.0, SVG Export Plug-In . SVG Version: 6.00 Build 0)  -->
<svg xmlns="http://www.w3.org/2000/svg" xmlns:xlink="http://www.w3.org/1999/xlink" version="1.1" id="Layer_1" x="0px" y="0px" viewBox="0 0 512 512" style="enable-background:new 0 0 512 512;" xml:space="preserve">
<path style="fill:#C13A2F;" d="M477.394,242.166C469.789,123.735,369.837,32.401,252.17,34.665  C125.375,36.749,24.492,145.155,34.588,274.334c9.764,127.083,125.699,220.351,252.339,202.324  C399.876,460.851,485.067,360.231,477.394,242.166z"/>
<path style="fill:#A52C26;" d="M321.819,468.844c-13.39,2.573-27.214,3.928-41.354,3.928c-120.337,0-217.888-97.551-217.888-217.884  c0-127.313,106.968-222.401,225.805-217.93c-11.822-1.731-23.918-2.53-36.212-2.294C125.375,36.749,24.492,145.155,34.588,274.334  c9.764,127.083,125.699,220.35,252.339,202.324C298.896,474.982,310.551,472.345,321.819,468.844z"/>
<path style="fill:#CE453E;" d="M292.57,37.616c-84.739,135.658-24.297,315.425,123.194,373.184  c41.645-43.24,65.879-103.257,61.63-168.633C470.678,137.575,391.93,54.133,292.57,37.616z"/>
<path style="fill:#D75A4A;" d="M428.94,296.36l-33.084-31.052c-11.473-10.779-30.367-2.61-30.367,13.146v47.052  c0,9.348-7.607,16.953-16.957,16.953c-9.346,0-16.955-7.605-16.955-16.953c0-4.545,0-122.877,0-127.528  c0-45.474-53.834-69.858-87.997-39.781c-20.047-17.649-49.924-17.651-69.97,0c-34.149-30.071-87.999-5.693-87.999,39.781  c0,9.958,8.072,18.03,18.03,18.03c9.956,0,18.03-8.072,18.03-18.03c0-9.348,7.605-16.955,16.955-16.955  c9.348,0,16.955,7.607,16.955,16.955c0,2.281,0,114.636,0,129.085c0,9.96,8.072,18.028,18.028,18.028  c9.958,0,18.032-8.069,18.032-18.028c0-3.745,0-126.918,0-129.085c0-9.348,7.605-16.955,16.953-16.955  c9.35,0,16.955,7.607,16.955,16.955c0,2.281,0,114.636,0,129.085c0,9.96,8.072,18.028,18.03,18.028  c9.956,0,18.03-8.069,18.03-18.028c0-14.541,0-127.091,0-129.085c0-9.348,7.607-16.955,16.955-16.955  c9.347,0,16.955,7.607,16.955,16.955c0,4.768,0,123.023,0,127.528c0,29.231,23.782,53.013,53.013,53.013  c29.233,0,53.014-23.782,53.014-53.013v-5.402l2.713,2.549c7.261,6.814,18.669,6.453,25.487-0.808  C436.562,314.585,436.2,303.175,428.94,296.36z"/>
<path style="fill:#E0685F;" d="M395.856,265.307c-11.473-10.779-30.367-2.61-30.367,13.146v47.052  c0,9.348-7.607,16.953-16.957,16.953c-9.346,0-16.955-7.605-16.955-16.953c0-4.545,0-122.877,0-127.528  c0-39.202-41.445-65.077-76.666-47.424c-2.463,28.7-0.198,57.083,6.698,84.605v-37.182c0-9.348,7.607-16.955,16.955-16.955  c9.347,0,16.955,7.607,16.955,16.955v28.318c0,9.229,0,76.53,0,86.323c16.468,25.175,37.245,47.285,61.298,65.248  c25.31-3.991,44.73-25.95,44.73-52.362v-5.402l2.713,2.549c7.261,6.814,18.669,6.453,25.487-0.808  c6.815-7.259,6.453-18.669-0.808-25.485L395.856,265.307z"/>
<path style="fill:#D75A4A;" d="M256,0C114.614,0,0,114.616,0,255.998C0,397.386,114.614,512,256,512  c140.726,0,256-113.992,256-256.002C512,114.616,397.384,0,256,0z M256,473.887c-120.335,0-217.884-97.551-217.884-217.888  c0-162.68,171.871-267.22,315.809-194.693l22.725,13.232c58.618,39.052,97.237,105.747,97.237,181.461  C473.887,376.335,376.337,473.887,256,473.887z"/>
<path style="fill:#E0685F;" d="M451.046,421.812C574.12,277.165,501.64,50.945,315.086,6.864  c-9.061,10.618-17.274,21.984-24.523,33.998c104.229,16.618,183.324,106.839,183.324,215.136c0,59.586-23.926,113.574-62.684,152.91  C423.99,414.25,437.307,418.587,451.046,421.812z"/>
<g>
</g>
<g>
</g>
<g>
</g>
<g>
</g>
<g>
</g>
<g>
</g>
<g>
</g>
<g>
</g>
<g>
</g>
<g>
</g>
<g>
</g>
<g>
</g>
<g>
</g>
<g>
</g>
<g>
</g>
</svg>
