<?xml version="1.0" encoding="iso-8859-1"?>
<!-- Generator: Adobe Illustrator 19.0.0, SVG Export Plug-In . SVG Version: 6.00 Build 0)  -->
<svg xmlns="http://www.w3.org/2000/svg" xmlns:xlink="http://www.w3.org/1999/xlink" version="1.1" id="Layer_1" x="0px" y="0px" viewBox="0 0 512 512" style="enable-background:new 0 0 512 512;" xml:space="preserve">
<path style="fill:#F2CD83;" d="M375.806,72.086l-23.048-13.423c-145.98-73.565-320.29,32.475-320.29,197.458  c0,122.041,98.935,220.976,220.978,220.976c122.039,0,220.974-98.935,220.974-220.976  C474.421,179.331,435.256,111.69,375.806,72.086z"/>
<path style="fill:#605A55;" d="M195.741,209.89c-18.953-3.129-23.498-5.418-46.302-13.538  c-25.191-11.592-38.469-27.511-39.467-47.317c-0.217-4.281-6.033-5.406-7.845-1.548c-4.855,10.325-9.677,26.239-5.091,43.438  c6.037,22.642,26.373,41.352,60.455,55.608c1.039,0.439,2.257,0.437,3.336-0.068c12.877-6.024,17.693-2.389,19.288-7.081  c3.016-8.867,8.826-16.279,17.27-22.019C200.454,215.278,199.404,210.49,195.741,209.89z"/>
<path style="fill:#DDAD58;" d="M278.777,469.504c-120.334,0-217.887-97.553-217.887-217.887  c0-116.193,89.076-205.52,194.966-216.858c-115.52,0.275-220.92,92.919-220.92,221.209c0,122.041,98.935,220.976,220.978,220.976  c28.492,0,55.723-5.396,80.732-15.216C318.218,466.793,298.814,469.504,278.777,469.504z"/>
<path style="fill:#F4D49D;" d="M412.062,409.954c38.591-39.784,62.36-94.029,62.36-153.834c0-76.79-39.166-144.431-98.615-184.035  l-23.048-13.423c-20.346-10.253-41.241-17.013-62.138-20.615C207.473,171.767,264.546,350.392,412.062,409.954z"/>
<path style="fill:#605A55;" d="M410.875,147.52c-0.806-1.714-2.674-2.666-4.526-2.293c-1.858,0.365-3.227,1.952-3.318,3.841  c-1.852,37.668-49.097,54.865-85.75,60.835c-3.664,0.59-4.726,5.387-1.657,7.474c8.434,5.742,14.237,13.146,17.246,22.007  c1.592,4.68,6.532,1.111,19.294,7.081c1.026,0.481,2.246,0.529,3.338,0.068c34.076-14.256,54.416-32.966,60.451-55.608  C420.533,173.741,415.72,157.837,410.875,147.52z"/>
<g>
	<path style="fill:#7A746F;" d="M407.444,145.17c-2.422-0.17-4.307,1.679-4.415,3.898c-1.852,37.668-49.097,54.865-85.75,60.835   c-3.664,0.59-4.726,5.387-1.657,7.474c6.616,4.501,11.604,10.032,14.905,16.482C377.022,219.879,414.041,192.586,407.444,145.17z"/>
	<path style="fill:#7A746F;" d="M105.564,145.17c2.432-0.17,4.309,1.684,4.417,3.898c1.844,37.665,49.098,54.866,85.752,60.835   c3.663,0.589,4.724,5.387,1.655,7.474c-6.616,4.501-11.604,10.032-14.906,16.482C136.102,219.912,98.982,192.682,105.564,145.17z"/>
</g>
<path style="fill:#D18146;" d="M256.001,0.001C114.615,0.001,0,114.616,0,256s114.615,255.999,256.001,255.999  C397.036,511.999,512,397.719,512,256C512,114.616,397.385,0.001,256.001,0.001z M256.001,473.887  c-120.336,0-217.885-97.553-217.885-217.887c0-120.336,97.549-217.885,217.885-217.885c119.715,0,217.885,96.964,217.885,217.885  C473.887,376.334,376.335,473.887,256.001,473.887z"/>
<path style="fill:#C45A41;" d="M256.493,405.589c0,0-25.795,3.987-40.368-6.839c5.568,16.975,21.533,29.665,40.368,29.665  c18.837,0,34.803-12.691,40.37-29.665C282.291,409.576,256.493,405.589,256.493,405.589z"/>
<path style="fill:#E28160;" d="M368.824,252.908c-10.634-13.437-26.895-15.958-32.434-16.433  c-10.123-30.518-49.839-40.152-79.897-38.908c-30.06-1.259-69.765,8.364-79.895,38.908c-5.537,0.475-21.8,2.996-32.436,16.433  c-9.43,11.914-11.768,29.016-6.944,50.826c0.209,0.946,0.935,1.696,1.872,1.939c6.558,1.696,23.274,1.869,37.279-12.513  c10.437,21.145,37.292,42.443,29.608,70.359c-3.73,13.532-2.619,24.331,3.293,32.09c9.876,12.963,31.932,14.704,47.221,12.579  c13.812,1.914,36.885,0.994,47.227-12.579c5.908-7.759,7.019-18.558,3.291-32.09c-7.689-27.923,19.18-49.223,29.606-70.359  c11.874,12.192,27.546,15.032,37.281,12.513c0.941-0.242,1.663-0.993,1.872-1.939C380.596,281.924,378.257,264.823,368.824,252.908z  "/>
<path style="fill:#EF8A6F;" d="M336.39,236.475c-10.123-30.518-49.839-40.152-79.897-38.908c-0.353-0.016-1.419-0.053-3.049-0.057  c4.97,51.855,25.419,99.191,56.683,137.327c6.862-14.977,20-28.518,26.491-41.677c11.874,12.192,27.546,15.032,37.281,12.513  c0.941-0.242,1.663-0.993,1.872-1.939c4.823-21.81,2.485-38.912-6.948-50.826C358.19,239.472,341.929,236.95,336.39,236.475z"/>
<g>
	<path style="fill:#CE6E5B;" d="M256.493,374.704c-4.267,0-7.724,3.459-7.724,7.728v26.387c3.878-0.143,6.718-0.49,7.724-0.631   c1.007,0.141,3.849,0.488,7.728,0.631v-26.387C264.222,378.164,260.76,374.704,256.493,374.704z"/>
	<path style="fill:#CE6E5B;" d="M248.77,197.587v32.612c0,4.269,3.457,7.728,7.724,7.728c4.267,0,7.728-3.459,7.728-7.728v-32.612   C261.468,197.493,252.615,197.455,248.77,197.587z"/>
</g>
<g>
	
		<ellipse transform="matrix(-0.8781 0.4784 -0.4784 -0.8781 544.9452 440.7686)" style="fill:#7A746F;" cx="216.334" cy="289.791" rx="8.504" ry="13.265"/>
	<path style="fill:#7A746F;" d="M302.992,278.125c-4.124-2.246-10.306,1.148-13.812,7.583c-3.506,6.432-3.004,13.466,1.122,15.714   c4.124,2.25,10.308-1.148,13.81-7.579C307.618,287.408,307.116,280.375,302.992,278.125z"/>
</g>
<path style="fill:#CE6E5B;" d="M311.502,253.363c-0.266-4.259-3.927-7.474-8.195-7.23c-16.784,1.065-36.234,6.677-46.773,18.35  c-10.723-11.913-32.165-17.425-46.853-18.35c-4.265-0.268-7.927,2.971-8.195,7.23c-0.264,4.259,2.971,7.927,7.23,8.192  c0.4,0.025,40.054,3.059,40.054,22.836v47.789c0,4.269,3.457,7.728,7.724,7.728c4.267,0,7.728-3.459,7.728-7.728V284.39  c0-19.685,39.66-22.811,40.062-22.836C308.537,261.287,311.768,257.618,311.502,253.363z"/>
<path style="fill:#7A746F;" d="M274.23,364.697c0,9.794-7.941,17.735-17.737,17.735c-9.794,0-17.733-7.941-17.733-17.735  c0-9.796,7.939-6.406,17.733-6.406C266.289,358.291,274.23,354.902,274.23,364.697z"/>
<path style="fill:#E29460;" d="M451.044,421.809C574.083,277.216,501.688,50.956,315.086,6.868  c-9.061,10.618-17.276,21.982-24.525,33.996C394.77,57.461,473.886,147.705,473.886,256.001c0,59.584-23.926,113.572-62.686,152.908  C423.989,414.253,437.305,418.584,451.044,421.809z"/>
<path style="fill:#D36C50;" d="M228.594,363.52c7.688-27.918-19.158-49.205-29.606-70.359c0,0-39.353-71.17,27.154-92.982  c-19.386,3.923-41.963,13.448-49.542,36.296c-5.537,0.475-21.8,2.996-32.436,16.433c-9.43,11.914-11.768,29.016-6.944,50.826  c0.209,0.946,0.935,1.696,1.872,1.939c6.558,1.696,23.274,1.869,37.279-12.513c1.755,3.555,3.985,7.116,6.445,10.734l0,0  c5.197,10.133,30.474,33.065,23.162,59.625c-3.73,13.532-2.619,24.331,3.293,32.09c9.876,12.963,31.932,14.704,47.221,12.579  c3.894,0.539,9.263,0.748,11.313,0.69C236.976,408.816,220.253,393.821,228.594,363.52z"/>
<g>
</g>
<g>
</g>
<g>
</g>
<g>
</g>
<g>
</g>
<g>
</g>
<g>
</g>
<g>
</g>
<g>
</g>
<g>
</g>
<g>
</g>
<g>
</g>
<g>
</g>
<g>
</g>
<g>
</g>
</svg>
