<?xml version="1.0" encoding="iso-8859-1"?>
<!-- Generator: Adobe Illustrator 19.0.0, SVG Export Plug-In . SVG Version: 6.00 Build 0)  -->
<svg xmlns="http://www.w3.org/2000/svg" xmlns:xlink="http://www.w3.org/1999/xlink" version="1.1" id="Layer_1" x="0px" y="0px" viewBox="0 0 512 512" style="enable-background:new 0 0 512 512;" xml:space="preserve">
<path style="fill:#179677;" d="M379.793,68.436l-23.275-13.548C209.118-19.394,33.112,87.676,33.112,254.267  c0,123.229,99.897,223.125,223.127,223.125s223.129-99.897,223.129-223.125C479.369,176.728,439.817,108.43,379.793,68.436z"/>
<path style="fill:#11775C;" d="M256.239,477.392c20.475,0,40.301-2.773,59.137-7.937c-12.341,2.173-25.038,3.317-38.004,3.317  c-120.334,0-217.885-97.551-217.885-217.884c0-140.28,129.878-241.448,262.402-213.39c-20.621-6.255-42.493-9.632-65.158-9.632  c-105.322,0-193.663,72.644-217.691,170.555c-3.865,16.482-5.93,33.814-5.93,51.845C33.112,377.496,133.008,477.392,256.239,477.392  z"/>
<path style="fill:#22A884;" d="M415.434,410.588c39.538-40.259,63.935-95.437,63.935-156.321c0-67.397-29.886-127.809-77.12-168.724  c-8.159-6.969-16.817-13.371-25.925-19.127l-13.841-8.057c-20.976-11.244-43.944-19.257-68.246-23.351  C207.876,169.732,265.828,351.465,415.434,410.588z"/>
<path style="fill:#26B99A;" d="M363.806,301.252c22.387-38.902,15.473-26.888,31.897-55.417c0-1.083,25.138-32.991,3.393-70.779  c-19.246-33.444-62.049-41.884-92.288-21.456c-19.433-14.383-46.746-13.792-65.636,2.69c-19.782-17.263-49.126-17.276-68.925,0  c-33.845-29.534-86.955-5.405-86.955,39.543c0,9.956,8.072,18.028,18.029,18.028c9.957,0,18.029-8.072,18.029-18.028  c0-9.061,7.373-16.431,16.433-16.431c9.062,0,16.434,7.37,16.434,16.431v131.305c0,9.956,8.072,18.028,18.029,18.028  c9.958,0,18.029-8.072,18.029-18.028c0-5.147,0-125.077,0-131.305c0-9.061,7.372-16.431,16.432-16.431  c9.063,0,16.435,7.37,16.435,16.431v131.305c0,9.956,8.071,18.028,18.028,18.028s18.029-8.072,18.029-18.028V195.832  c0-12.37,13.305-20.452,24.355-14.377c-8.208,18.812-7.062,40.397,3.219,58.259l35.422,61.538l-34.054,59.156  c-4.966,8.633-1.999,19.653,6.632,24.621c8.678,4.988,19.675,1.962,24.621-6.63l23.606-41.01l23.606,41.01  c3.334,5.795,9.402,9.037,15.642,9.037c13.764,0,22.546-14.974,15.609-27.029L363.806,301.252z M343.001,265.11l-21.45-37.26  c0-1.387-14.088-16.235-3.397-34.805c11.006-19.111,38.644-19.196,49.694,0.004c5.608,9.717,4.896,20.393,0.129,28.674  C347.591,257.131,352.686,248.281,343.001,265.11z"/>
<path style="fill:#3CC6A5;" d="M395.703,245.835c0-1.126,25.165-32.944,3.393-70.779c-19.228-33.411-62.02-41.904-92.288-21.456  c-15.297-11.321-35.052-13.149-51.624-6.092c-2.548,25.927-1.17,51.96,4.017,77.147v-28.823c0-12.37,13.305-20.452,24.355-14.377  c-8.208,18.812-7.062,40.397,3.219,58.259l35.422,61.538l-15.566,27.041c7.722,10.07,16.173,19.548,25.281,28.359l11.088-19.263  l23.606,41.01c3.334,5.795,9.402,9.037,15.642,9.037c13.764,0,22.546-14.974,15.609-27.029l-34.05-59.156  C386.198,262.344,379.282,274.359,395.703,245.835z M367.977,221.722c-20.386,35.408-15.292,26.557-24.976,43.387l-21.45-37.26  c0-1.387-14.088-16.235-3.397-34.805c11.006-19.111,38.644-19.196,49.694,0.004C373.456,202.765,372.744,213.442,367.977,221.722z"/>
<path style="fill:#26B99A;" d="M256,0C114.616,0,0,114.616,0,255.998C0,397.386,114.616,512,256,512  c141.039,0,256-114.28,256-256.002C512,114.616,397.384,0,256,0z M256,473.887c-120.335,0-217.885-97.551-217.885-217.888  c0-120.333,97.55-217.884,217.885-217.884c119.42,0,217.886,96.742,217.886,217.884C473.886,376.335,376.335,473.887,256,473.887z"/>
<path style="fill:#3CC6A5;" d="M451.046,421.812C574.083,277.216,501.69,50.957,315.088,6.865  c-9.061,10.618-17.278,21.984-24.525,33.998C394.791,57.479,473.886,147.7,473.886,255.998c0,59.586-23.926,113.574-62.684,152.91  C423.988,414.25,437.303,418.587,451.046,421.812z"/>
<g>
</g>
<g>
</g>
<g>
</g>
<g>
</g>
<g>
</g>
<g>
</g>
<g>
</g>
<g>
</g>
<g>
</g>
<g>
</g>
<g>
</g>
<g>
</g>
<g>
</g>
<g>
</g>
<g>
</g>
</svg>
