<?xml version="1.0" encoding="iso-8859-1"?>
<!-- Generator: Adobe Illustrator 19.0.0, SVG Export Plug-In . SVG Version: 6.00 Build 0)  -->
<svg version="1.1" id="Capa_1" xmlns="http://www.w3.org/2000/svg" xmlns:xlink="http://www.w3.org/1999/xlink" x="0px" y="0px"
	 viewBox="0 0 512 512" style="enable-background:new 0 0 512 512;" xml:space="preserve">
<path style="fill:#7E3260;" d="M25.583,215.935c1.876,3.438,5.041,5.991,8.798,7.097c3.758,1.106,7.801,0.672,11.239-1.204
	l86.885-47.391l72.431,54.323c4.804,3.603,11.311,3.937,16.46,0.849l90.789-54.473l72.197,54.147
	c2.62,1.964,5.738,2.954,8.862,2.954c2.85,0,5.706-0.823,8.191-2.481l103.989-69.325c3.259-2.172,5.522-5.551,6.29-9.392
	c0.768-3.84-0.021-7.83-2.194-11.089l-27.542-41.311c-4.525-6.788-13.695-8.622-20.481-4.096l-66.064,44.042l-70.387-52.79
	c-4.803-3.603-11.31-3.937-16.46-0.849l-90.789,54.473l-70.914-53.186c-4.629-3.471-10.855-3.92-15.934-1.15L7.7,152.309
	c-7.161,3.906-9.8,12.877-5.894,20.038L25.583,215.935z"/>
<path style="fill:#AB3C6F;" d="M255.999,116.496l-38.202,22.922l-70.915-53.186c-4.629-3.471-10.855-3.92-15.934-1.15L7.7,152.309
	c-7.161,3.906-9.8,12.877-5.894,20.038l23.775,43.59c1.876,3.438,5.041,5.991,8.798,7.097c3.758,1.106,7.801,0.672,11.239-1.204
	l86.885-47.391l72.431,54.323c4.804,3.603,11.311,3.937,16.46,0.849l34.604-20.762V116.496z"/>
<path style="fill:#7E3260;" d="M481.977,295.56c-4.525-6.788-13.695-8.621-20.481-4.096l-66.064,44.042l-70.387-52.79
	c-4.803-3.602-11.31-3.937-16.46-0.849l-90.789,54.473l-70.915-53.186c-4.629-3.471-10.855-3.921-15.934-1.15L7.7,349.231
	c-7.161,3.906-9.8,12.877-5.894,20.038l23.775,43.59c1.876,3.438,5.041,5.991,8.798,7.097c3.758,1.106,7.801,0.672,11.239-1.204
	l86.885-47.391l72.431,54.323c4.804,3.603,11.311,3.938,16.46,0.849l90.789-54.473l72.197,54.147
	c2.62,1.964,5.738,2.954,8.862,2.954c2.85,0,5.706-0.823,8.191-2.481l103.989-69.325c3.259-2.172,5.522-5.551,6.29-9.392
	c0.768-3.84-0.021-7.83-2.194-11.089L481.977,295.56z"/>
<path style="fill:#AB3C6F;" d="M255.999,313.418l-38.202,22.922l-70.915-53.186c-4.629-3.471-10.855-3.921-15.934-1.15L7.7,349.231
	c-7.161,3.906-9.8,12.877-5.894,20.038l23.775,43.59c1.876,3.438,5.041,5.991,8.798,7.097c3.758,1.106,7.801,0.672,11.239-1.204
	l86.885-47.391l72.431,54.323c4.804,3.603,11.311,3.938,16.46,0.849l34.604-20.762V313.418z"/>
<g>
</g>
<g>
</g>
<g>
</g>
<g>
</g>
<g>
</g>
<g>
</g>
<g>
</g>
<g>
</g>
<g>
</g>
<g>
</g>
<g>
</g>
<g>
</g>
<g>
</g>
<g>
</g>
<g>
</g>
</svg>
