<?xml version="1.0" encoding="iso-8859-1"?>
<!-- Generator: Adobe Illustrator 19.0.0, SVG Export Plug-In . SVG Version: 6.00 Build 0)  -->
<svg version="1.1" id="Capa_1" xmlns="http://www.w3.org/2000/svg" xmlns:xlink="http://www.w3.org/1999/xlink" x="0px" y="0px"
	 viewBox="0 0 512 512" style="enable-background:new 0 0 512 512;" xml:space="preserve">
<path style="fill:#5F55AE;" d="M510.42,131.472c-13.334-26.423-32.597-50.049-57.253-70.221
	C405.344,22.123,342.232,0.575,275.456,0.575c-61.323,0-146.13,18.762-197.358,60.676C29.082,101.354,1.502,155.323,0.433,213.213
	c-0.031,1.16-0.05,2.322-0.05,3.49c0,70.421,57.292,127.712,127.712,127.712s127.712-57.292,127.712-127.712
	c0-54.544-34.373-101.212-82.593-119.483c30.19-10.968,68.348-18.054,102.241-18.054c62.075,0,120.432,26.006,152.298,67.869
	c2.787,3.661,7.124,5.811,11.726,5.811h57.784c5.116,0,9.867-2.654,12.549-7.012C512.495,141.477,512.725,136.041,510.42,131.472z
	 M128.095,265.824c-27.085,0-49.12-22.035-49.12-49.12s22.035-49.12,49.12-49.12s49.12,22.035,49.12,49.12
	S155.181,265.824,128.095,265.824z"/>
<path style="fill:#7369C2;" d="M256.192,1.164C197.324,4.614,124.149,23.573,78.098,61.25
	C29.082,101.354,1.502,155.323,0.433,213.213c-0.031,1.16-0.05,2.322-0.05,3.49c0,70.421,57.292,127.712,127.712,127.712
	s127.712-57.292,127.712-127.712c0-54.544-34.373-101.212-82.593-119.483c24.579-8.928,54.437-15.283,82.976-17.337L256.192,1.164
	L256.192,1.164z M177.215,216.704c0,27.085-22.035,49.12-49.12,49.12s-49.12-22.035-49.12-49.12s22.035-49.12,49.12-49.12
	S177.215,189.618,177.215,216.704z"/>
<path style="fill:#FC9942;" d="M383.903,167.584c-70.421,0-127.712,57.292-127.712,127.712c0,54.544,34.373,101.212,82.593,119.483
	c-30.19,10.968-68.348,18.054-102.241,18.054c-62.075,0-120.432-26.006-152.298-67.869c-2.787-3.661-7.124-5.811-11.726-5.811
	H14.736c-5.116,0-9.867,2.654-12.549,7.012s-2.912,9.795-0.606,14.363c13.334,26.423,32.597,50.049,57.253,70.221
	c47.822,39.127,110.934,60.676,177.71,60.676c61.323,0,146.13-18.762,197.358-60.676c49.017-40.104,76.596-94.072,77.665-151.963
	c0.031-1.16,0.05-2.323,0.05-3.49C511.616,224.874,454.325,167.584,383.903,167.584z M433.023,295.296
	c0,27.085-22.035,49.12-49.12,49.12c-27.085,0-49.12-22.035-49.12-49.12s22.035-49.12,49.12-49.12
	C410.988,246.176,433.023,268.21,433.023,295.296z"/>
<g>
	<path style="fill:#FFC247;" d="M256.192,432.088c-6.647,0.487-13.224,0.745-19.648,0.745c-62.075,0-120.432-26.006-152.298-67.869
		c-2.787-3.661-7.124-5.811-11.726-5.811H14.736c-5.116,0-9.867,2.654-12.549,7.012s-2.912,9.795-0.606,14.363
		c13.334,26.423,32.597,50.049,57.253,70.221c47.822,39.127,110.934,60.676,177.71,60.676c6.318,0,12.895-0.211,19.648-0.614
		V432.088z"/>
	<path style="fill:#FFC247;" d="M256.191,295.296c0,0.005,0,0.01,0,0.016v-0.039C256.192,295.28,256.191,295.288,256.191,295.296z"
		/>
</g>
<g>
</g>
<g>
</g>
<g>
</g>
<g>
</g>
<g>
</g>
<g>
</g>
<g>
</g>
<g>
</g>
<g>
</g>
<g>
</g>
<g>
</g>
<g>
</g>
<g>
</g>
<g>
</g>
<g>
</g>
</svg>
