<?xml version="1.0" encoding="iso-8859-1"?>
<!-- Generator: Adobe Illustrator 19.0.0, SVG Export Plug-In . SVG Version: 6.00 Build 0)  -->
<svg version="1.1" id="Layer_1" xmlns="http://www.w3.org/2000/svg" xmlns:xlink="http://www.w3.org/1999/xlink" x="0px" y="0px"
	 viewBox="0 0 512 512" style="enable-background:new 0 0 512 512;" xml:space="preserve">
<path style="fill:#FFEB99;" d="M477.276,42.78c0,0,10.758,123.772-32.293,255.728c-5.013,15.366-27.61,11.985-27.829-4.176
	c-0.799-59.345-5.844-146.525-24.754-236.449C392.514,57.591,477.276,42.78,477.276,42.78z"/>
<path style="fill:#FFE477;" d="M478.468,78.469c-10.63,6.856-26.412,18.193-42.214,33.806
	c-11.402,11.266-21.082,22.963-29.044,35.048c-3.598-28.851-8.407-58.986-14.81-89.44c0.114-0.292,84.876-15.103,84.876-15.103
	S478.426,56.028,478.468,78.469z"/>
<path style="fill:#FFF5CC;" d="M421.162,2.263c27.525-9.347,56.045,11.449,56.113,40.518c0,0-121.525,61.462-128.412,181.974
	c-0.282-0.894-35.595-29.647-57.421-47.354v-33.624C291.443,143.778,323.624,35.383,421.162,2.263z"/>
<path style="fill:#FFEB99;" d="M34.724,42.78c0,0-10.758,123.772,32.293,255.728c5.013,15.366,27.61,11.985,27.829-4.176
	c0.799-59.345,5.844-146.525,24.754-236.449C119.486,57.591,34.724,42.78,34.724,42.78z"/>
<path style="fill:#FFE477;" d="M33.532,78.469c10.63,6.856,26.412,18.193,42.214,33.806c11.402,11.266,21.082,22.963,29.044,35.048
	c3.598-28.851,8.407-58.986,14.81-89.44c-0.114-0.292-84.876-15.103-84.876-15.103S33.573,56.028,33.532,78.469z"/>
<path style="fill:#FFF5CC;" d="M90.838,2.263C63.313-7.084,34.793,13.712,34.724,42.78c0,0,121.525,61.462,128.412,181.974
	c0.282-0.894,35.595-29.647,57.421-47.354v-33.623C220.557,143.778,188.376,35.383,90.838,2.263z"/>
<g>
	<path style="fill:#FFEB99;" d="M44.814,15.252c-6.212,7.353-10.065,16.88-10.09,27.528c0,0,121.525,61.462,128.412,181.974
		c0.188-0.598,15.982-13.605,32.955-27.454v-15.169C196.091,182.134,158.481,55.516,44.814,15.252z"/>
	<path style="fill:#FFEB99;" d="M467.185,15.252c6.212,7.353,10.066,16.88,10.09,27.528c0,0-121.525,61.462-128.412,181.974
		c-0.188-0.598-15.982-13.605-32.955-27.454v-15.169C315.909,182.134,353.519,55.516,467.185,15.252z"/>
</g>
<path style="fill:#957856;" d="M149.309,259.7c0,0-52.74-11.403-75.36-65.929c-4.025-9.703,1.754-20.729,12.033-22.895
	c23.418-4.935,65.232-7.991,97.019,21.44C182.137,193.18,149.309,259.7,149.309,259.7z"/>
<path style="fill:#806749;" d="M163.294,231.454c-48.282-37.493-89.34-37.683-89.34-37.683c22.62,54.526,75.36,65.929,75.36,65.929
	S155.928,246.302,163.294,231.454z"/>
<path style="fill:#957856;" d="M362.69,259.7c0,0,52.74-11.403,75.36-65.929c4.025-9.703-1.754-20.729-12.033-22.895
	c-23.418-4.935-65.232-7.991-97.019,21.44C329.863,193.18,362.69,259.7,362.69,259.7z"/>
<path style="fill:#806749;" d="M348.705,231.454c48.282-37.493,89.34-37.683,89.34-37.683c-22.62,54.526-75.36,65.929-75.36,65.929
	S356.072,246.302,348.705,231.454z"/>
<path style="fill:#B39A7C;" d="M256,131.111L256,131.111c-66.282,0-120.513,54.231-120.513,120.513v122.304
	c0,29.908,11.045,57.361,29.254,78.486h182.52c18.208-21.126,29.254-48.578,29.254-78.486V251.625
	C376.513,185.343,322.282,131.111,256,131.111z"/>
<g>
	<path style="fill:#A78966;" d="M198.661,452.416c7.708-8.743,12.408-20.193,12.408-32.694V256.37
		c0-27.257-22.301-49.558-49.559-49.558l0,0c-6.632,0-12.966,1.329-18.762,3.72c-4.695,12.84-7.262,26.681-7.262,41.095V373.93
		c0,29.908,11.045,57.361,29.253,78.486H198.661z"/>
	<path style="fill:#A78966;" d="M313.339,452.416c-7.708-8.744-12.408-20.194-12.408-32.694V256.37
		c0-27.257,22.301-49.558,49.56-49.558l0,0c6.632,0,12.966,1.329,18.762,3.72c4.695,12.84,7.262,26.681,7.262,41.095V373.93
		c0,29.908-11.045,57.361-29.253,78.486H313.339z"/>
	<path style="fill:#A78966;" d="M229.986,165.965c-0.8-4.254,1.823-8.391,6.059-9.279c6.525-1.37,13.239-2.065,19.954-2.065
		c4.329,0,7.837,3.509,7.837,7.837c0,4.328-3.508,7.837-7.837,7.837c-5.636,0-11.265,0.582-16.734,1.729
		C238.723,172.139,231.445,173.714,229.986,165.965z"/>
	<path style="fill:#A78966;" d="M317.301,198.387c-1.237-1.417-2.547-2.82-3.896-4.169c-9.773-9.773-21.811-16.938-34.812-20.721
		c-4.157-1.209-6.545-5.558-5.335-9.713c1.208-4.157,5.563-6.543,9.713-5.335c15.527,4.517,29.885,13.055,41.518,24.688
		c1.599,1.599,3.154,3.261,4.622,4.943c2.846,3.26,2.675,8.411-0.75,11.057C323.396,202.971,318.85,200.162,317.301,198.387z"/>
</g>
<g>
	<circle style="fill:#3E3D42;" cx="172.93" cy="270.973" r="18.142"/>
	<circle style="fill:#3E3D42;" cx="339.069" cy="270.973" r="18.142"/>
</g>
<path style="fill:#957856;" d="M256,399.693L256,399.693c-29.04,0-52.801,23.76-52.801,52.801v6.705
	C203.199,488.24,226.96,512,256,512l0,0c29.04,0,52.8-23.76,52.8-52.8v-6.705C308.8,423.454,285.04,399.693,256,399.693z"/>
<path style="fill:#806749;" d="M248.13,459.2v-6.705c0-21.018,12.45-39.262,30.335-47.742c-6.827-3.237-14.443-5.057-22.465-5.057
	c-29.04,0-52.801,23.76-52.801,52.801v6.705C203.199,488.24,226.96,512,256,512c8.023,0,15.638-1.82,22.465-5.057
	C260.58,498.461,248.13,480.217,248.13,459.2z"/>
<path style="fill:#2D2D30;" d="M256,425.61c-14.824,0-26.883,12.06-26.883,26.883v6.706c0,14.824,12.06,26.883,26.883,26.883
	c14.823,0,26.883-12.06,26.883-26.883v-6.706C282.883,437.67,270.824,425.61,256,425.61z"/>
<path style="fill:#1D1D1F;" d="M248.13,452.505c0-9.797,2.713-18.987,7.41-26.872c-14.612,0.247-26.424,12.202-26.424,26.872v6.706
	c0,14.669,11.813,26.625,26.424,26.872c-4.699-7.886-7.41-17.076-7.41-26.872V452.505z"/>
<path style="fill:#FFDAAA;" d="M346.339,399.764c-17.099-20.987-67.322-49.087-90.339-35.072
	c-23.016-14.015-73.239,14.085-90.339,35.072c-17.712,21.739-14.447,53.721,7.292,71.433c21.739,17.712,53.721,14.447,71.433-7.292
	c4.012-4.925,8.035-11.725,11.613-19.488c3.578,7.764,7.601,14.565,11.613,19.488c17.712,21.739,49.693,25.004,71.433,7.292
	C360.785,453.485,364.05,421.504,346.339,399.764z"/>
<path style="fill:#FFC477;" d="M209.399,434.403c1.922-20.049,12.927-49.444,28.465-73.381
	c-25.05,1.485-58.801,22.301-72.203,38.751c-17.712,21.739-14.447,53.721,7.292,71.433c13.75,11.203,31.596,14.004,47.338,9.055
	C211.98,467.065,207.797,451.128,209.399,434.403z"/>
<path style="fill:#6A563D;" d="M248.13,361.658v97.121c2.735-4.133,5.408-9,7.87-14.341c2.442,5.299,5.093,10.13,7.803,14.241
	v-97.007c-2.839,0.606-5.387,1.578-7.803,3.042C253.641,363.277,250.995,362.262,248.13,361.658z"/>
<path style="fill:#3E3D42;" d="M283.212,351.844c0,15.029-12.184,33.26-27.212,33.26c-15.029,0-27.212-18.23-27.212-33.26
	s12.184-15.119,27.212-15.119C271.029,336.725,283.212,336.815,283.212,351.844z"/>
<g>
	<path style="fill:#2D2D30;" d="M242.067,355.583c-0.885-1.87-2.504-3.335-4.451-4.032c-1.934-0.692-4.124-0.581-5.984,0.3
		c-1.074,0.508-2.012,1.268-2.752,2.188c0.659,8.752,5.159,18.21,11.757,24.363c1.104-0.021,2.204-0.264,3.207-0.739
		c1.861-0.88,3.335-2.503,4.023-4.446c0.697-1.948,0.589-4.128-0.29-5.989L242.067,355.583z"/>
	<path style="fill:#2D2D30;" d="M283.121,354.022c-0.738-0.911-1.67-1.666-2.737-2.17c-1.861-0.88-4.05-0.992-5.984-0.3
		c-1.948,0.697-3.566,2.162-4.451,4.032l-5.509,11.644c-0.881,1.861-0.987,4.042-0.29,5.989c0.688,1.944,2.163,3.566,4.023,4.446
		c0.999,0.472,2.092,0.715,3.191,0.738C277.967,372.244,282.467,362.778,283.121,354.022z"/>
</g>
<g>
</g>
<g>
</g>
<g>
</g>
<g>
</g>
<g>
</g>
<g>
</g>
<g>
</g>
<g>
</g>
<g>
</g>
<g>
</g>
<g>
</g>
<g>
</g>
<g>
</g>
<g>
</g>
<g>
</g>
</svg>
