<?xml version="1.0" encoding="iso-8859-1"?>
<!-- Generator: Adobe Illustrator 19.0.0, SVG Export Plug-In . SVG Version: 6.00 Build 0)  -->
<svg version="1.1" id="Capa_1" xmlns="http://www.w3.org/2000/svg" xmlns:xlink="http://www.w3.org/1999/xlink" x="0px" y="0px"
	 viewBox="0 0 512 512" style="enable-background:new 0 0 512 512;" xml:space="preserve">
<path style="fill:#5F55AE;" d="M497.231,224.71H448c-8.157,0-14.769,6.613-14.769,14.769v24.615c0,8.144-6.625,14.769-14.769,14.769
	c-8.144,0-14.769-6.625-14.769-14.769v-71.897c0-54.496-27.7-104.096-74.097-132.68C283.199,30.935,226.44,28.501,177.763,53.01
	c-28.77,14.489-51.345,39.678-63.566,70.93c-7.948,20.324-10.973,41.73-8.932,62.659C43.501,205.08,0,262.484,0,328.095
	c0,81.438,66.255,147.692,147.692,147.692s147.692-66.255,147.692-147.692c0-67.613-46.052-126.376-110.739-143.018
	c-5.09-23.39,7.154-50.941,28.546-61.713c24.069-12.123,52.141-10.919,75.086,3.219c22.946,14.135,36.645,38.665,36.645,65.616
	v71.897c0,51.577,41.961,93.538,93.538,93.538S512,315.672,512,264.095v-24.615C512,231.323,505.387,224.71,497.231,224.71z
	 M147.692,397.018c-38.004,0-68.923-30.919-68.923-68.923s30.919-68.923,68.923-68.923s68.923,30.919,68.923,68.923
	S185.697,397.018,147.692,397.018z"/>
<path style="fill:#7369C2;" d="M177.763,53.01c-28.77,14.489-51.345,39.678-63.566,70.93c-7.948,20.324-10.973,41.73-8.932,62.659
	C43.501,205.08,0,262.484,0,328.095c0,81.438,66.255,147.692,147.692,147.692c42.752,0,81.313-18.267,108.308-47.396V227.73
	c-18.801-20.32-43.326-35.443-71.354-42.655c-5.09-23.39,7.154-50.941,28.546-61.713c13.544-6.821,28.356-9.423,42.808-7.875V36.441
	C229.449,35.048,202.558,40.526,177.763,53.01z M216.615,328.095c0,38.004-30.919,68.923-68.923,68.923
	s-68.923-30.919-68.923-68.923s30.919-68.923,68.923-68.923S216.615,290.09,216.615,328.095z"/>
<g>
</g>
<g>
</g>
<g>
</g>
<g>
</g>
<g>
</g>
<g>
</g>
<g>
</g>
<g>
</g>
<g>
</g>
<g>
</g>
<g>
</g>
<g>
</g>
<g>
</g>
<g>
</g>
<g>
</g>
</svg>
