<?xml version="1.0" encoding="iso-8859-1"?>
<!-- Generator: Adobe Illustrator 19.0.0, SVG Export Plug-In . SVG Version: 6.00 Build 0)  -->
<svg version="1.1" id="Capa_1" xmlns="http://www.w3.org/2000/svg" xmlns:xlink="http://www.w3.org/1999/xlink" x="0px" y="0px"
	 viewBox="0 0 512 512" style="enable-background:new 0 0 512 512;" xml:space="preserve">
<path style="fill:#FC9942;" d="M497.231,357.169H14.769C6.613,357.169,0,363.782,0,371.938v49.231
	c0,8.157,6.613,14.769,14.769,14.769h482.462c8.157,0,14.769-6.613,14.769-14.769v-49.231
	C512,363.782,505.387,357.169,497.231,357.169z"/>
<path style="fill:#FFC247;" d="M256,357.169H14.769C6.613,357.169,0,363.782,0,371.938v49.231c0,8.157,6.613,14.769,14.769,14.769
	H256V357.169z"/>
<path style="fill:#FC9942;" d="M497.231,253.788H412.8c0.818-6.531,1.231-13.112,1.231-19.695
	c0-87.138-70.892-158.031-158.031-158.031S97.969,146.954,97.969,234.092c0,6.583,0.413,13.163,1.231,19.695H14.769
	C6.613,253.788,0,260.4,0,268.557v49.231c0,3.918,1.556,7.673,4.326,10.444c2.77,2.77,6.527,4.325,10.443,4.325l138.317-0.002
	c14.226,0,26.971-7.352,34.092-19.667c7.122-12.315,7.139-27.029,0.045-39.359c-6.86-11.923-10.484-25.559-10.484-39.437
	c0-43.705,35.556-79.262,79.262-79.262c43.705,0,79.262,35.556,79.262,79.262c0,13.877-3.626,27.515-10.486,39.44
	c-7.094,12.33-7.077,27.044,0.045,39.359c7.123,12.315,19.868,19.667,34.093,19.667h138.316c8.157,0,14.769-6.613,14.769-14.769
	v-49.231C512,260.4,505.387,253.788,497.231,253.788z"/>
<path style="fill:#FFC247;" d="M97.969,234.092c0,6.583,0.413,13.163,1.231,19.695H14.769C6.613,253.788,0,260.4,0,268.557v49.231
	c0,3.918,1.556,7.673,4.326,10.444c2.77,2.77,6.527,4.325,10.443,4.325l138.317-0.002c14.226,0,26.971-7.352,34.092-19.667
	c7.122-12.315,7.139-27.029,0.045-39.359c-6.86-11.923-10.484-25.559-10.484-39.437c0-43.705,35.556-79.262,79.262-79.262V76.062
	C168.862,76.062,97.969,146.954,97.969,234.092z"/>
<g>
</g>
<g>
</g>
<g>
</g>
<g>
</g>
<g>
</g>
<g>
</g>
<g>
</g>
<g>
</g>
<g>
</g>
<g>
</g>
<g>
</g>
<g>
</g>
<g>
</g>
<g>
</g>
<g>
</g>
</svg>
