<?xml version="1.0" encoding="iso-8859-1"?>
<!-- Generator: Adobe Illustrator 19.0.0, SVG Export Plug-In . SVG Version: 6.00 Build 0)  -->
<svg version="1.1" id="Capa_1" xmlns="http://www.w3.org/2000/svg" xmlns:xlink="http://www.w3.org/1999/xlink" x="0px" y="0px"
	 viewBox="0 0 512 512" style="enable-background:new 0 0 512 512;" xml:space="preserve">
<path style="fill:#7E3260;" d="M497.231,118.154c8.157,0,14.769-6.613,14.769-14.769V54.154c0-8.157-6.613-14.769-14.769-14.769
	C399.506,39.385,320,118.89,320,216.615H192c0-97.725-79.506-177.231-177.231-177.231C6.613,39.385,0,45.997,0,54.154v49.231
	c0,8.157,6.613,14.769,14.769,14.769c54.292,0,98.462,44.17,98.462,98.462v78.769c0,54.292-44.17,98.462-98.462,98.462
	C6.613,393.846,0,400.459,0,408.615v49.231c0,8.157,6.613,14.769,14.769,14.769C112.494,472.615,192,393.11,192,295.385h128
	c0,97.725,79.506,177.231,177.231,177.231c8.157,0,14.769-6.613,14.769-14.769v-49.231c0-8.157-6.613-14.769-14.769-14.769
	c-54.292,0-98.462-44.17-98.462-98.462v-78.769C398.769,162.324,442.939,118.154,497.231,118.154z"/>
<path style="fill:#AB3C6F;" d="M256,216.615h-64c0-97.725-79.506-177.231-177.231-177.231C6.613,39.385,0,45.997,0,54.154v49.231
	c0,8.157,6.613,14.769,14.769,14.769c54.292,0,98.462,44.17,98.462,98.462v78.769c0,54.292-44.17,98.462-98.462,98.462
	C6.613,393.846,0,400.459,0,408.615v49.231c0,8.157,6.613,14.769,14.769,14.769C112.494,472.615,192,393.11,192,295.385h64V216.615z
	"/>
<g>
</g>
<g>
</g>
<g>
</g>
<g>
</g>
<g>
</g>
<g>
</g>
<g>
</g>
<g>
</g>
<g>
</g>
<g>
</g>
<g>
</g>
<g>
</g>
<g>
</g>
<g>
</g>
<g>
</g>
</svg>
