<?xml version="1.0" encoding="iso-8859-1"?>
<!-- Generator: Adobe Illustrator 19.0.0, SVG Export Plug-In . SVG Version: 6.00 Build 0)  -->
<svg version="1.1" id="Capa_1" xmlns="http://www.w3.org/2000/svg" xmlns:xlink="http://www.w3.org/1999/xlink" x="0px" y="0px"
	 viewBox="0 0 512 512" style="enable-background:new 0 0 512 512;" xml:space="preserve">
<path style="fill:#9BF6F1;" d="M497.231,0H315.077c-8.157,0-14.769,6.613-14.769,14.769V64c0,8.157,6.613,14.769,14.769,14.769
	h62.452L196.921,259.377l-55.697-55.696c-5.767-5.767-15.119-5.767-20.887,0l-34.811,34.81c-5.768,5.767-5.768,15.119,0,20.887
	l55.696,55.697L4.326,451.972C1.556,454.742,0,458.498,0,462.416s1.557,7.674,4.326,10.443l34.816,34.815
	c2.883,2.884,6.663,4.326,10.443,4.326s7.56-1.442,10.443-4.326l136.897-136.897l55.696,55.696c2.77,2.77,6.526,4.326,10.443,4.326
	c3.917,0,7.674-1.556,10.443-4.326l34.811-34.811c5.768-5.767,5.768-15.119,0-20.887l-55.696-55.696l180.609-180.608v62.452
	c0,8.157,6.613,14.769,14.769,14.769h49.231c8.157,0,14.769-6.613,14.769-14.769V14.769C512,6.613,505.387,0,497.231,0z"/>
<path style="fill:#C8FFFA;" d="M507.675,4.325C505.001,1.653,501.309,0,497.231,0H315.077c-8.157,0-14.769,6.613-14.769,14.769V64
	c0,8.157,6.613,14.769,14.769,14.769h62.452L196.921,259.377l-55.697-55.696c-5.767-5.767-15.119-5.767-20.887,0l-34.811,34.81
	c-5.768,5.767-5.768,15.119-0.001,20.887l55.696,55.698L4.326,451.972C1.556,454.742,0,458.498,0,462.416s1.556,7.674,4.325,10.443
	l17.408,17.408L507.675,4.325z"/>
<g>
</g>
<g>
</g>
<g>
</g>
<g>
</g>
<g>
</g>
<g>
</g>
<g>
</g>
<g>
</g>
<g>
</g>
<g>
</g>
<g>
</g>
<g>
</g>
<g>
</g>
<g>
</g>
<g>
</g>
</svg>
