<?xml version="1.0" encoding="iso-8859-1"?>
<!-- Generator: Adobe Illustrator 19.0.0, SVG Export Plug-In . SVG Version: 6.00 Build 0)  -->
<svg version="1.1" id="Capa_1" xmlns="http://www.w3.org/2000/svg" xmlns:xlink="http://www.w3.org/1999/xlink" x="0px" y="0px"
	 viewBox="0 0 512 512" style="enable-background:new 0 0 512 512;" xml:space="preserve">
<path style="fill:#FC9942;" d="M507.675,379.272l-87.028-87.029c-2.77-2.77-6.526-4.326-10.444-4.326
	c-3.917,0-7.673,1.556-10.443,4.326l-34.811,34.811c-5.768,5.767-5.768,15.119,0,20.887l2.389,2.39h-12.876V168.658
	c0-51.842-42.177-94.019-94.02-94.019c-21.313,0-42.207,7.344-58.831,20.681c-10.109,8.108-18.398,18.237-24.381,29.609
	c-5.984-11.372-14.272-21.501-24.38-29.609c-16.624-13.337-37.518-20.681-58.831-20.681c-5.149,0-10.24,0.413-15.251,1.233V35.255
	c0-8.157-6.613-14.769-14.769-14.769h-49.23C6.613,20.485,0,27.098,0,35.255v354.462c0,8.157,6.613,14.769,14.769,14.769H64
	c8.157,0,14.769-6.613,14.769-14.769V168.658c0-8.409,6.841-15.25,15.251-15.25c7.202,0,13.325,4.91,14.887,11.941l29.877,134.448
	c1.502,6.757,7.495,11.565,14.418,11.565h48.059c6.922,0,12.916-4.808,14.418-11.565l29.878-134.448
	c1.562-7.031,7.684-11.941,14.886-11.941c8.41,0,15.251,6.841,15.251,15.25v245.673c0,8.157,6.613,14.769,14.769,14.769h76.876
	l-2.389,2.39c-5.768,5.767-5.768,15.119,0,20.887l34.811,34.811c2.77,2.77,6.526,4.326,10.443,4.326
	c3.918,0,7.673-1.556,10.444-4.326l87.028-87.029C513.441,394.392,513.441,385.04,507.675,379.272z"/>
<path style="fill:#FFC247;" d="M256,74.753c-19.758,0.945-38.922,8.158-54.388,20.566c-10.109,8.108-18.398,18.237-24.381,29.609
	c-5.984-11.372-14.272-21.501-24.38-29.609c-16.624-13.337-37.518-20.681-58.831-20.681c-5.149,0-10.24,0.413-15.251,1.233V35.255
	c0-8.157-6.613-14.769-14.769-14.769H14.769C6.613,20.485,0,27.098,0,35.255v354.462c0,8.157,6.613,14.769,14.769,14.769H64
	c8.157,0,14.769-6.613,14.769-14.769V168.658c0-8.409,6.841-15.25,15.251-15.25c7.202,0,13.325,4.91,14.887,11.941l29.877,134.448
	c1.502,6.757,7.495,11.565,14.418,11.565h48.059c6.922,0,12.916-4.808,14.418-11.565l29.878-134.448
	c1.227-5.525,5.275-9.727,10.445-11.28V74.753H256z"/>
<g>
</g>
<g>
</g>
<g>
</g>
<g>
</g>
<g>
</g>
<g>
</g>
<g>
</g>
<g>
</g>
<g>
</g>
<g>
</g>
<g>
</g>
<g>
</g>
<g>
</g>
<g>
</g>
<g>
</g>
</svg>
