<?xml version="1.0" encoding="iso-8859-1"?>
<!-- Generator: Adobe Illustrator 19.0.0, SVG Export Plug-In . SVG Version: 6.00 Build 0)  -->
<svg version="1.1" id="Capa_1" xmlns="http://www.w3.org/2000/svg" xmlns:xlink="http://www.w3.org/1999/xlink" x="0px" y="0px"
	 viewBox="0 0 512 512" style="enable-background:new 0 0 512 512;" xml:space="preserve">
<path style="fill:#7E3260;" d="M497.231,64h-83.692c-42.482,0-70.454,25.064-92.929,45.203
	c-21.748,19.488-37.462,33.567-64.609,33.567s-42.861-14.079-64.609-33.567C168.916,89.064,140.944,64,98.462,64H14.769
	C6.613,64,0,70.613,0,78.769V128c0,8.157,6.613,14.769,14.769,14.769h83.692c11.184,0,20.889,7.648,40.363,25.097
	c4.826,4.324,9.996,8.957,15.594,13.62c-32.258,28.777-51.035,70.078-51.035,113.898C103.385,379.537,171.847,448,256,448
	s152.615-68.463,152.615-152.615c0-43.82-18.777-85.121-51.035-113.898c5.599-4.663,10.769-9.296,15.593-13.619
	c19.476-17.45,29.18-25.098,40.364-25.098h83.692c8.157,0,14.769-6.613,14.769-14.769V78.769C512,70.613,505.387,64,497.231,64z
	 M256,369.231c-40.719,0-73.846-33.127-73.846-73.846s33.127-73.846,73.846-73.846s73.846,33.127,73.846,73.846
	S296.719,369.231,256,369.231z"/>
<path style="fill:#AB3C6F;" d="M182.154,295.385c0-40.719,33.127-73.846,73.846-73.846v-78.769
	c-27.148,0-42.861-14.079-64.609-33.567C168.916,89.064,140.944,64,98.462,64H14.769C6.613,64,0,70.613,0,78.769V128
	c0,8.157,6.613,14.769,14.769,14.769h83.692c11.184,0,20.889,7.648,40.363,25.097c4.826,4.324,9.996,8.957,15.594,13.62
	c-32.258,28.777-51.035,70.078-51.035,113.898C103.385,379.537,171.847,448,256,448v-78.769
	C215.281,369.231,182.154,336.103,182.154,295.385z"/>
<g>
</g>
<g>
</g>
<g>
</g>
<g>
</g>
<g>
</g>
<g>
</g>
<g>
</g>
<g>
</g>
<g>
</g>
<g>
</g>
<g>
</g>
<g>
</g>
<g>
</g>
<g>
</g>
<g>
</g>
</svg>
