<?xml version="1.0" encoding="iso-8859-1"?>
<!-- Generator: Adobe Illustrator 19.0.0, SVG Export Plug-In . SVG Version: 6.00 Build 0)  -->
<svg version="1.1" id="Capa_1" xmlns="http://www.w3.org/2000/svg" xmlns:xlink="http://www.w3.org/1999/xlink" x="0px" y="0px"
	 viewBox="0 0 512 512" style="enable-background:new 0 0 512 512;" xml:space="preserve">
<path style="fill:#7E3260;" d="M407.631,185.107c-8.752,0-17.307,1.057-25.6,3.16v-33.646c0-54.855-44.628-99.483-99.484-99.483
	c-22.552,0-44.658,7.772-62.249,21.883c-12.824,10.286-22.879,23.648-29.282,38.663c-6.403-15.014-16.459-28.376-29.282-38.663
	c-17.591-14.112-39.699-21.883-62.249-21.883c-7.039,0-13.959,0.723-20.714,2.158V29.538c0-8.157-6.613-14.769-14.769-14.769H14.769
	C6.613,14.769,0,21.38,0,29.538v368.246c0,8.157,6.613,14.769,14.769,14.769H64c8.157,0,14.769-6.613,14.769-14.769V154.621
	c0-11.422,9.292-20.713,20.714-20.713c9.783,0,18.098,6.67,20.221,16.221l32.864,147.892c1.502,6.757,7.495,11.565,14.418,11.565
	h48.059c6.922,0,12.916-4.808,14.418-11.565l32.864-147.892c2.123-9.55,10.438-16.221,20.221-16.221
	c11.422,0,20.714,9.293,20.714,20.713v223.471l-70.892,53.169c-6.525,4.895-7.848,14.152-2.954,20.677l29.538,39.385
	c2.902,3.87,7.336,5.909,11.827,5.909c3.083,0,6.193-0.963,8.85-2.955l59.32-44.49l40.831,40.831c5.767,5.767,15.119,5.767,20.887,0
	l34.811-34.811c5.768-5.767,5.768-15.119,0-20.887l-1.198-1.199C478.965,421.913,512,381.142,512,332.799v-43.323
	C512,231.927,465.181,185.107,407.631,185.107z M433.231,332.799c0,14.115-11.485,25.6-25.6,25.6h-25.6v-68.923
	c0-14.115,11.485-25.6,25.6-25.6s25.6,11.485,25.6,25.6V332.799z"/>
<g>
	<path style="fill:#AB3C6F;" d="M14.769,412.553H64c8.157,0,14.769-6.613,14.769-14.769V154.621
		c0-11.422,9.292-20.713,20.714-20.713c9.783,0,18.098,6.67,20.221,16.221l32.864,147.892c1.502,6.757,7.495,11.565,14.418,11.565
		h48.059c6.922,0,12.916-4.808,14.418-11.565L256,178.605V58.787c-12.939,3.591-25.137,9.76-35.7,18.233
		c-12.824,10.286-22.879,23.648-29.282,38.663c-6.403-15.014-16.459-28.376-29.282-38.663
		c-17.593-14.112-39.701-21.882-62.251-21.882c-7.039,0-13.959,0.723-20.714,2.158V29.538c0-8.157-6.613-14.769-14.769-14.769
		H14.769C6.613,14.769,0,21.38,0,29.538v368.246C0,405.941,6.613,412.553,14.769,412.553z"/>
	<path style="fill:#AB3C6F;" d="M255.999,413.538l-23.63,17.723c-6.525,4.895-7.848,14.152-2.954,20.677l26.584,35.444V413.538z"/>
</g>
<g>
</g>
<g>
</g>
<g>
</g>
<g>
</g>
<g>
</g>
<g>
</g>
<g>
</g>
<g>
</g>
<g>
</g>
<g>
</g>
<g>
</g>
<g>
</g>
<g>
</g>
<g>
</g>
<g>
</g>
</svg>
